<?xml version="1.0" encoding="UTF-8"?>
<svg id="Capa_2" data-name="Capa 2" xmlns="http://www.w3.org/2000/svg" viewBox="0 0 24.49 21.94">
  <defs>
    <style>
      .cls-1 {
        fill: #f9932f;
      }
    </style>
  </defs>
  <g id="números_y_box" data-name="números y box">
    <g>
      <path class="cls-1" d="m13.77,21.94c-.38,0-.77-.15-1.06-.44-.59-.59-.59-1.54,0-2.12l8.16-8.16L12.22,2.56c-.59-.59-.59-1.54,0-2.12s1.54-.59,2.12,0l9.71,9.71c.59.59.59,1.54,0,2.12l-9.22,9.22c-.29.29-.68.44-1.06.44Z"/>
      <path class="cls-1" d="m22.37,12.47H1.5c-.83,0-1.5-.67-1.5-1.5s.67-1.5,1.5-1.5h20.87c.83,0,1.5.67,1.5,1.5s-.67,1.5-1.5,1.5Z"/>
    </g>
  </g>
</svg>