<?xml version="1.0" encoding="UTF-8"?>
<svg id="Capa_2" data-name="Capa 2" xmlns="http://www.w3.org/2000/svg" viewBox="0 0 22.23 19.82">
  <defs>
    <style>
      .cls-1 {
        fill: #a1b5d1;
      }
    </style>
  </defs>
  <g id="números_y_box" data-name="números y box">
    <path class="cls-1" d="m21.15,6.31s-1.33-1.73-2.91-3.06c-1.46-1.3-3.06-2.25-3.87-2.68-1.24-.67-2.76-.87-4.65.08C8.17,1.19,2.75,4.82.76,7.99c-1.81,2.9.16,5.35.32,5.58-.03-.03,1.33,1.72,2.91,3.06,1.45,1.3,3.05,2.25,3.88,2.68,1.89.98,3.57.32,4.65-.08,1.53-.55,6.96-4.17,8.95-7.34,1.81-2.9-.15-5.36-.32-5.59"/>
  </g>
</svg>