<?xml version="1.0" encoding="UTF-8"?>
<svg id="Capa_2" data-name="Capa 2" xmlns="http://www.w3.org/2000/svg" xmlns:xlink="http://www.w3.org/1999/xlink" viewBox="0 0 351.54 297.49">
  <defs>
    <style>
      .cls-1 {
        fill: url(#linear-gradient);
      }

      .cls-2 {
        fill: #f9932f;
      }

      .cls-3 {
        fill: #0086c8;
      }

      .cls-4 {
        fill: #ffcd2f;
      }

      .cls-5 {
        fill: #fefefe;
      }

      .cls-6 {
        fill: #afb2d3;
      }

      .cls-7 {
        fill: #b0b3d3;
      }

      .cls-8 {
        fill: #bec1db;
      }

      .cls-9 {
        fill: #d2d4e6;
      }

      .cls-10 {
        fill: #e26a27;
      }

      .cls-11 {
        fill: #e15128;
      }

      .cls-12 {
        fill: #242c87;
      }

      .cls-13 {
        fill: #070a58;
      }

      .cls-14 {
        fill: #1c3d89;
      }

      .cls-15 {
        fill: #62a3d6;
      }

      .cls-16 {
        fill: url(#Degradado_sin_nombre_8-2);
      }

      .cls-17 {
        fill: #fe0065;
        isolation: isolate;
        opacity: .45;
      }

      .cls-18 {
        fill: url(#Degradado_sin_nombre_8);
      }
    </style>
    <linearGradient id="Degradado_sin_nombre_8" data-name="Degradado sin nombre 8" x1="211.23" y1="-36.7" x2="211.07" y2="-104.91" gradientTransform="translate(0 15.99) scale(1 -1)" gradientUnits="userSpaceOnUse">
      <stop offset="0" stop-color="#ffe387"/>
      <stop offset="1" stop-color="#ef8228"/>
    </linearGradient>
    <linearGradient id="Degradado_sin_nombre_8-2" data-name="Degradado sin nombre 8" x1="81.18" y1="-46.35" x2="144.66" y2="-111.96" xlink:href="#Degradado_sin_nombre_8"/>
    <linearGradient id="linear-gradient" x1="408.38" y1="-260.94" x2="299.48" y2="-137.41" gradientTransform="translate(0 15.99) scale(1 -1)" gradientUnits="userSpaceOnUse">
      <stop offset="0" stop-color="#ffde00"/>
      <stop offset="1" stop-color="#fe0065"/>
    </linearGradient>
  </defs>
  <g id="título">
    <g>
      <g>
        <path class="cls-12" d="m95.53,35.4c1.25-.82,2.49-1.67,3.77-2.46,2.76-1.71,5.41-1.08,7.16,1.69,1.48,2.36,2.96,4.72,4.42,7.1,1.62,2.64.97,5.29-1.63,7.01-6.26,4.14-12.77,7.88-19.12,11.87-.64.4-.97.87-1.14,1.6-3.28,14.18-6.59,28.35-9.89,42.52-.39,1.69-.49,1.75-2.22,1.34-19.9-4.63-39.8-9.27-59.7-13.9-1.74-.4-1.8-.5-1.4-2.18.63-2.71,1.23-5.44,1.92-8.14.21-.82-.01-1.03-.78-1.21-5.17-1.17-10.33-2.39-15.5-3.59-1.47-.34-1.58-.52-1.24-2C5.88,50.53,11.59,25.99,17.3,1.45c.36-1.56.5-1.64,2.07-1.27,19.98,4.65,39.95,9.3,59.93,13.95,1.62.38,1.69.5,1.31,2.15-.63,2.71-1.23,5.44-1.92,8.14-.2.8-.03,1.04.76,1.22,5.17,1.16,10.33,2.38,15.5,3.59,1.49.35,1.59.52,1.26,1.99-.3,1.31-.61,2.63-.92,3.94.08.08.16.17.24.25Z"/>
        <path class="cls-5" d="m56.45,59.57c-4.87,2.13-7.75,6.15-10.17,10.63-.22.4-.5.77-.85,1.31-.63-1.51-1.93-1.83-3.28-2.13-2.49-.54-4.97-1.16-7.46-1.72-1.99-.45-3.3.37-3.78,2.37-.66,2.79-1.31,5.57-1.95,8.37-.44,1.92.4,3.26,2.31,3.72,2.82.67,5.65,1.33,8.48,1.97,1.87.42,3.17-.41,3.67-2.25.13-.47.02-1.2.91-.99,1.25.14,2.55-.17,3.76.4.12.06.23.13.32.22.33.47.81.69,1.36.81,3.12.73,6.24,1.46,9.37,2.18.19.04.38.09.57.09.65-.01,1.03-.29.62-.93-.46-.72-.09-.96.5-1.16,1.36-.44,2.69-.96,4.1-1.26.19-.02.37-.02.56,0,1.74.36,3.46.8,5.2,1.19.3.07.6.15.91.17.32.02.66,0,.78-.35.14-.43-.17-.65-.51-.77-.76-.28-1.58-.37-2.35-.62-.29-.09-.66-.19-.65-.55,0-.29.35-.38.6-.48.98-.37,1.98-.67,2.97-.98,3.32-1.02,6.64-2.09,9.96-3.12.5-.16,1.01-.44,1.56-.13-1.93,8.33-3.85,16.67-5.78,25-.23.98-.5,1.95-.67,2.94-.12.68-.43.82-1.02.59-.14-.06-.3-.07-.45-.11-19.07-4.44-38.14-8.89-57.22-13.3-.95-.22-1.21-.45-.97-1.49,5.54-23.63,11.04-47.26,16.52-70.91.23-.98.49-1.18,1.5-.95,19.1,4.48,38.21,8.94,57.33,13.35,1.01.23,1.04.56.95,1.51-.32,3.41-1.95,5.65-5.06,7.17-2.73,1.34-5.23,3.15-7.83,4.76-.74.21-1.45.06-2.17-.11-6.14-1.43-12.28-2.86-18.42-4.29-.49-.11-.98-.25-1.49-.23-.24,0-.47.07-.54.34-.06.27.12.43.33.54.45.23.95.32,1.44.44,5.61,1.31,11.23,2.6,16.84,3.94.57.14,1.37.04,1.53.92-6.65,4.12-13.3,8.25-19.95,12.37-.69.12-1.36-.02-2.03-.19-.56-.14-1.11-.3-1.68-.34-.35-.02-.74,0-.8.44-.05.36.28.49.55.65.53.32,1.44,0,1.61.95Z"/>
        <path class="cls-5" d="m20.37,53.79c-.9-.2-1.8-.41-2.71-.58-1.59-.3-2.96.53-3.34,2.1-.74,2.99-1.43,5.99-2.1,9-.35,1.58.51,2.92,2.07,3.36.89.25,1.79.45,2.69.67.28.44.17.9.07,1.35-.55,2.45-1.12,4.9-1.71,7.35-.11.45-.22.91-.66,1.18-4-.92-7.99-1.85-11.99-2.74-.56-.12-.7-.36-.52-.87.07-.18.09-.38.14-.56C7.8,50.45,13.3,26.87,18.76,3.27c.24-1.02.53-1.23,1.57-.99,19.06,4.47,38.12,8.91,57.2,13.32,1,.23,1.33.52,1,1.56-.43,1.36-.7,2.77-1.03,4.16-.74.39-1.45.05-2.14-.11-13.76-3.19-27.52-6.4-41.28-9.6-3.18-.74-3.32-.64-4.1,2.54-.21.88-.17,1.88-.97,2.54-.9-.2-1.8-.41-2.71-.58-1.59-.3-2.96.53-3.34,2.1-.74,2.99-1.43,5.99-2.1,9-.35,1.58.51,2.92,2.07,3.36.89.25,1.79.45,2.69.67.28,1.31,0,2.49-.83,3.55-.9-.2-1.8-.41-2.71-.58-1.59-.3-2.96.53-3.34,2.1-.74,2.99-1.43,5.99-2.1,9-.35,1.58.51,2.92,2.07,3.36.89.25,1.79.45,2.69.67.22,1.62-.12,3.1-1.04,4.45Z"/>
        <path class="cls-4" d="m51.96,64.79c.14-.42.54-.53.86-.73,11.99-7.47,23.98-14.92,35.95-22.41.79-.49,1.09-.37,1.54.38,1.34,2.26,2.72,4.5,4.17,6.7.49.74.37,1.01-.35,1.46-8.2,5.06-16.37,10.16-24.55,15.25-.58.36-1.15.68-.99,1.51.12.25.05.49-.14.62-1,.69-1.91,1.56-3.19,1.73-.72-.19-1.33-.01-1.95.39-1.61,1.04-3.25,2.04-4.88,3.05-.39.24-.75.56-1.26.48-.55-.35-.77-.95-1.1-1.46-1.18-1.86-2.33-3.73-3.49-5.6-.27-.43-.54-.85-.61-1.36Z"/>
        <path class="cls-9" d="m29.01,16.69c.32-1.36.63-2.71.96-4.07.39-1.63,1.12-2.09,2.78-1.7,14.65,3.41,29.31,6.82,43.96,10.23.26.06.53.12.79.17-.23,1.17-.13,2.75-.93,3.36-.77.58-2.17-.27-3.29-.53-12.74-2.95-25.48-5.92-38.22-8.89-1.7-.4-1.82-.36-2.19,1.38-.16.74-.42.96-1.16.72-.88-.28-1.8-.46-2.7-.68Z"/>
        <path class="cls-9" d="m83.94,75.56c-4.97,1.54-9.93,3.09-14.9,4.63,0,.08-.02.15-.03.23.94.22,1.88.45,2.82.65.63.14,1.16.42,1.02,1.14-.15.8-.78.83-1.46.67-1.99-.48-3.98-.95-5.97-1.43.27-.86,1.22-.62,1.8-1.12-1.55-.39-3.09-.7-4.6-1.1-.42-.11-1.06-.06-1.02-.8,5.82-3.64,11.65-7.28,17.47-10.92,2.55-1.6,5.1-3.2,7.89-4.95-1.05,4.49-2.04,8.75-3.03,13Z"/>
        <path class="cls-2" d="m65.17,69.07c1.35-.37,2.48-1.08,3.42-2.12.64.89,1.29.49,1.99.05,8.07-5.03,16.15-10.03,24.2-15.1.98-.62,1.41-.58,1.96.46.79,1.49.87,1.45-.55,2.33-11.75,7.31-23.5,14.62-35.25,21.93-.38.24-.73.6-1.23.58-.81-.63-1.26-1.51-1.61-2.44.13-.51.58-.69.96-.94,1.56-.99,3.12-1.98,4.71-2.92.74-.44,1.27-.97,1.4-1.84Z"/>
        <path class="cls-15" d="m31.75,74.6c.32-1.36.66-2.71.94-4.07.2-.95.67-1.3,1.64-1.06,2.74.67,5.49,1.3,8.25,1.92.9.2,1.13.66,1.02,1.58-.3,2.38-1.77,4.15-2.94,6.09-.8,1.34-.81,1.4.61,2.03.46.2.32.48.19.73-.32.59-.84.56-1.41.43-2.71-.64-5.41-1.3-8.14-1.88-1.1-.24-1.38-.78-1.09-1.83.36-1.3.63-2.63.93-3.95Z"/>
        <path class="cls-10" d="m109.86,45.09c-.23.76-.61,1.43-1.29,1.87-1,.66-2.04,1.26-3.03,1.93-.45.3-.64.15-.89-.24-2.4-3.88-4.8-7.76-7.23-11.62-.29-.47-.15-.65.25-.88,1-.59,1.96-1.24,2.96-1.82,1.46-.85,3.04-.54,3.96.89,1.69,2.59,3.29,5.24,4.92,7.87.39.62.42,1.31.35,2.02Z"/>
        <path class="cls-5" d="m58.18,74.78c.51.81,1.01,1.62,1.52,2.42-3.64.4-7.27.95-10.94,1.11-1.16-1.09-1.78-2.55-2.58-3.89-.13-.21-.17-.52.06-.75,1.91-2.96,3.81-5.92,5.72-8.88,1.73,2.77,3.46,5.54,5.19,8.32-.22.91.13,1.46,1.03,1.67Z"/>
        <path class="cls-9" d="m103.42,50.2c-.18.14-.33.26-.49.37-1.05.66-2.12,1.29-3.14,1.98-.48.32-.69.21-.97-.25-2.35-3.82-4.72-7.63-7.11-11.43-.3-.48-.36-.76.21-1.07,1.04-.59,2.06-1.23,3.06-1.89.48-.32.72-.2,1,.25,2.38,3.85,4.77,7.69,7.16,11.53.1.16.18.33.29.52Z"/>
        <path class="cls-9" d="m48.27,81.53c-1.28-.41-2.67-.23-3.94-.68,4.21-.57,8.44-1.04,12.67-1.37,2.47,0,4.78.83,7.15,1.36.34.08.66.23.84.57-1.56.52-3.13,1.05-4.74,1.59.45.42,1.02.82.61,1.5-.37.62-.97.47-1.55.34-3.27-.77-6.53-1.53-9.81-2.28-.6-.14-1.12-.31-1.22-1.02.41-.27.86-.3,1.33-.23,2.99.42,5.96.97,8.93,1.57.36.09.74.15.97.24-.21-.13-.6-.13-.96-.24-2.81-.56-5.64-1.02-8.43-1.71-.68-.17-1.29-.07-1.84.37Z"/>
        <path class="cls-9" d="m78.76,45.69c-.27-.42-.75-.37-1.14-.46-6.02-1.41-12.05-2.81-18.07-4.22-.3-.07-.61-.12-.9-.23-.49-.19-.75-.57-.62-1.09.13-.52.54-.73,1.06-.67.31.04.61.13.91.2,7.08,1.64,14.16,3.29,21.24,4.93-.83.52-1.65,1.03-2.48,1.55Z"/>
        <path class="cls-3" d="m19.93,55.67c.94.21,1.88.43,2.83.62.55.11.79.31.64.93-.75,3.12-1.48,6.25-2.19,9.38-.14.63-.44.7-.99.55-.93-.26-1.88-.47-2.81-.7-.27-.44-.15-.9-.05-1.35.62-2.75,1.26-5.5,1.92-8.24.11-.45.2-.91.64-1.19Z"/>
        <path class="cls-3" d="m28.57,18.57c.94.21,1.88.43,2.83.62.55.11.79.31.64.93-.75,3.12-1.48,6.25-2.19,9.38-.14.63-.44.7-.99.55-.93-.26-1.88-.47-2.81-.7-.27-.44-.15-.9-.05-1.35.62-2.75,1.26-5.5,1.92-8.24.11-.45.2-.91.64-1.19Z"/>
        <path class="cls-3" d="m24.35,36.67c.94.21,1.88.43,2.83.62.55.11.79.31.64.93-.75,3.12-1.48,6.25-2.19,9.38-.14.63-.44.7-.99.55-.93-.26-1.88-.47-2.81-.7-.27-.44-.15-.9-.05-1.35.62-2.75,1.26-5.5,1.92-8.24.11-.45.2-.91.64-1.19Z"/>
        <path class="cls-15" d="m19.93,55.67c-.84,3.6-1.67,7.19-2.51,10.79-.79-.17-1.58-.35-2.37-.51-.85-.17-1.17-.64-.97-1.5.67-2.81,1.32-5.63,1.97-8.45.2-.86.7-1.14,1.53-.91.78.21,1.57.39,2.36.59Z"/>
        <path class="cls-15" d="m24.35,36.67c-.84,3.6-1.67,7.19-2.51,10.79-.79-.17-1.58-.35-2.37-.51-.84-.17-1.17-.64-.97-1.5.67-2.81,1.32-5.63,1.97-8.45.2-.86.7-1.14,1.53-.91.78.21,1.57.39,2.36.59Z"/>
        <path class="cls-15" d="m28.57,18.57c-.84,3.6-1.67,7.19-2.51,10.79-.79-.17-1.58-.35-2.37-.51-.84-.17-1.17-.64-.97-1.5.67-2.81,1.32-5.63,1.97-8.45.2-.86.7-1.14,1.53-.91.78.21,1.57.39,2.36.59Z"/>
        <path class="cls-9" d="m14.68,78.22c.77-3.29,1.53-6.59,2.3-9.88,1.16.28,2.73.21,3.36.94.61.71-.28,2.15-.52,3.27-.41,1.93-.91,3.83-1.31,5.76-.14.65-.39.81-1.02.62-.92-.28-1.87-.47-2.81-.7Z"/>
        <path class="cls-9" d="m20.37,53.79c.35-1.48.69-2.97,1.04-4.45,1.16.28,2.76.2,3.35.93.62.77-.38,2.21-.51,3.38-.1.89-.48,1.07-1.3.79-.84-.28-1.72-.44-2.58-.65Z"/>
        <path class="cls-13" d="m46.24,73.68c.06,1.06.89,1.72,1.33,2.58.36.71.79,1.37,1.19,2.06-1.87.4-3.77.51-5.88.74,1.18-1.89,2.27-3.63,3.36-5.38Z"/>
        <path class="cls-6" d="m64.99,81.4c-2.66-.64-5.33-1.28-7.99-1.92.71-.1,1.42-.26,2.13-.3.89-.05,1.72-.25,2.47-.74.23.46.71.41,1.1.5,1.81.44,3.63.85,5.68,1.33-1.09.63-2.14.62-2.96,1.18-.15-.02-.29-.03-.44-.05Z"/>
        <path class="cls-9" d="m24.79,34.79c.28-1.18.55-2.36.83-3.55.49.1.98.19,1.47.31q2.17.5,1.67,2.65-.34,1.47-1.83,1.12c-.71-.17-1.42-.35-2.13-.53Z"/>
        <path class="cls-9" d="m56.45,59.57c-.42-.5-1.05-.41-1.59-.56-.66-.18-1.23-.45-1.04-1.23.17-.71.76-.77,1.4-.61,1.19.3,2.39.59,3.59.89-.79.5-1.57,1.01-2.36,1.51Z"/>
        <path class="cls-12" d="m34.15,56.08c.33-1.43.65-2.87,1-4.29.44-1.8,1.78-2.67,3.55-2.27,2.87.64,5.73,1.31,8.59,2,1.78.43,2.71,1.89,2.32,3.67-.64,2.91-1.32,5.81-2.03,8.7-.4,1.65-1.77,2.5-3.43,2.14-2.98-.66-5.96-1.35-8.93-2.08-1.63-.4-2.45-1.79-2.09-3.46.31-1.48.68-2.94,1.02-4.41Z"/>
        <path class="cls-12" d="m52.81,41.47c-.32,1.39-.63,2.79-.98,4.18-.44,1.8-1.77,2.67-3.54,2.27-2.94-.66-5.88-1.34-8.81-2.05-1.65-.4-2.51-1.77-2.15-3.42.66-2.98,1.35-5.96,2.08-8.92.4-1.64,1.78-2.48,3.44-2.11,2.94.65,5.88,1.34,8.81,2.05,1.72.42,2.56,1.77,2.19,3.49-.32,1.51-.69,3.01-1.04,4.52Z"/>
        <path class="cls-9" d="m62.95,46.57c-1.65-.39-3.3-.78-4.96-1.15-.63-.14-1.16-.43-1.02-1.14.15-.79.78-.83,1.45-.67,3.38.79,6.76,1.58,10.15,2.36.63.14,1.16.43,1.02,1.14-.15.79-.78.83-1.45.67-1.73-.41-3.46-.81-5.18-1.21Z"/>
        <path class="cls-12" d="m58.18,74.78c-.5.13-.98.18-1.31-.35-.33-.53-.07-.93.27-1.32,2.11-1.29,4.22-2.56,6.31-3.87.57-.35,1.09-.58,1.71-.17.39.79.05,1.28-.64,1.7-2.13,1.32-4.23,2.67-6.35,4.01Z"/>
        <path class="cls-7" d="m48.27,81.53c.18-.92.79-1,1.57-.81,2.95.7,5.9,1.38,8.85,2.07.07.07.08.12.04.16-.04.04-.07.06-.09.05-3.45-.49-6.91-.98-10.36-1.47,0,0,0,0,0,0Z"/>
        <path class="cls-8" d="m58.64,83c.02-.07.04-.14.05-.22.29.07.59.14.88.21-.01.07-.03.14-.04.22l-.89-.21Z"/>
        <path class="cls-15" d="m47.16,57.48c-.43,1.85-.88,3.69-1.27,5.54-.21.99-.66,1.38-1.71,1.13-2.7-.67-5.42-1.29-8.14-1.9-.95-.21-1.29-.68-1.06-1.65.67-2.74,1.3-5.5,1.92-8.25.2-.91.68-1.21,1.59-.99,2.63.63,5.27,1.23,7.91,1.85,1.35.32,1.58.7,1.27,2.05-.11.49-.23.98-.35,1.47-1.01-.49-1.87-.22-2.74.41-.97.7-2.02,1.28-3.04,1.91-1.47.91-1.53.9-2.43-.52-.17-.26-.31-.53-.51-.77-.29-.35-.66-.62-1.09-.3-.42.32-.16.7.06,1.02.42.6.79,1.24,1.19,1.85.76,1.19,1.05,1.27,2.23.54,1.65-1.01,3.28-2.05,4.93-3.05.37-.22.71-.64,1.24-.34Z"/>
        <path class="cls-12" d="m47.16,57.48c-2.1,1.28-4.22,2.54-6.3,3.87-.93.59-1.54.44-2.09-.48-.49-.83-1.06-1.61-1.59-2.41-.3-.46-.42-.95.1-1.33.53-.39,1.01-.22,1.41.26.07.09.13.19.2.29q1.34,1.89,3.35.64c.98-.61,2-1.17,2.94-1.85.86-.63,1.54-.56,2.16.28-.06.25-.12.5-.18.75Z"/>
        <path class="cls-15" d="m51.43,39.16c-.45,1.96-.93,3.91-1.35,5.88-.21.97-.71,1.26-1.67,1.03-2.7-.66-5.41-1.29-8.13-1.89-.94-.21-1.32-.65-1.08-1.63.67-2.74,1.31-5.49,1.92-8.25.22-.98.74-1.23,1.68-1,2.59.63,5.19,1.22,7.79,1.82,1.56.36,1.66.53,1.31,2.05-.1.41-.2.83-.3,1.24-1-.58-1.83-.23-2.7.38-1.07.76-2.22,1.41-3.34,2.1-1.16.7-1.3.67-2.03-.44-.25-.39-.47-.8-.81-1.12-.27-.25-.58-.43-.94-.2-.38.25-.29.64-.1.93.61.94,1.23,1.87,1.92,2.75.52.66,1.11.3,1.62-.1,1.62-1.27,3.44-2.22,5.16-3.33.3-.19.62-.52,1.04-.22Z"/>
        <path class="cls-12" d="m51.43,39.16c-2.08,1.12-4.02,2.44-5.99,3.73-1.36.9-1.6.87-2.49-.45-.52-.77-1.06-1.52-1.56-2.31-.29-.46-.35-.96.18-1.33.51-.35.97-.19,1.32.27.38.49.76.99,1.04,1.54.35.68.68.62,1.25.24,1.41-.95,2.9-1.79,4.3-2.75.87-.6,1.53-.6,2.12.31-.06.25-.12.5-.17.75Z"/>
      </g>
      <path class="cls-3" d="m244.76,38.24s7.77,2.64,5.67,9.61c-1.94,6.43-10.8,4.35-10.8,4.35.41.87.71,1.79.87,2.74.37,2.1.16,4.89-2.85,6.47-5.5,2.89-9.85-1.3-10.14-1.57.1.26,2.16,5.38-4.5,5.51-6.83.13-6.96-8.82-6.96-8.82,0,0-3.55,2.77-5.92-.13-2.7-3.29.24-7.87.51-8.26l-12.95-11.31-.62-.54c-1.46-1.45-2.67-3.14-3.58-5-1.37-2.86-1.98-6.56.95-10.01,5.92-6.97,9.61-3.95,9.61-3.95,0,0-.4-8.42,8.03-9.74,8.42-1.32,11.91,4.72,11.91,4.72,0,0,4.48-5.92,10.93-3.69,6.45,2.23,5.4,10.8,5.4,10.8,0,0,10.01-.13,12.63,8.03,2.63,8.16-8.2,10.8-8.2,10.8Z"/>
      <path class="cls-13" d="m222.88,65.86c-.82.02-1.64-.12-2.41-.42-.77-.3-1.47-.75-2.06-1.32-2.03-2.03-2.64-5.15-2.8-6.69-1.55.88-4.06,1.48-5.86-.71-2.57-3.14-.51-7.25.25-8.52l-13.23-11.57c-1.52-1.5-2.78-3.25-3.71-5.17-1.87-3.9-1.52-7.55,1.01-10.54,4.64-5.47,8.05-5.07,9.52-4.47.17-2.26,1.31-8.28,8.43-9.4,7.13-1.12,10.81,2.88,11.96,4.41,1.34-1.44,5.51-5.25,11.05-3.34,5.78,2.03,5.88,8.8,5.78,10.79,2.19.12,10.23,1.07,12.57,8.36.36.97.5,2.01.43,3.04-.07,1.03-.37,2.04-.86,2.95-1.59,2.85-4.93,4.38-6.78,5.07,2.21,1.15,6.39,4.14,4.73,9.66-1.66,5.53-8.03,5.2-10.45,4.87.24.66.43,1.34.55,2.03.4,2.25.18,5.28-3.11,7.02-1.49.8-3.17,1.15-4.86,1.03-1.68-.12-3.3-.72-4.66-1.72.15.96-.05,1.94-.57,2.77-.83,1.24-2.43,1.88-4.77,1.93l-.14-.06Zm-6.82-9.83c.07-.02.15-.02.22,0,.08.04.16.1.21.18.05.08.08.17.08.26,0,.05.1,4.52,2.56,6.88.52.49,1.13.87,1.8,1.12.67.25,1.38.36,2.09.32,2.03,0,3.32-.54,3.95-1.48.26-.52.4-1.08.41-1.66.01-.58-.09-1.15-.32-1.68-.04-.11-.04-.23,0-.34.03-.11.1-.21.2-.27.1-.07.21-.09.33-.08.12.01.23.06.31.14.17.17,4.31,4.22,9.53,1.48,2.21-1.17,3.04-3.16,2.59-5.93-.16-.9-.44-1.78-.82-2.61-.05-.08-.08-.18-.08-.27s.03-.19.08-.27c.06-.07.14-.13.23-.16s.19-.04.28-.02c.34.08,8.4,1.9,10.2-3.99,1.93-6.44-5.07-8.89-5.35-8.99-.1-.04-.19-.1-.25-.19-.06-.09-.09-.2-.09-.3,0-.11.05-.21.12-.3.07-.08.16-.14.27-.17.06,0,5.44-1.38,7.45-4.97.42-.79.68-1.66.73-2.56.06-.9-.07-1.79-.38-2.63-2.47-7.68-11.99-7.65-12.17-7.67-.14-.02-.28-.08-.39-.17-.05-.05-.08-.12-.1-.18-.02-.07-.03-.14-.02-.21,0-.08.92-8.18-5.07-10.26-5.99-2.08-10.32,3.47-10.36,3.52-.05.07-.12.12-.19.15-.08.03-.16.05-.24.05-.08,0-.16-.03-.24-.07-.07-.04-.13-.1-.17-.18-.13-.23-3.35-5.73-11.32-4.5-7.97,1.23-7.61,8.9-7.6,9.23,0,.1-.02.19-.07.28-.05.08-.12.15-.21.2-.09.04-.19.06-.28.05-.1-.01-.19-.05-.26-.11-.14-.11-3.42-2.58-8.9,3.88-2.3,2.71-2.6,5.89-.88,9.46.88,1.8,2.05,3.44,3.47,4.86l13.55,11.83c.05.05.1.11.13.17s.04.14.04.21c0,.11-.04.22-.1.31-.33.5-2.97,4.68-.54,7.65,2.03,2.49,5.07.16,5.22.06.11-.07.25-.09.38-.06Z"/>
      <path class="cls-13" d="m199.51,31.89l-1.8,4.91-.62-.54c-1.46-1.45-2.67-3.14-3.58-5,.54-2.15,2.3-5.7,5.32-5.67,5.47.06,4.38,1.59,4.38,1.59l-3.71,4.7Z"/>
      <path class="cls-18" d="m231.09,70.09s-15.92,27.1-26.16,24.51c-10.24-2.59-2.23-25.2-2.23-25.2,0,0,.26-.6.61-1.54,1.01-2.64,2.56-7.91,1.01-10.56-.5-.96-1.36-1.69-2.38-2.03-1.78-.58-3.81.05-5.52-1.1-3.48-2.33-3.35-3.71-2.83-8.11.34-2.93-2.71-5.07-2.16-7.41.68-3.31,11.39-11.42,11.39-11.42,0,0-1.01,5.77,1.9,8.4,2.91,2.64,5.07,2.79,5.07,2.79,0,0,2.35-3.04,5.87-2.74,4.48.38,5.44,2.83,5.5,5.68.11,3.62-1.72,7.42-4.31,7.59-5.07.33-6.18-.8-6.18-.8,0,0-3.23,6.67,0,8.31.85.49,1.82.72,2.8.67s1.92-.39,2.71-.97c0,0,1.17,9.22,5.8,8.98l3.69-.18,5.41,5.13Z"/>
      <path class="cls-13" d="m206.37,95.28c-.52,0-1.04-.06-1.54-.19-.91-.22-1.76-.63-2.49-1.21-.73-.58-1.33-1.31-1.76-2.15-3.77-7.03,1.37-21.88,1.59-22.51,0,0,.27-.63.61-1.54.81-2.24,2.52-7.64,1.01-10.14-.44-.86-1.19-1.52-2.11-1.83-.69-.19-1.4-.28-2.11-.28-1.24.06-2.47-.25-3.54-.88-3.77-2.52-3.58-4.19-3.04-8.63.02-1.3-.36-2.58-1.11-3.65-.67-1.21-1.35-2.45-1.01-3.82.76-3.3,10.52-10.83,11.64-11.67.08-.06.18-.09.28-.09s.2.03.28.09c.09.05.16.13.2.22.04.09.05.19.04.29,0,.06-.91,5.54,1.74,7.95,1.25,1.25,2.81,2.15,4.52,2.62.74-.88,1.68-1.58,2.73-2.04,1.05-.47,2.2-.69,3.35-.65,5.22.44,5.91,3.73,5.97,6.16.11,3.76-1.78,7.92-4.78,8.11-3.48.22-5.19-.22-5.98-.59-.86,2.03-2.09,6.08,0,7.1.76.44,1.64.66,2.52.62.88-.04,1.73-.34,2.45-.85.07-.06.15-.1.24-.11s.18,0,.26.02c.08.03.16.09.21.16.06.07.09.16.1.25,0,.09,1.16,8.7,5.27,8.55l3.69-.18c.07,0,.14,0,.2.02.06.02.12.06.17.11l5.43,5.17c.09.08.14.18.16.3.01.11,0,.23-.07.33-.6,1.08-14.74,24.96-25.14,24.96Zm-4.2-66.96c-3.39,2.67-9.79,8.11-10.31,10.36-.23,1.01.3,1.97.92,3.09.87,1.25,1.3,2.75,1.24,4.27-.51,4.32-.65,5.48,2.62,7.66.93.52,1.98.77,3.04.72.8,0,1.6.11,2.37.32,1.15.38,2.1,1.19,2.67,2.25,1.64,2.8.11,8.11-.95,11-.37,1.01-.63,1.6-.63,1.6,0,0-5.2,15.02-1.64,21.65.36.71.86,1.33,1.48,1.82.62.49,1.34.84,2.12,1.03,9.12,2.3,23.5-20.81,25.34-23.94l-4.98-4.73-3.48.17c-4.2.23-5.79-6.34-6.2-8.65-.83.43-1.76.65-2.69.63-.94-.02-1.85-.27-2.67-.73-3.63-1.85-.36-8.69-.22-8.98.03-.07.09-.14.15-.19.06-.05.14-.08.22-.1.08-.01.17,0,.24.02.08.03.15.08.2.14,0,0,1.13.94,5.78.64,2.11-.14,3.94-3.52,3.83-7.1-.06-2.47-.72-4.83-5.07-5.18-3.19-.28-5.4,2.51-5.44,2.53-.05.07-.11.12-.19.16-.08.04-.16.05-.24.04-.09,0-2.39-.2-5.37-2.92-2.19-2.03-2.27-5.68-2.14-7.62Z"/>
      <path class="cls-13" d="m237.65,61.41c-5.5,2.89-9.85-1.3-10.14-1.57.1.26,2.16,5.38-4.5,5.51-6.83.13-6.96-8.82-6.96-8.82,0,0-3.55,2.77-5.92-.13-2.7-3.29.24-7.87.51-8.26-.32,1.05-.38,2.16-.18,3.24.2,1.08.65,2.1,1.32,2.96.57.7,1.37,1.18,2.26,1.35.89.17,1.81.01,2.59-.44,0,0,2.78,7.65,6.23,7.65s4.26-3.82,4.26-3.82c0,0,7.76,2.03,9.48,1.34,1.09-.47,2.02-1.24,2.71-2.2.69-.97,1.1-2.1,1.19-3.28.38,2.1.17,4.89-2.84,6.47Z"/>
      <path class="cls-13" d="m199.66,47.96c-.76.03-1.51-.14-2.18-.5-.67-.36-1.24-.89-1.64-1.53-.04-.06-.07-.13-.08-.2-.01-.07,0-.14,0-.21.02-.07.05-.13.09-.19.04-.06.1-.1.16-.14.06-.03.13-.05.2-.06.07,0,.14,0,.21.03.07.03.13.06.18.12.05.05.09.11.11.18.31.49.74.89,1.26,1.16.51.27,1.09.39,1.67.36,1.67,0,2.75-2.88,3.04-3.99.03-.13.12-.24.23-.31.11-.07.25-.09.39-.06.06.02.12.05.18.09.05.04.1.09.13.15.03.06.06.12.07.19,0,.07,0,.13-.01.2.03.15-1.18,4.72-4.03,4.72Z"/>
      <path class="cls-13" d="m212.42,42.13s-.1,0-.15,0c-.13-.04-.24-.13-.3-.25-.06-.12-.08-.26-.04-.38,0-.15,1.08-3.54,4.12-3.46.67-.05,1.33.13,1.89.51.55.38.96.93,1.16,1.57.01.07.01.13,0,.2-.01.07-.04.13-.07.18-.04.06-.08.1-.14.14-.06.04-.12.06-.18.08-.06.01-.13.02-.2,0-.06-.01-.13-.04-.18-.07-.05-.04-.1-.08-.14-.14-.04-.05-.06-.12-.08-.18,0-.12-.34-1.23-2.03-1.28-2.27-.07-3.11,2.71-3.12,2.74-.04.11-.11.2-.21.26-.1.06-.22.09-.33.07Z"/>
      <path class="cls-13" d="m215.99,43.58c-.09,0-.18-.02-.25-.06-.47-.29-.88-.66-1.21-1.11-.57-.76.2-1.34.61-1.65.31-.2.58-.46.77-.77-.08-.28-.64-.52-1.08-.61-.06-.01-.13-.04-.18-.08-.06-.04-.1-.09-.14-.14-.03-.06-.06-.12-.07-.18-.01-.07-.01-.13,0-.2.01-.07.04-.13.08-.18.04-.06.08-.1.14-.14.06-.04.12-.06.18-.07.07-.01.13-.01.2,0,.24.05,1.42.32,1.8,1.06.08.16.12.33.12.51s-.04.35-.12.51c-.26.46-.63.86-1.08,1.15-.13.09-.25.19-.36.29.23.3.51.56.84.76.12.07.2.18.24.3.04.13.02.27-.04.38-.05.07-.11.13-.19.17-.08.04-.16.06-.25.05Z"/>
      <path class="cls-13" d="m200.56,36.36c.69,0,1.25-.56,1.25-1.25s-.56-1.25-1.25-1.25-1.25.56-1.25,1.25.56,1.25,1.25,1.25Z"/>
      <path class="cls-2" d="m204.08,67.03c.96-2.64,2.09-7.55.67-9.94-.53-1.01-1.41-1.81-2.46-2.25,0,0,3.15,1.22,4.06,1.47,1.13.31,4.06.83,4.06.83,0,0-1.39.38-3.46,3.1-1.04,1.37-2.86,6.78-2.86,6.78Z"/>
      <path class="cls-16" d="m122.35,83.77s-13.84-29.4-27.93-36.31c-14.09-6.91-21.55-8.65-27.37,0-5.82,8.65,18.76,10.77,18.76,20.61s-4.44,25.06-4.44,25.06l18.36,19.12,22.62-28.48Z"/>
      <path class="cls-13" d="m99.73,112.74c-.14,0-.27-.06-.37-.16l-18.32-19.11c-.06-.07-.1-.15-.13-.23-.02-.09-.02-.18,0-.26,0-.15,4.38-15.21,4.38-24.91,0-4.4-5.39-7.22-10.6-9.94-4.22-2.21-8.21-4.3-8.94-7.18-.14-.66-.13-1.33.02-1.99.15-.65.44-1.27.85-1.79,6.02-8.9,13.85-7.1,28.05-.17,14.2,6.92,27.6,35.34,28.16,36.55.04.09.06.18.05.28-.01.09-.05.18-.11.26l-22.61,28.47c-.05.06-.1.1-.17.13-.06.03-.13.05-.21.06h-.07Zm-17.79-19.77l17.76,18.49,22.05-27.77c-1.46-3.04-14.52-29.4-27.57-35.79-13.94-6.85-21.12-8.5-26.75-.17-.33.41-.57.89-.69,1.4-.13.51-.14,1.04-.04,1.56.62,2.44,4.41,4.43,8.44,6.53,5.22,2.73,11.15,5.82,11.15,10.84,0,9.06-3.75,22.78-4.35,24.91Z"/>
      <path class="cls-2" d="m122.35,83.77l-4.64-7.58s.81,1.91.48,2.1c-.33.19-1.38.36-1.79.71-.94.79.86,3.57,0,4.44-.57.56-1.6.17-2.22.66-.62.49-.48,3.13-1.17,3.67-.49.39-1.39-1.72-2.98-.45-1.15.91.16,3.92-.65,4.45-.81.53-3.36-.33-4.67.35-1.74.91.63,3.26-.84,4.06-1.01.54-4.48-1.26-5.45-.6-1.26.83-1.64,3.83-2.03,4.26-.76.83-4.5-2.5-5.16-1.8-1.08,1.14-.7,3.94-.7,3.94l7.2,7.31,24.64-25.52Z"/>
      <path class="cls-1" d="m351.54,194.81l-17.66,11.28s14.52,16.23,17.66,24.02v-35.3Z"/>
      <path class="cls-13" d="m351.54,228.91c-3.53-7.38-14.6-20.08-16.89-22.67l16.89-10.8v-1.23l-17.96,11.47c-.06.04-.11.09-.15.15-.04.06-.06.13-.07.2-.01.07,0,.15.02.22.02.07.06.13.11.19.18.22,15.91,17.79,17.94,24.91.04.14.08.31.12.47v-2.91Z"/>
      <path class="cls-17" d="m351.54,217.18l-3,5.12s1.63,3.27,3,6.77v-11.89Z"/>
      <path class="cls-11" d="m308.68,246.71c-2.96-39.15-32.24-90.23-32.24-90.23l-79,10.06c-3.25.26-160.56,17.82-172.2,67.3-6.49,27.73,3.43,48.65,15.09,63.34h150.36c-.9-.43-1.4-.66-1.4-.66l84.52-.29s38.49-1.77,34.88-49.51Z"/>
      <path class="cls-13" d="m309.18,246.7c-2.9-38.85-32-89.95-32.3-90.47-.05-.09-.13-.16-.22-.2-.09-.04-.19-.06-.29-.05l-78.98,10.05c-27.98,3.27-55.71,8.35-83.03,15.21-54.57,14.05-84.72,31.72-89.59,52.5-5.37,22.94-.46,43.83,14.98,63.45h1.3c-15.63-19.55-20.65-40.37-15.3-63.27,11.57-49.16,170.13-66.78,171.75-66.91l78.66-10.02c2.38,4.27,29.21,52.72,32.02,89.79,1.2,15.71-2.08,28.06-9.71,36.7-10,11.3-24.23,12.24-24.68,12.24l-84.51.29c-.11,0-.23.04-.31.11-.09.07-.15.17-.17.28s0,.23.04.33c.05.1.13.19.23.24.02.01.17.08.44.21h2.31c-.08-.04-.17-.08-.25-.12l82.29-.28c.1,0,14.94-.82,25.34-12.57,7.83-8.9,11.19-21.5,9.98-37.51Z"/>
      <path class="cls-13" d="m189.27,297.03c-.07.01-.15.01-.22,0-.61-.31-60.67-30.91-68.72-35.48-8.64-4.93-9.73-7.89-8.71-11.06.02-.07.05-.13.1-.18.04-.05.1-.1.16-.13s.13-.05.2-.06c.07,0,.14,0,.21.02.07.02.13.05.18.1.05.04.1.1.13.16s.05.13.06.2c0,.07,0,.14-.02.21-.71,2.2-.67,4.77,8.25,9.86,8.02,4.57,68.07,35.16,68.68,35.48.07.02.13.04.19.08.05.04.1.09.14.15.04.06.06.12.07.19.01.07,0,.14,0,.2-.02.07-.04.13-.08.19-.04.06-.09.1-.15.14-.06.03-.12.06-.19.07-.07,0-.14,0-.2,0l-.05-.13Z"/>
      <path class="cls-13" d="m199.93,221.01l-87.4,33.66-.49-4.63,87.89-29.02Z"/>
      <path class="cls-13" d="m155.98,280.01c-.12,0-.24-.04-.33-.12-.09-.08-.15-.18-.17-.3-.01-.07-.01-.13,0-.2.01-.06.04-.13.08-.18.04-.06.09-.1.14-.14.05-.04.12-.06.19-.07.88-.15,87.95-15.9,105.81-33.27,17.86-17.38,3.34-57.27,3.18-57.68-.04-.12-.03-.26.02-.38s.16-.21.28-.25c.12-.04.26-.04.38.01.12.05.21.15.26.28.15.41,14.78,41.04-3.43,58.75-18.21,17.71-102.74,32.9-106.34,33.55h-.09Z"/>
      <path class="cls-13" d="m270.93,224.54h-.06c-.67-.08-16.41-2.03-24.33-10.14-7.92-8.11-5.58-24.51-5.48-25.21.02-.13.09-.25.2-.34.11-.08.25-.11.38-.09.13.02.25.09.34.2.08.11.11.24.09.38,0,.17-2.41,16.56,5.19,24.33,7.6,7.77,23.56,9.78,23.71,9.8.06,0,.13.02.19.05s.11.07.16.12c.04.05.08.11.1.17.02.06.03.13.03.2,0,.07-.02.13-.05.19-.03.06-.07.11-.12.16-.05.04-.11.08-.17.1-.06.02-.13.03-.2.03v.05Z"/>
      <path class="cls-14" d="m351.54,224.29v-82.98l-1.24-1.19-8.61-8.3c-2.66-2.58-5.45-5.28-8.35-8.11l-.73-.72-1.28-1.24c-3.39-3.29-6.7-6.38-9.94-9.28-21.44-19.16-39.75-29.85-54.18-35.74l-.78-.31c-3.42-1.38-6.91-2.59-10.46-3.61-2.74-.82-5.25-1.39-7.56-1.84-11.24-2.18-17.33-.88-17.33-.88-4.47,6.07-9.45,11.75-14.88,16.97-4.54,4.14-9.18,7.16-12.42,6.28h-.09c-6.2-1.82-4.36-12.78-2.83-18.81.56-2.21,1.07-3.75,1.15-3.95-.24.23-2.53,2.84-5.31,6.17-1.37,1.65-2.87,3.48-4.27,5.29-.59.75-1.36,1.92-2.37,3.39l-.64.94c-.82,1.25-1.75,2.66-2.77,4.17-5.95,8.76-14.84,21.16-23.32,25.99-.99.57-2.03,1.05-3.11,1.42-.8.27-1.63.46-2.47.56-2.62.27-5.55-1.01-8.7-3.27-8.76-6.32-18.74-20.26-24.54-29.03-1.36-2.07-2.48-3.84-3.32-5.17-.99-1.59-1.55-2.53-1.55-2.53-.23,1.53-.64,3.04-1.2,4.48-1.65,4.24-3.93,8.19-6.77,11.74-3.5,4.4-7.97,7.92-13.06,10.3-1.4.68-2.84,1.24-4.33,1.68l-1.68-1.67-5.31-5.28-.26.22c-2.61,2.18-4.8,3.76-6.08,7.1.42,1.03,2.81,5.23,3.62,6.82,2.56,4.97,5.52,9.72,8.87,14.19.71.95,1.45,1.91,2.22,2.87,1.1,1.41,2.26,2.79,3.5,4.14,8.66,9.7,20.56,19.13,35.48,22.76l2.03.47c2.77.58,5.57.98,8.38,1.2l.88.07c16.46.97,32.68-4.35,45.35-14.89l1.98,22.3c.39.59.83,1.14,1.33,1.64,1.04,1.15,2.16,2.22,3.36,3.2,3.91,3.14,8.1,5.9,12.53,8.25,2.93,1.56,6.33,3.27,10.27,5.07.44.2.88.39,1.34.57,4.35,1.65,8.9,2.7,13.54,3.12,3.43.35,6.87.51,10.32.49,8.35-.12,16.67-.86,24.91-2.23,1.49-.23,2.93-.48,4.3-.73,8.39-1.52,14.11-3.04,14.11-3.04l4.95,9.97s5.45-3.15,4.67-6.35c-1.05-2.64-2.3-5.19-3.74-7.64-4.16-7.66-10.31-18.14-10.58-18.6.4.5,7.79,9.83,17.34,21.67l1.58,1.96c4.33,5.36,9.03,11.14,13.69,16.79l4.05,4.91c8.8,10.6,16.97,20.11,21.47,24.56.79.79,1.48,1.43,2.03,1.88.38.39.85.66,1.37.8h.32c1.07-.05,2.11-.39,3-.98.89-.59,1.61-1.42,2.07-2.39l-1.57-3.04c.53-.87,1.08-1.74,1.64-2.6Z"/>
      <path class="cls-13" d="m351.54,229l-1.08-2.12c.35-.57.72-1.13,1.08-1.69v-1.85c-.72,1.09-1.43,2.19-2.12,3.31-.04.07-.06.16-.06.24s.02.17.06.24l1.46,2.84c-.45.83-1.1,1.53-1.9,2.03-.8.5-1.72.78-2.66.82h-.27c-.38-.16-.73-.39-1.01-.69-.52-.42-1.2-1.04-2.03-1.86-4.01-3.96-11.22-12.22-21.44-24.52l-4.06-4.91c-4.34-5.28-8.95-10.93-13.68-16.79l-1.58-1.96c-8.03-9.94-14.67-18.3-17.15-21.43l-.18-.23c-.05-.06-.11-.11-.18-.14-.07-.03-.14-.05-.22-.05-.1.01-.2.05-.27.12-.11.07-.18.18-.21.31s0,.26.06.37c.25.45,6.4,10.89,10.57,18.59,2.93,5.37,3.57,7.01,3.69,7.51.52,2.09-2.36,4.48-3.96,5.49l-4.67-9.54c-.05-.11-.14-.19-.24-.24-.11-.05-.23-.06-.34-.03-.06,0-5.8,1.55-14.07,3.04-1.37.24-2.8.5-4.29.73-8.21,1.37-16.51,2.12-24.83,2.23-3.43.01-6.86-.15-10.27-.49-4.59-.42-9.09-1.46-13.4-3.09-.45-.17-.88-.35-1.31-.56-3.65-1.64-7.1-3.34-10.24-5.07-4.4-2.34-8.57-5.08-12.45-8.2-1.17-.93-2.27-1.95-3.3-3.04-.44-.46-.84-.95-1.19-1.47l-1.97-22.14c0-.09-.04-.18-.1-.26-.06-.08-.13-.13-.22-.17-.09-.03-.19-.04-.28-.02-.09.02-.18.06-.25.13-12.62,10.41-28.71,15.67-45.04,14.72l-.87-.07c-2.8-.22-5.58-.62-8.32-1.2l-1.98-.46c-12.75-3.1-24.6-10.71-35.24-22.61-1.22-1.36-2.39-2.75-3.48-4.11-.77-.96-1.5-1.91-2.21-2.86-3.33-4.44-6.28-9.15-8.83-14.08-.31-.66-.86-1.62-1.44-2.69-.82-1.5-1.74-3.17-2.08-3.91,1.07-2.78,2.84-4.24,5.07-6.08l.66-.55,6.67,6.63c.06.06.14.11.23.13.08.02.18.02.26,0,1.52-.45,2.99-1.02,4.41-1.71,5.16-2.41,9.69-5.98,13.24-10.44,2.9-3.61,5.23-7.65,6.91-11.97.41-1.06.75-2.15,1.01-3.25l.86,1.4c.84,1.33,1.97,3.15,3.33,5.18,6.56,9.89,16.16,23.07,24.66,29.16,3.48,2.5,6.52,3.64,9.04,3.37.88-.1,1.75-.29,2.59-.58,1.11-.38,2.19-.87,3.2-1.46,8.35-4.76,16.92-16.48,23.44-26.15,1.01-1.52,1.96-2.93,2.77-4.17l.64-.95s0-.04,0-.06c.8-1.19,1.69-2.5,2.32-3.3,1.36-1.77,2.79-3.52,4.25-5.27,1.46-1.75,2.74-3.29,3.75-4.4-.14.51-.3,1.08-.47,1.72-1.63,6.43-3.38,17.45,3.16,19.37h.12c3,.81,7.34-1.32,12.89-6.39,5.44-5.19,10.42-10.83,14.89-16.87,1.1-.18,7.04-1,16.94.92,2.45.47,4.94,1.07,7.52,1.82h.05c3.52,1.01,6.98,2.21,10.38,3.58l.77.31c17.27,7.06,35.45,19.05,54.03,35.64,3.25,2.91,6.59,6.02,9.92,9.26.43.43.85.84,1.28,1.24.24.24.49.5.73.73l1.94,1.88c2.21,2.13,4.35,4.21,6.42,6.23l8.61,8.3,1.58,1.51v-1.41c-.29-.28-.57-.55-.86-.83-2.73-2.62-5.56-5.38-8.61-8.3l-6.42-6.22-1.95-1.89-.73-.73-1.27-1.23c-3.34-3.21-6.68-6.38-9.96-9.3-18.66-16.67-36.93-28.72-54.32-35.82-.26-.12-.53-.22-.78-.32-3.44-1.38-6.95-2.59-10.51-3.62h-.05c-2.61-.75-5.15-1.37-7.57-1.84-11.19-2.18-17.27-.93-17.53-.88-.12.02-.23.09-.3.19-4.47,6.03-9.44,11.67-14.86,16.86-5.2,4.73-9.33,6.87-12.02,6.14-5.97-1.75-3.72-13.31-2.48-18.2.5-1.98.99-3.5,1.13-3.88.04-.11.04-.23,0-.34-.04-.11-.11-.2-.21-.26-.1-.06-.22-.09-.33-.07-.12.02-.23.07-.3.16-.21.23-2.52,2.83-5.33,6.19-1.41,1.7-2.9,3.52-4.27,5.3-.66.83-1.54,2.13-2.4,3.42v.06l-.61.89c-.82,1.25-1.75,2.66-2.77,4.17-5.95,8.83-14.83,21.12-23.11,25.83-.96.56-1.98,1.02-3.04,1.38-.77.26-1.56.44-2.36.54-2.27.24-5.08-.83-8.35-3.18-8.37-6.04-17.89-19.04-24.4-28.89-1.36-2.06-2.48-3.83-3.32-5.16-.98-1.58-1.54-2.52-1.54-2.52-.05-.09-.14-.16-.24-.21-.1-.04-.21-.05-.31-.03-.11.02-.2.08-.27.16-.07.08-.12.18-.12.29-.23,1.49-.62,2.95-1.18,4.35-1.64,4.22-3.91,8.16-6.74,11.7-3.46,4.32-7.86,7.79-12.88,10.14-1.29.62-2.62,1.14-3.98,1.56l-6.78-6.74c-.09-.08-.21-.13-.33-.13s-.24.04-.34.13l-.27.23-.75.62c-2.29,1.91-4.28,3.55-5.49,6.68-.05.12-.05.25,0,.36.26.67,1.25,2.46,2.2,4.21.58,1.05,1.13,2.05,1.43,2.66,2.58,4.97,5.56,9.72,8.92,14.19.71.95,1.45,1.87,2.23,2.88,1.1,1.38,2.28,2.78,3.52,4.16,10.77,12.05,22.79,19.76,35.75,22.91l2.03.47c2.78.59,5.59.99,8.41,1.2l.95.11c24.21,1.57,41.3-11.29,45.03-14.33l1.89,21.29c0,.08.03.15.07.21.4.62.87,1.2,1.39,1.72,1.05,1.14,2.18,2.19,3.39,3.16,3.96,3.11,8.19,5.86,12.65,8.19,3.2,1.72,6.63,3.45,10.3,5.12.45.2.9.4,1.36.58,4.39,1.67,9,2.73,13.68,3.15,3.45.35,6.91.51,10.37.49,8.37-.11,16.73-.86,24.99-2.24,1.49-.23,2.93-.49,4.31-.73,7.07-1.28,12.3-2.58,13.75-2.95l4.74,9.68c.06.12.17.22.3.26.06.03.13.04.2.04s.14-.01.2-.04c.23-.14,5.77-3.38,4.91-6.9-1.04-2.69-2.3-5.28-3.78-7.76-2.21-4.05-4.95-8.86-7.1-12.58,3.29,4.14,7.86,9.85,13,16.22l1.58,1.96c4.73,5.86,9.34,11.52,13.69,16.79,1.36,1.66,2.72,3.31,4.06,4.92,10.24,12.33,17.47,20.61,21.52,24.6.81.84,1.49,1.47,2.03,1.91.8.65,1.29.92,1.66.92l.34-.03c1.17-.05,2.3-.42,3.28-1.07.76-.51,1.4-1.19,1.88-1.97v-1.77Z"/>
      <path class="cls-13" d="m349.62,226.34s-6.37,6.36-3.37,7.25c2.81.83,5.22-3.64,5.22-3.64l-1.85-3.61Z"/>
      <path class="cls-13" d="m294.17,193.35s5.47-3.26,4.75-5.83c-2.03-7.31-9.9-4.68-9.9-4.68l5.15,10.51Z"/>
      <path class="cls-13" d="m284.95,160.47l-31.62-36.42,40.67,59.25,4.04,1.67-13.09-24.51Z"/>
      <path class="cls-13" d="m186.48,115.43s2.85,18.64,4.3,29.01c.78,5.53,2.5,22.6,2.5,22.6l3.04,3.34s-2.03-19.67-2.81-25.14c-1.26-8.61-7.04-29.82-7.04-29.82Z"/>
      <path class="cls-13" d="m87.23,99.8s-7.18,5.21-6.75,7.48c.7,3.82,14.28-.2,14.28-.2l-7.52-7.28Z"/>
      <path class="cls-13" d="m122.61,151.92c-.5,0-.99-.16-1.39-.46l-22.42-15.97s-.06-.04-.08-.07c-1.24-1.38-2.42-2.78-3.52-4.16-.05-.07-.09-.15-.1-.23-.01-.08,0-.17.02-.25.09-.29.24-.55.44-.78.2-.23.44-.42.71-.55l24.4-12.96c.36-.2.75-.3,1.16-.3s.8.1,1.16.3c.36.21.65.5.86.86.21.36.32.76.33,1.17l.75,30.88c.01.45-.1.89-.32,1.27-.23.39-.55.7-.95.91-.32.2-.69.31-1.06.34Zm-23.17-17.23l22.3,15.9c.21.15.45.24.71.26.25.02.51-.04.74-.16.23-.12.41-.3.54-.52.13-.22.19-.48.18-.73l-.75-30.88c0-.24-.07-.47-.19-.67-.12-.21-.29-.38-.5-.49-.21-.12-.44-.18-.67-.18s-.47.06-.67.18l-24.41,12.97c-.23.12-.43.3-.55.53,1.03,1.28,2.11,2.57,3.27,3.81Z"/>
      <path class="cls-13" d="m162.87,151.21c-.63,0-1.22-.25-1.67-.69-.45-.44-.71-1.03-.72-1.65l-.76-30.89c0-.12.02-.23.09-.33.06-.1.15-.18.26-.23,1.06-.36,2.08-.82,3.04-1.38.08-.05.18-.08.27-.08s.19.03.27.08l25.03,17.82c.33.24.59.56.76.93.17.37.25.77.22,1.18-.03.41-.16.8-.38,1.14s-.52.62-.88.81l-24.42,12.99c-.34.19-.72.29-1.11.3Zm-2.13-32.95l.75,30.58c0,.24.07.47.19.67.12.21.29.38.49.49.21.12.44.19.67.19.24,0,.47-.05.68-.16l24.4-12.97c.21-.11.39-.27.51-.47.13-.2.2-.43.22-.66.01-.23-.03-.47-.13-.68-.1-.21-.25-.4-.44-.53l-24.77-17.63c-.83.46-1.69.85-2.58,1.18Z"/>
      <path class="cls-13" d="m245.94,189.81c-.11,0-.21-.03-.29-.1l-2.83-2.03c-.33-.24-.6-.55-.77-.92-.18-.37-.25-.77-.23-1.18.02-.41.15-.8.37-1.14.22-.34.52-.62.88-.82l24.41-12.95c.36-.19.76-.29,1.17-.28s.8.12,1.16.32c.35.2.65.49.86.84.21.35.33.74.34,1.15l.35,14.34c0,.12-.04.24-.12.34-.08.09-.19.16-.31.18-8.26,1.38-16.62,2.13-24.99,2.24h0Zm22.66-18.39c-.23,0-.45.05-.65.16l-24.41,12.95c-.21.11-.38.27-.51.47-.13.2-.2.42-.21.66-.02.24.03.47.13.69s.26.4.45.53l2.7,1.92c8.12-.12,16.22-.84,24.23-2.16l-.34-13.89c-.01-.36-.16-.7-.42-.95-.26-.25-.6-.39-.96-.39Z"/>
      <path class="cls-13" d="m241.99,154.52c-.49,0-.98-.15-1.38-.45l-25.17-17.92c-.33-.24-.6-.55-.77-.92-.17-.37-.25-.77-.23-1.18.03-.41.16-.8.38-1.14s.52-.62.88-.81l24.41-12.97c.36-.19.76-.28,1.16-.27.41,0,.8.12,1.15.32.35.2.65.49.85.84.21.35.33.74.34,1.15l.76,30.88c0,.45-.1.89-.33,1.27-.22.39-.55.7-.94.91-.35.19-.73.29-1.13.3Zm-25.81-21.53c-.21.11-.38.27-.51.47-.13.2-.2.42-.22.66-.01.24.03.47.14.68.1.21.25.4.44.53l25.2,17.92c.21.15.45.24.71.25.25.01.51-.04.73-.16.23-.12.42-.29.55-.51.13-.22.19-.48.18-.73l-.76-30.89c0-.24-.07-.47-.19-.67-.12-.2-.29-.37-.49-.49-.21-.12-.44-.19-.67-.19-.24,0-.47.05-.68.16l-24.43,12.97Z"/>
      <path class="cls-13" d="m191.64,96.41c-.5,0-.99-.16-1.39-.46l-4.97-3.53c-.11-.08-.19-.2-.21-.33-.02-.13,0-.27.09-.38.08-.11.2-.19.33-.21s.27,0,.38.09l4.97,3.54c.21.15.45.24.71.26.25.02.51-.04.73-.16.23-.12.42-.3.54-.52.13-.22.19-.48.18-.73l-.31-13.02c0-.07,0-.13.03-.19.02-.06.06-.12.1-.17.04-.05.1-.09.16-.11.06-.03.13-.04.19-.04.13,0,.26.05.35.14.09.09.15.21.16.35l.31,13.02c.01.44-.1.88-.32,1.27-.23.38-.55.7-.95.9-.34.18-.71.28-1.1.29Z"/>
      <path class="cls-13" d="m251.08,104.36c-.62,0-1.22-.25-1.67-.69s-.71-1.03-.72-1.65l-.76-31.04c0-.08.01-.15.05-.22.03-.07.08-.13.14-.18.06-.05.12-.08.2-.1.07-.02.15-.02.22,0,2.43.47,4.98,1.08,7.58,1.83.07.01.14.04.19.08l20.57,14.65c.33.24.59.56.76.93.17.37.25.77.22,1.18-.03.4-.16.8-.38,1.14-.22.34-.52.62-.88.81l-24.4,12.98c-.34.18-.72.28-1.12.28Zm-2.13-32.77l.75,30.41c0,.24.07.47.19.67.12.2.29.37.49.5.21.12.44.19.67.19.24,0,.47-.05.68-.16l24.4-12.97c.21-.11.39-.27.51-.47.13-.2.2-.43.22-.66.01-.23-.03-.47-.13-.68-.1-.21-.25-.4-.44-.54l-20.5-14.59c-2.35-.7-4.64-1.27-6.84-1.7Z"/>
      <path class="cls-13" d="m278.45,155.89c-.42,0-.84-.11-1.2-.32-.36-.21-.65-.5-.86-.86-.21-.35-.32-.76-.33-1.17l-.76-30.89c-.01-.45.09-.89.32-1.27.22-.39.55-.7.94-.91.39-.21.84-.31,1.28-.28.45.03.88.18,1.24.44l25.16,17.92c.33.24.6.55.78.92.18.37.26.78.24,1.19-.03.41-.16.8-.38,1.14-.22.34-.53.62-.89.81l-24.4,12.95c-.34.2-.73.32-1.14.32Zm-.73-34.66c-.23,0-.45.05-.65.16-.23.12-.42.3-.54.52s-.19.48-.19.73l.76,30.89c0,.23.08.46.2.66.12.2.29.37.49.48.2.12.43.18.66.19.24,0,.47-.05.67-.16l24.37-12.92c.21-.11.38-.27.51-.47.13-.2.2-.42.22-.66.01-.24-.03-.47-.13-.68-.1-.21-.25-.39-.45-.53l-25.16-17.94c-.22-.17-.49-.27-.77-.28Z"/>
      <path class="cls-13" d="m222.09,186.2c-.06.01-.13.01-.19,0-.46-.18-.91-.37-1.36-.58-3.67-1.67-7.1-3.4-10.3-5.12-4.45-2.37-8.67-5.15-12.6-8.3-1.2-.97-2.34-2.03-3.39-3.16-.08-.09-.13-.2-.13-.32l-.07-2.7c-.01-.45.1-.89.32-1.27.22-.39.55-.71.94-.92.39-.21.84-.31,1.28-.28.45.03.88.18,1.24.44l25.15,17.89c.33.24.6.55.77.92.18.37.25.78.23,1.18-.03.41-.16.8-.38,1.14-.22.34-.53.62-.89.81l-.39.2c-.07.04-.15.07-.23.07Zm-26.99-17.75c.99,1.04,2.05,2.02,3.16,2.92,3.88,3.12,8.05,5.86,12.45,8.2,3.14,1.72,6.59,3.43,10.24,5.07.36.17.72.33,1.1.48l.18-.1c.21-.11.38-.26.51-.46.13-.2.2-.42.22-.66.01-.24-.03-.47-.13-.69-.1-.22-.25-.4-.45-.54l-25.15-17.89c-.21-.15-.46-.24-.71-.25-.26-.02-.51.04-.74.16-.23.12-.42.3-.54.52-.13.22-.2.48-.19.73l.05,2.51Z"/>
      <path class="cls-13" d="m317.13,201.68c-.08,0-.15-.02-.22-.05-.07-.03-.13-.08-.18-.13-4.35-5.28-8.95-10.94-13.69-16.8-.07-.08-.11-.19-.11-.3l-.25-10.14c-.01-.45.09-.89.32-1.27.22-.39.55-.7.94-.91.39-.21.84-.31,1.28-.28.45.03.87.18,1.24.44l25.16,17.92c.34.23.61.55.79.92s.26.78.23,1.19c-.02.41-.15.8-.38,1.15s-.53.63-.89.82l-14.01,7.38c-.07.05-.15.07-.23.08Zm-13.18-17.48c4.6,5.69,9.12,11.15,13.31,16.32l13.62-7.23c.21-.11.39-.27.52-.48.13-.2.21-.43.22-.67.01-.23-.03-.47-.13-.68-.1-.21-.25-.39-.45-.52l-25.16-17.93c-.21-.15-.45-.24-.71-.25-.26-.02-.51.04-.74.16-.23.12-.42.3-.54.52-.13.22-.2.48-.19.73l.24,10.02Z"/>
      <path class="cls-13" d="m346.04,233.84c-.37,0-.86-.27-1.66-.92-.54-.44-1.21-1.06-2.03-1.91-.09-.09-.14-.21-.14-.34s.05-.25.14-.34c.08-.1.2-.16.32-.18.13-.02.25.01.36.09l3.73,2.65c.08.06.15.14.18.24.03.1.04.2,0,.3-.02.1-.08.19-.16.26-.08.07-.18.11-.28.12-.16.02-.32.03-.48.03Z"/>
      <path class="cls-13" d="m351.54,154.2l-19.97-14.19c-.19-.13-.35-.32-.45-.53-.1-.21-.15-.45-.13-.68.01-.24.09-.46.21-.66.13-.2.3-.36.51-.47l9.88-5.24,8.4,8.05,1.55,1.49v-1.39c-.29-.28-.57-.55-.86-.83-2.73-2.62-5.57-5.38-8.61-8.3-.08-.07-.18-.12-.28-.14-.11-.01-.22,0-.31.05l-10.2,5.41c-.36.19-.66.48-.88.82-.22.34-.35.73-.37,1.14-.03.41.05.81.23,1.18.18.37.44.68.77.92l20.52,14.62v-1.25Z"/>
      <path class="cls-13" d="m335.57,297.49H13.2c-.3,0-.59-.1-.8-.26-.21-.16-.34-.39-.34-.62,0-.23.12-.46.34-.62s.51-.26.81-.26h322.37c.3,0,.59.09.8.26.22.16.34.39.34.62s-.12.46-.34.63c-.21.17-.5.26-.8.26Z"/>
    </g>
  </g>
</svg>