<?xml version="1.0" encoding="UTF-8"?>
<svg id="Capa_2" data-name="Capa 2" xmlns="http://www.w3.org/2000/svg" viewBox="0 0 416.8 136.94">
  <defs>
    <style>
      .cls-1 {
        fill: #002d74;
      }

      .cls-2 {
        fill: #ff4d00;
      }

      .cls-3, .cls-4 {
        fill: #fff;
      }

      .cls-5, .cls-6 {
        fill: #4f81b1;
      }

      .cls-6, .cls-4, .cls-7, .cls-8 {
        opacity: .2;
      }

      .cls-9 {
        opacity: .8;
      }

      .cls-9, .cls-10, .cls-8, .cls-11 {
        isolation: isolate;
      }

      .cls-10 {
        opacity: .2;
      }

      .cls-11 {
        opacity: .5;
      }
    </style>
  </defs>
  <g id="vectores">
    <g>
      <g class="cls-9">
        <path class="cls-5" d="m185.2,21.52s.28.37.62.65c.31.28.65.48.82.57.27.14.59.18.99-.02.33-.11,1.48-.88,1.91-1.56.39-.62-.04-1.14-.07-1.19,0,0-.29-.37-.62-.65-.31-.27-.65-.48-.83-.57-.4-.21-.76-.07-.99.02-.33.12-1.48.89-1.91,1.57-.38.62.03,1.14.07,1.19"/>
      </g>
      <g class="cls-9">
        <path class="cls-5" d="m193.61,13.11s.28.37.62.65c.31.28.65.48.83.57.27.15.59.19.99-.02.33-.11,1.48-.89,1.91-1.56.39-.62-.03-1.14-.07-1.19,0,0-.28-.37-.62-.65-.31-.28-.65-.48-.82-.57-.41-.21-.76-.07-.99.02-.33.12-1.48.89-1.91,1.56-.38.62.03,1.14.07,1.19"/>
      </g>
      <g class="cls-11">
        <path class="cls-5" d="m227.24,13.11s.28.37.62.65c.31.28.65.48.82.57.27.15.59.19.99-.02.33-.11,1.48-.89,1.9-1.56.39-.62-.03-1.14-.07-1.19,0,0-.29-.37-.62-.65-.31-.28-.65-.48-.83-.57-.4-.21-.76-.07-.99.02-.33.12-1.48.89-1.91,1.56-.39.62.03,1.14.07,1.19"/>
      </g>
      <g class="cls-10">
        <path class="cls-5" d="m210.43,13.11s.28.37.62.65c.31.28.65.48.83.57.27.15.59.19.99-.02.33-.11,1.48-.89,1.91-1.56.39-.62-.03-1.14-.07-1.19,0,0-.28-.37-.62-.65-.31-.28-.65-.48-.82-.57-.41-.21-.76-.07-.99.02-.33.12-1.48.89-1.91,1.56-.39.62.03,1.14.07,1.19"/>
      </g>
      <g class="cls-11">
        <path class="cls-5" d="m244.06,13.11s.28.37.62.65c.31.28.65.48.83.57.27.15.59.19.99-.02.33-.11,1.48-.89,1.91-1.56.39-.62-.03-1.14-.07-1.19,0,0-.28-.37-.62-.65-.31-.28-.65-.48-.82-.57-.4-.21-.76-.07-.99.02-.33.12-1.48.89-1.91,1.56-.38.62.03,1.14.07,1.19"/>
      </g>
      <g class="cls-10">
        <path class="cls-5" d="m202.02,21.52s.28.37.62.65c.31.28.65.48.83.57.26.14.59.18.99-.02.33-.11,1.48-.88,1.91-1.56.39-.62-.03-1.14-.07-1.19,0,0-.29-.37-.62-.65-.31-.27-.65-.48-.82-.57-.41-.21-.76-.07-.99.02-.33.12-1.48.89-1.91,1.57-.38.62.04,1.14.07,1.19"/>
      </g>
      <g class="cls-11">
        <path class="cls-5" d="m218.83,21.52s.28.37.62.65c.31.28.65.48.83.57.27.14.59.18.99-.02.33-.11,1.48-.88,1.91-1.56.39-.62-.03-1.14-.07-1.19,0,0-.28-.37-.62-.65-.31-.27-.65-.48-.82-.57-.4-.21-.76-.07-.99.02-.33.12-1.48.89-1.91,1.57-.38.62.04,1.14.07,1.19"/>
      </g>
      <g class="cls-11">
        <path class="cls-5" d="m235.65,21.52s.28.37.62.65c.31.28.65.48.83.57.27.14.59.18.99-.02.33-.11,1.48-.88,1.91-1.56.39-.62-.04-1.14-.07-1.19,0,0-.28-.37-.62-.65-.31-.27-.65-.48-.83-.57-.4-.21-.76-.07-.99.02-.33.12-1.48.89-1.91,1.57-.38.62.03,1.14.07,1.19"/>
      </g>
      <g class="cls-11">
        <path class="cls-5" d="m252.48,21.52s.28.37.62.65c.31.28.65.48.83.57.27.14.59.18.99-.02.33-.11,1.48-.88,1.91-1.56.39-.62-.03-1.14-.07-1.19,0,0-.28-.37-.62-.65-.31-.27-.65-.48-.82-.57-.4-.21-.76-.07-.99.02-.33.12-1.48.89-1.91,1.57-.38.62.03,1.14.07,1.19"/>
      </g>
      <g class="cls-11">
        <path class="cls-5" d="m260.63,13.11s.28.37.62.65c.31.28.65.48.82.57.27.15.59.19.99-.02.33-.11,1.48-.89,1.9-1.56.39-.62-.03-1.14-.07-1.19,0,0-.28-.37-.62-.65-.31-.28-.65-.48-.83-.57-.4-.21-.76-.07-.99.02-.33.12-1.48.89-1.91,1.56-.38.62.04,1.14.07,1.19"/>
      </g>
      <g class="cls-11">
        <path class="cls-5" d="m269.3,21.52s.29.37.62.65c.31.28.65.48.82.57.27.14.59.18.99-.02.33-.11,1.48-.88,1.91-1.56.39-.62-.04-1.14-.07-1.19,0,0-.28-.37-.62-.65-.31-.27-.65-.48-.83-.57-.4-.21-.76-.07-.99.02-.33.12-1.48.89-1.91,1.57-.38.62.04,1.14.07,1.19"/>
      </g>
      <g class="cls-11">
        <path class="cls-5" d="m277.71,13.11s.28.37.62.65c.31.28.65.48.83.57.26.15.58.19.99-.02.33-.11,1.48-.89,1.91-1.56.39-.62-.04-1.14-.07-1.19,0,0-.28-.37-.62-.65-.31-.28-.65-.48-.83-.57-.4-.21-.76-.07-.99.02-.33.12-1.48.89-1.91,1.56-.38.62.04,1.14.07,1.19"/>
      </g>
      <g class="cls-9">
        <path class="cls-5" d="m311.34,13.11s.28.37.62.65c.31.28.65.48.83.57.27.15.59.19.99-.02.33-.11,1.48-.89,1.91-1.56.39-.62-.04-1.14-.07-1.19,0,0-.28-.37-.62-.65-.31-.28-.65-.48-.83-.57-.4-.21-.76-.07-.99.02-.32.12-1.48.89-1.91,1.56-.38.62.03,1.14.07,1.19"/>
      </g>
      <g class="cls-9">
        <path class="cls-5" d="m286.12,21.52s.28.37.62.65c.31.28.65.48.83.57.27.14.59.18.99-.02.33-.11,1.48-.88,1.91-1.56.39-.62-.04-1.14-.07-1.19,0,0-.28-.37-.62-.65-.31-.27-.65-.48-.83-.57-.4-.21-.76-.07-.99.02-.32.12-1.48.89-1.91,1.57-.38.62.03,1.14.07,1.19"/>
      </g>
      <g class="cls-9">
        <path class="cls-5" d="m302.93,21.52s.29.37.62.65c.31.28.65.48.83.57.27.14.59.18.99-.02.33-.11,1.48-.88,1.91-1.56.39-.62-.04-1.14-.07-1.19,0,0-.28-.37-.62-.65-.31-.27-.65-.48-.83-.57-.41-.21-.76-.07-.99.02-.33.12-1.49.89-1.91,1.57-.39.62.03,1.14.07,1.19"/>
      </g>
      <g class="cls-9">
        <path class="cls-5" d="m294.52,13.11s.28.37.62.65c.31.28.65.48.83.57.26.15.59.19.99-.02.33-.11,1.48-.89,1.91-1.56.38-.62-.04-1.14-.07-1.19,0,0-.28-.37-.62-.65-.31-.28-.65-.48-.83-.57-.4-.21-.76-.07-.99.02-.33.12-1.48.89-1.91,1.56-.38.62.04,1.14.07,1.19"/>
      </g>
      <g class="cls-10">
        <path class="cls-3" d="m168.39,38.39s.28.37.62.65c.31.28.65.48.83.57.26.14.59.18.99-.02.33-.11,1.48-.88,1.91-1.56.38-.62-.03-1.14-.07-1.19,0,0-.28-.37-.62-.65-.31-.28-.65-.48-.82-.57-.4-.21-.76-.07-.99.02-.33.12-1.48.89-1.91,1.56-.39.62.04,1.14.07,1.19"/>
      </g>
      <g class="cls-9">
        <path class="cls-5" d="m176.53,29.98s.28.36.62.65c.31.28.65.48.83.57.26.14.59.18.99-.02.32-.12,1.48-.89,1.91-1.56.39-.62-.03-1.14-.07-1.19,0,0-.28-.37-.62-.65-.31-.27-.65-.48-.82-.57-.41-.21-.76-.07-.99.02-.33.12-1.48.89-1.91,1.57-.38.62.03,1.14.07,1.19"/>
      </g>
      <g class="cls-10">
        <path class="cls-5" d="m185.2,38.39s.28.37.62.65c.31.28.65.48.82.57.27.14.59.18.99-.02.33-.11,1.48-.88,1.91-1.56.39-.62-.04-1.14-.07-1.19,0,0-.29-.37-.62-.65-.31-.28-.65-.48-.83-.57-.4-.21-.76-.07-.99.02-.33.12-1.48.89-1.91,1.56-.38.62.03,1.14.07,1.19"/>
      </g>
      <g class="cls-9">
        <path class="cls-5" d="m193.61,29.98s.28.36.62.65c.31.28.65.48.83.57.27.14.59.18.99-.02.33-.12,1.48-.89,1.91-1.56.39-.62-.03-1.14-.07-1.19,0,0-.28-.37-.62-.65-.31-.27-.65-.48-.82-.57-.41-.21-.76-.07-.99.02-.33.12-1.48.89-1.91,1.57-.38.62.03,1.14.07,1.19"/>
      </g>
      <g class="cls-11">
        <path class="cls-5" d="m227.24,29.98s.28.36.62.65c.31.28.65.48.82.57.27.14.59.18.99-.02.33-.12,1.48-.89,1.9-1.56.39-.62-.03-1.14-.07-1.19,0,0-.29-.37-.62-.65-.31-.27-.65-.48-.83-.57-.4-.21-.76-.07-.99.02-.33.12-1.48.89-1.91,1.57-.39.62.03,1.14.07,1.19"/>
      </g>
      <g class="cls-10">
        <path class="cls-5" d="m210.43,29.98s.28.36.62.65c.31.28.65.48.83.57.27.14.59.18.99-.02.33-.12,1.48-.89,1.91-1.56.39-.62-.03-1.14-.07-1.19,0,0-.28-.37-.62-.65-.31-.27-.65-.48-.82-.57-.41-.21-.76-.07-.99.02-.33.12-1.48.89-1.91,1.57-.39.62.03,1.14.07,1.19"/>
      </g>
      <g class="cls-10">
        <path class="cls-5" d="m202.02,38.39s.28.37.62.65c.31.28.65.48.83.57.26.14.59.18.99-.02.33-.11,1.48-.88,1.91-1.56.39-.62-.03-1.14-.07-1.19,0,0-.29-.37-.62-.65-.31-.28-.65-.48-.82-.57-.41-.21-.76-.07-.99.02-.33.12-1.48.89-1.91,1.56-.38.62.04,1.14.07,1.19"/>
      </g>
      <g class="cls-11">
        <path class="cls-5" d="m218.83,38.39s.28.37.62.65c.31.28.65.48.83.57.27.14.59.18.99-.02.33-.11,1.48-.88,1.91-1.56.39-.62-.03-1.14-.07-1.19,0,0-.28-.37-.62-.65-.31-.28-.65-.48-.82-.57-.4-.21-.76-.07-.99.02-.33.12-1.48.89-1.91,1.56-.38.62.04,1.14.07,1.19"/>
      </g>
      <g class="cls-11">
        <path class="cls-5" d="m235.65,38.39s.28.37.62.65c.31.28.65.48.83.57.27.14.59.18.99-.02.33-.11,1.48-.88,1.91-1.56.39-.62-.04-1.14-.07-1.19,0,0-.28-.37-.62-.65-.31-.28-.65-.48-.83-.57-.4-.21-.76-.07-.99.02-.33.12-1.48.89-1.91,1.56-.38.62.03,1.14.07,1.19"/>
      </g>
      <g class="cls-11">
        <path class="cls-5" d="m244.08,29.98s.28.36.62.65c.31.28.65.48.82.57.27.14.59.18.99-.02.33-.12,1.48-.89,1.91-1.56.39-.62-.03-1.14-.07-1.19,0,0-.28-.37-.62-.65-.31-.27-.65-.48-.82-.57-.41-.21-.76-.07-.99.02-.33.12-1.48.89-1.91,1.57-.38.62.04,1.14.07,1.19"/>
      </g>
      <g class="cls-11">
        <path class="cls-5" d="m260.63,29.98s.28.36.62.65c.31.28.65.48.82.57.27.14.59.18.99-.02.33-.12,1.48-.89,1.9-1.56.39-.62-.03-1.14-.07-1.19,0,0-.28-.37-.62-.65-.31-.27-.65-.48-.83-.57-.4-.21-.76-.07-.99.02-.33.12-1.48.89-1.91,1.57-.38.62.04,1.14.07,1.19"/>
      </g>
      <g class="cls-9">
        <path class="cls-5" d="m277.71,29.98s.28.36.62.65c.31.28.65.48.83.57.26.14.58.18.99-.02.33-.12,1.48-.89,1.91-1.56.39-.62-.04-1.14-.07-1.19,0,0-.28-.37-.62-.65-.31-.27-.65-.48-.83-.57-.4-.21-.76-.07-.99.02-.33.12-1.48.89-1.91,1.57-.38.62.04,1.14.07,1.19"/>
      </g>
      <g class="cls-9">
        <path class="cls-5" d="m311.34,29.98s.28.36.62.65c.31.28.65.48.83.57.27.14.59.18.99-.02.33-.12,1.48-.89,1.91-1.56.39-.62-.04-1.14-.07-1.19,0,0-.28-.37-.62-.65-.31-.27-.65-.48-.83-.57-.4-.21-.76-.07-.99.02-.32.12-1.48.89-1.91,1.57-.38.62.03,1.14.07,1.19"/>
      </g>
      <g class="cls-9">
        <path class="cls-5" d="m294.52,29.98s.28.36.62.65c.31.28.65.48.83.57.26.14.59.18.99-.02.33-.12,1.48-.89,1.91-1.56.38-.62-.04-1.14-.07-1.19,0,0-.28-.37-.62-.65-.31-.27-.65-.48-.83-.57-.4-.21-.76-.07-.99.02-.33.12-1.48.89-1.91,1.57-.38.62.04,1.14.07,1.19"/>
      </g>
      <path class="cls-3" d="m168.39,55.26s.28.37.62.65c.31.28.65.48.83.57.26.14.59.19.99-.02.33-.11,1.48-.89,1.91-1.56.38-.62-.03-1.14-.07-1.19,0,0-.28-.37-.62-.65-.31-.28-.65-.48-.82-.57-.4-.21-.76-.07-.99.01-.33.12-1.48.89-1.91,1.57-.39.62.04,1.14.07,1.19"/>
      <g class="cls-10">
        <path class="cls-3" d="m159.98,46.86s.28.37.62.65c.31.28.65.48.82.57.27.14.58.18.99-.02.33-.11,1.48-.89,1.91-1.56.39-.62-.03-1.14-.07-1.19,0,0-.28-.36-.62-.65-.31-.28-.65-.48-.82-.57-.4-.21-.76-.07-.99.02-.33.12-1.48.89-1.91,1.56-.38.62.03,1.14.07,1.19"/>
      </g>
      <g class="cls-10">
        <path class="cls-3" d="m176.53,46.86s.28.37.62.65c.31.28.65.48.83.57.26.14.59.18.99-.02.32-.11,1.48-.89,1.91-1.56.39-.62-.03-1.14-.07-1.19,0,0-.28-.36-.62-.65-.31-.28-.65-.48-.82-.57-.41-.21-.76-.07-.99.02-.33.12-1.48.89-1.91,1.56-.38.62.03,1.14.07,1.19"/>
      </g>
      <g class="cls-7">
        <path class="cls-5" d="m185.2,55.26s.28.37.62.65c.31.28.65.48.82.57.27.14.59.19.99-.02.33-.11,1.48-.89,1.91-1.56.39-.62-.04-1.14-.07-1.19,0,0-.29-.37-.62-.65-.31-.28-.65-.48-.83-.57-.4-.21-.76-.07-.99.01-.33.12-1.48.89-1.91,1.57-.38.62.03,1.14.07,1.19"/>
      </g>
      <g class="cls-11">
        <path class="cls-5" d="m193.61,46.86s.28.37.62.65c.31.28.65.48.83.57.27.14.59.18.99-.02.33-.11,1.48-.89,1.91-1.56.39-.62-.03-1.14-.07-1.19,0,0-.28-.36-.62-.65-.31-.28-.65-.48-.82-.57-.41-.21-.76-.07-.99.02-.33.12-1.48.89-1.91,1.56-.38.62.03,1.14.07,1.19"/>
      </g>
      <g class="cls-11">
        <path class="cls-5" d="m227.24,46.86s.28.37.62.65c.31.28.65.48.82.57.27.14.59.18.99-.02.33-.11,1.48-.89,1.9-1.56.39-.62-.03-1.14-.07-1.19,0,0-.29-.36-.62-.65-.31-.28-.65-.48-.83-.57-.4-.21-.76-.07-.99.02-.33.12-1.48.89-1.91,1.56-.39.62.03,1.14.07,1.19"/>
      </g>
      <g class="cls-11">
        <path class="cls-5" d="m210.43,46.86s.28.37.62.65c.31.28.65.48.83.57.27.14.59.18.99-.02.33-.11,1.48-.89,1.91-1.56.39-.62-.03-1.14-.07-1.19,0,0-.28-.36-.62-.65-.31-.28-.65-.48-.82-.57-.41-.21-.76-.07-.99.02-.33.12-1.48.89-1.91,1.56-.39.62.03,1.14.07,1.19"/>
      </g>
      <g class="cls-7">
        <path class="cls-5" d="m202.02,55.26s.28.37.62.65c.31.28.65.48.83.57.26.14.59.19.99-.02.33-.11,1.48-.89,1.91-1.56.39-.62-.03-1.14-.07-1.19,0,0-.29-.37-.62-.65-.31-.28-.65-.48-.82-.57-.41-.21-.76-.07-.99.01-.33.12-1.48.89-1.91,1.57-.38.62.04,1.14.07,1.19"/>
      </g>
      <g class="cls-7">
        <path class="cls-5" d="m218.83,55.26s.28.37.62.65c.31.28.65.48.83.57.27.14.59.19.99-.02.33-.11,1.48-.89,1.91-1.56.39-.62-.03-1.14-.07-1.19,0,0-.28-.37-.62-.65-.31-.28-.65-.48-.82-.57-.4-.21-.76-.07-.99.01-.33.12-1.48.89-1.91,1.57-.38.62.04,1.14.07,1.19"/>
      </g>
      <path class="cls-3" d="m168.39,72.14s.28.36.62.65c.31.28.65.48.83.57.26.14.59.18.99-.02.33-.12,1.48-.89,1.91-1.56.38-.62-.03-1.14-.07-1.19,0,0-.28-.36-.62-.65-.31-.27-.65-.48-.82-.57-.4-.21-.76-.07-.99.02-.33.12-1.48.89-1.91,1.57-.39.62.04,1.14.07,1.19"/>
      <path class="cls-3" d="m159.98,63.73s.28.37.62.65c.31.28.65.48.82.57.27.14.58.18.99-.02.33-.12,1.48-.89,1.91-1.56.39-.62-.03-1.14-.07-1.19,0,0-.28-.36-.62-.65-.31-.27-.65-.48-.82-.57-.4-.21-.76-.07-.99.02-.33.12-1.48.89-1.91,1.56-.38.62.03,1.14.07,1.19"/>
      <path class="cls-3" d="m176.53,63.73s.28.37.62.65c.31.28.65.48.83.57.26.14.59.18.99-.02.32-.12,1.48-.89,1.91-1.56.39-.62-.03-1.14-.07-1.19,0,0-.28-.36-.62-.65-.31-.27-.65-.48-.82-.57-.41-.21-.76-.07-.99.02-.33.12-1.48.89-1.91,1.56-.38.62.03,1.14.07,1.19"/>
      <g class="cls-7">
        <path class="cls-5" d="m185.2,72.14s.28.36.62.65c.31.28.65.48.82.57.27.14.59.18.99-.02.33-.12,1.48-.89,1.91-1.56.39-.62-.04-1.14-.07-1.19,0,0-.29-.36-.62-.65-.31-.27-.65-.48-.83-.57-.4-.21-.76-.07-.99.02-.33.12-1.48.89-1.91,1.57-.38.62.03,1.14.07,1.19"/>
      </g>
      <g class="cls-7">
        <path class="cls-5" d="m193.61,63.73s.28.37.62.65c.31.28.65.48.83.57.27.14.59.18.99-.02.33-.12,1.48-.89,1.91-1.56.39-.62-.03-1.14-.07-1.19,0,0-.28-.36-.62-.65-.31-.27-.65-.48-.82-.57-.41-.21-.76-.07-.99.02-.33.12-1.48.89-1.91,1.56-.38.62.03,1.14.07,1.19"/>
      </g>
      <g class="cls-7">
        <path class="cls-5" d="m227.24,63.73s.28.37.62.65c.31.28.65.48.82.57.27.14.59.18.99-.02.33-.12,1.48-.89,1.9-1.56.39-.62-.03-1.14-.07-1.19,0,0-.29-.36-.62-.65-.31-.27-.65-.48-.83-.57-.4-.21-.76-.07-.99.02-.33.12-1.48.89-1.91,1.56-.39.62.03,1.14.07,1.19"/>
      </g>
      <g class="cls-7">
        <path class="cls-5" d="m210.43,63.73s.28.37.62.65c.31.28.65.48.83.57.27.14.59.18.99-.02.33-.12,1.48-.89,1.91-1.56.39-.62-.03-1.14-.07-1.19,0,0-.28-.36-.62-.65-.31-.27-.65-.48-.82-.57-.41-.21-.76-.07-.99.02-.33.12-1.48.89-1.91,1.56-.39.62.03,1.14.07,1.19"/>
      </g>
      <g class="cls-7">
        <path class="cls-5" d="m202.02,72.14s.28.36.62.65c.31.28.65.48.83.57.26.14.59.18.99-.02.33-.12,1.48-.89,1.91-1.56.39-.62-.03-1.14-.07-1.19,0,0-.29-.36-.62-.65-.31-.27-.65-.48-.82-.57-.41-.21-.76-.07-.99.02-.33.12-1.48.89-1.91,1.57-.38.62.04,1.14.07,1.19"/>
      </g>
      <g class="cls-7">
        <path class="cls-5" d="m218.83,72.14s.28.36.62.65c.31.28.65.48.83.57.27.14.59.18.99-.02.33-.12,1.48-.89,1.91-1.56.39-.62-.03-1.14-.07-1.19,0,0-.28-.36-.62-.65-.31-.27-.65-.48-.82-.57-.4-.21-.76-.07-.99.02-.33.12-1.48.89-1.91,1.57-.38.62.04,1.14.07,1.19"/>
      </g>
      <path class="cls-5" d="m168.39,89.01s.28.37.62.65c.31.28.65.48.83.57.26.14.59.18.99-.02.33-.12,1.48-.89,1.91-1.56.38-.62-.03-1.14-.07-1.19,0,0-.28-.37-.62-.65-.31-.28-.65-.48-.82-.57-.4-.21-.76-.07-.99.01-.33.12-1.48.89-1.91,1.57-.39.62.04,1.14.07,1.19"/>
      <path class="cls-5" d="m159.98,80.6s.28.37.62.65c.31.28.65.48.82.57.27.14.58.18.99-.02.33-.11,1.48-.88,1.91-1.56.39-.62-.03-1.14-.07-1.19,0,0-.28-.37-.62-.65-.31-.28-.65-.48-.82-.57-.4-.21-.76-.07-.99.02-.33.12-1.48.88-1.91,1.56-.38.62.03,1.14.07,1.19"/>
      <path class="cls-3" d="m176.53,80.6s.28.37.62.65c.31.28.65.48.83.57.26.14.59.18.99-.02.32-.11,1.48-.88,1.91-1.56.39-.62-.03-1.14-.07-1.19,0,0-.28-.37-.62-.65-.31-.28-.65-.48-.82-.57-.41-.21-.76-.07-.99.02-.33.12-1.48.88-1.91,1.56-.38.62.03,1.14.07,1.19"/>
      <path class="cls-3" d="m185.2,89.01s.28.37.62.65c.31.28.65.48.82.57.27.14.59.18.99-.02.33-.12,1.48-.89,1.91-1.56.39-.62-.04-1.14-.07-1.19,0,0-.29-.37-.62-.65-.31-.28-.65-.48-.83-.57-.4-.21-.76-.07-.99.01-.33.12-1.48.89-1.91,1.57-.38.62.03,1.14.07,1.19"/>
      <g class="cls-8">
        <path class="cls-3" d="m193.61,80.6s.28.37.62.65c.31.28.65.48.83.57.27.14.59.18.99-.02.33-.11,1.48-.88,1.91-1.56.39-.62-.03-1.14-.07-1.19,0,0-.28-.37-.62-.65-.31-.28-.65-.48-.82-.57-.41-.21-.76-.07-.99.02-.33.12-1.48.88-1.91,1.56-.38.62.03,1.14.07,1.19"/>
      </g>
      <g class="cls-8">
        <path class="cls-3" d="m227.24,80.6s.28.37.62.65c.31.28.65.48.82.57.27.14.59.18.99-.02.33-.11,1.48-.88,1.9-1.56.39-.62-.03-1.14-.07-1.19,0,0-.29-.37-.62-.65-.31-.28-.65-.48-.83-.57-.4-.21-.76-.07-.99.02-.33.12-1.48.88-1.91,1.56-.39.62.03,1.14.07,1.19"/>
      </g>
      <g class="cls-8">
        <path class="cls-3" d="m210.43,80.6s.28.37.62.65c.31.28.65.48.83.57.27.14.59.18.99-.02.33-.11,1.48-.88,1.91-1.56.39-.62-.03-1.14-.07-1.19,0,0-.28-.37-.62-.65-.31-.28-.65-.48-.82-.57-.41-.21-.76-.07-.99.02-.33.12-1.48.88-1.91,1.56-.39.62.03,1.14.07,1.19"/>
      </g>
      <g class="cls-8">
        <path class="cls-5" d="m244.06,80.6s.28.37.62.65c.31.28.65.48.83.57.27.14.59.18.99-.02.33-.11,1.48-.88,1.91-1.56.39-.62-.03-1.14-.07-1.19,0,0-.28-.37-.62-.65-.31-.28-.65-.48-.82-.57-.4-.21-.76-.07-.99.02-.33.12-1.48.88-1.91,1.56-.38.62.03,1.14.07,1.19"/>
      </g>
      <g class="cls-10">
        <path class="cls-3" d="m202.02,89.01s.28.37.62.65c.31.28.65.48.83.57.26.14.59.18.99-.02.33-.12,1.48-.89,1.91-1.56.39-.62-.03-1.14-.07-1.19,0,0-.29-.37-.62-.65-.31-.28-.65-.48-.82-.57-.41-.21-.76-.07-.99.01-.33.12-1.48.89-1.91,1.57-.38.62.04,1.14.07,1.19"/>
      </g>
      <g class="cls-11">
        <path class="cls-3" d="m218.83,89.01s.28.37.62.65c.31.28.65.48.83.57.27.14.59.18.99-.02.33-.12,1.48-.89,1.91-1.56.39-.62-.03-1.14-.07-1.19,0,0-.28-.37-.62-.65-.31-.28-.65-.48-.82-.57-.4-.21-.76-.07-.99.01-.33.12-1.48.89-1.91,1.57-.38.62.04,1.14.07,1.19"/>
      </g>
      <g class="cls-11">
        <path class="cls-5" d="m235.65,89.01s.28.37.62.65c.31.28.65.48.83.57.27.14.59.18.99-.02.33-.12,1.48-.89,1.91-1.56.39-.62-.04-1.14-.07-1.19,0,0-.28-.37-.62-.65-.31-.28-.65-.48-.83-.57-.4-.21-.76-.07-.99.01-.33.12-1.48.89-1.91,1.57-.38.62.03,1.14.07,1.19"/>
      </g>
      <g class="cls-11">
        <path class="cls-5" d="m252.48,89.01s.28.37.62.65c.31.28.65.48.83.57.27.14.59.18.99-.02.33-.12,1.48-.89,1.91-1.56.39-.62-.03-1.14-.07-1.19,0,0-.28-.37-.62-.65-.31-.28-.65-.48-.82-.57-.4-.21-.76-.07-.99.01-.33.12-1.48.89-1.91,1.57-.38.62.03,1.14.07,1.19"/>
      </g>
      <g class="cls-8">
        <path class="cls-5" d="m260.63,80.6s.28.37.62.65c.31.28.65.48.82.57.27.14.59.18.99-.02.33-.11,1.48-.88,1.9-1.56.39-.62-.03-1.14-.07-1.19,0,0-.28-.37-.62-.65-.31-.28-.65-.48-.83-.57-.4-.21-.76-.07-.99.02-.33.12-1.48.88-1.91,1.56-.38.62.04,1.14.07,1.19"/>
      </g>
      <g class="cls-11">
        <path class="cls-5" d="m269.3,89.01s.29.37.62.65c.31.28.65.48.82.57.27.14.59.18.99-.02.33-.12,1.48-.89,1.91-1.56.39-.62-.04-1.14-.07-1.19,0,0-.28-.37-.62-.65-.31-.28-.65-.48-.83-.57-.4-.21-.76-.07-.99.01-.33.12-1.48.89-1.91,1.57-.38.62.04,1.14.07,1.19"/>
      </g>
      <g class="cls-8">
        <path class="cls-5" d="m277.71,80.6s.28.37.62.65c.31.28.65.48.83.57.26.14.58.18.99-.02.33-.11,1.48-.88,1.91-1.56.39-.62-.04-1.14-.07-1.19,0,0-.28-.37-.62-.65-.31-.28-.65-.48-.83-.57-.4-.21-.76-.07-.99.02-.33.12-1.48.88-1.91,1.56-.38.62.04,1.14.07,1.19"/>
      </g>
      <g class="cls-8">
        <path class="cls-5" d="m311.34,80.6s.28.37.62.65c.31.28.65.48.83.57.27.14.59.18.99-.02.33-.11,1.48-.88,1.91-1.56.39-.62-.04-1.14-.07-1.19,0,0-.28-.37-.62-.65-.31-.28-.65-.48-.83-.57-.4-.21-.76-.07-.99.02-.32.12-1.48.88-1.91,1.56-.38.62.03,1.14.07,1.19"/>
      </g>
      <g class="cls-9">
        <path class="cls-5" d="m286.12,89.01s.28.37.62.65c.31.28.65.48.83.57.27.14.59.18.99-.02.33-.12,1.48-.89,1.91-1.56.39-.62-.04-1.14-.07-1.19,0,0-.28-.37-.62-.65-.31-.28-.65-.48-.83-.57-.4-.21-.76-.07-.99.01-.32.12-1.48.89-1.91,1.57-.38.62.03,1.14.07,1.19"/>
      </g>
      <g class="cls-9">
        <path class="cls-5" d="m302.93,89.01s.29.37.62.65c.31.28.65.48.83.57.27.14.59.18.99-.02.33-.12,1.48-.89,1.91-1.56.39-.62-.04-1.14-.07-1.19,0,0-.28-.37-.62-.65-.31-.28-.65-.48-.83-.57-.41-.21-.76-.07-.99.01-.33.12-1.49.89-1.91,1.57-.39.62.03,1.14.07,1.19"/>
      </g>
      <g class="cls-8">
        <path class="cls-5" d="m294.52,80.6s.28.37.62.65c.31.28.65.48.83.57.26.14.59.18.99-.02.33-.11,1.48-.88,1.91-1.56.38-.62-.04-1.14-.07-1.19,0,0-.28-.37-.62-.65-.31-.28-.65-.48-.83-.57-.4-.21-.76-.07-.99.02-.33.12-1.48.88-1.91,1.56-.38.62.04,1.14.07,1.19"/>
      </g>
      <path class="cls-5" d="m159.98,97.47s.28.37.62.65c.31.27.65.48.82.57.27.14.58.18.99-.02.33-.11,1.48-.88,1.91-1.56.39-.62-.03-1.14-.07-1.19,0,0-.28-.37-.62-.65-.31-.27-.65-.48-.82-.57-.4-.21-.76-.07-.99.02-.33.11-1.48.88-1.91,1.56-.38.61.03,1.14.07,1.19"/>
      <g class="cls-10">
        <path class="cls-5" d="m176.53,97.47s.28.37.62.65c.31.27.65.48.83.57.26.14.59.18.99-.02.32-.11,1.48-.88,1.91-1.56.39-.62-.03-1.14-.07-1.19,0,0-.28-.37-.62-.65-.31-.27-.65-.48-.82-.57-.41-.21-.76-.07-.99.02-.33.11-1.48.88-1.91,1.56-.38.61.03,1.14.07,1.19"/>
      </g>
      <path class="cls-3" d="m193.61,97.47s.28.37.62.65c.31.27.65.48.83.57.27.14.59.18.99-.02.33-.11,1.48-.88,1.91-1.56.39-.62-.03-1.14-.07-1.19,0,0-.28-.37-.62-.65-.31-.27-.65-.48-.82-.57-.41-.21-.76-.07-.99.02-.33.11-1.48.88-1.91,1.56-.38.61.03,1.14.07,1.19"/>
      <g class="cls-11">
        <path class="cls-5" d="m227.24,97.47s.28.37.62.65c.31.27.65.48.82.57.27.14.59.18.99-.02.33-.11,1.48-.88,1.9-1.56.39-.62-.03-1.14-.07-1.19,0,0-.29-.37-.62-.65-.31-.27-.65-.48-.83-.57-.4-.21-.76-.07-.99.02-.33.11-1.48.88-1.91,1.56-.39.61.03,1.14.07,1.19"/>
      </g>
      <g class="cls-10">
        <path class="cls-5" d="m210.43,97.47s.28.37.62.65c.31.27.65.48.83.57.27.14.59.18.99-.02.33-.11,1.48-.88,1.91-1.56.39-.62-.03-1.14-.07-1.19,0,0-.28-.37-.62-.65-.31-.27-.65-.48-.82-.57-.41-.21-.76-.07-.99.02-.33.11-1.48.88-1.91,1.56-.39.61.03,1.14.07,1.19"/>
      </g>
      <g class="cls-11">
        <path class="cls-5" d="m244.08,97.47s.28.37.62.65c.31.27.65.48.82.57.27.14.59.18.99-.02.33-.11,1.48-.88,1.91-1.56.39-.62-.03-1.14-.07-1.19,0,0-.28-.37-.62-.65-.31-.27-.65-.48-.82-.57-.41-.21-.76-.07-.99.02-.33.11-1.48.88-1.91,1.56-.38.61.04,1.14.07,1.19"/>
      </g>
      <g class="cls-11">
        <path class="cls-5" d="m260.63,97.47s.28.37.62.65c.31.27.65.48.82.57.27.14.59.18.99-.02.33-.11,1.48-.88,1.9-1.56.39-.62-.03-1.14-.07-1.19,0,0-.28-.37-.62-.65-.31-.27-.65-.48-.83-.57-.4-.21-.76-.07-.99.02-.33.11-1.48.88-1.91,1.56-.38.61.04,1.14.07,1.19"/>
      </g>
      <g class="cls-11">
        <path class="cls-5" d="m277.71,97.47s.28.37.62.65c.31.27.65.48.83.57.26.14.58.18.99-.02.33-.11,1.48-.88,1.91-1.56.39-.62-.04-1.14-.07-1.19,0,0-.28-.37-.62-.65-.31-.27-.65-.48-.83-.57-.4-.21-.76-.07-.99.02-.33.11-1.48.88-1.91,1.56-.38.61.04,1.14.07,1.19"/>
      </g>
      <g class="cls-9">
        <path class="cls-5" d="m311.34,97.47s.28.37.62.65c.31.27.65.48.83.57.27.14.59.18.99-.02.33-.11,1.48-.88,1.91-1.56.39-.62-.04-1.14-.07-1.19,0,0-.28-.37-.62-.65-.31-.27-.65-.48-.83-.57-.4-.21-.76-.07-.99.02-.32.11-1.48.88-1.91,1.56-.38.61.03,1.14.07,1.19"/>
      </g>
      <g class="cls-9">
        <path class="cls-5" d="m294.52,97.47s.28.37.62.65c.31.27.65.48.83.57.26.14.59.18.99-.02.33-.11,1.48-.88,1.91-1.56.38-.62-.04-1.14-.07-1.19,0,0-.28-.37-.62-.65-.31-.27-.65-.48-.83-.57-.4-.21-.76-.07-.99.02-.33.11-1.48.88-1.91,1.56-.38.61.04,1.14.07,1.19"/>
      </g>
      <g class="cls-9">
        <path class="cls-5" d="m320.06,21.52s.29.37.62.65c.31.28.65.48.83.57.27.14.59.18.99-.02.33-.11,1.48-.88,1.91-1.56.39-.62-.04-1.14-.07-1.19,0,0-.28-.37-.62-.65-.31-.27-.65-.48-.83-.57-.4-.21-.76-.07-.99.02-.33.12-1.48.89-1.91,1.57-.38.62.03,1.14.07,1.19"/>
      </g>
      <path class="cls-5" d="m328.2,13.11s.28.37.62.65c.31.28.65.48.82.57.27.15.59.19.99-.02.33-.11,1.48-.89,1.91-1.56.39-.62-.03-1.14-.07-1.19,0,0-.28-.37-.62-.65-.31-.28-.65-.48-.82-.57-.4-.21-.76-.07-.99.02-.32.12-1.48.89-1.91,1.56-.39.62.03,1.14.07,1.19"/>
      <path class="cls-5" d="m336.88,21.52s.28.37.62.65c.31.28.65.48.82.57.27.14.59.18.99-.02.33-.11,1.48-.88,1.9-1.56.39-.62-.03-1.14-.07-1.19,0,0-.28-.37-.62-.65-.31-.27-.65-.48-.82-.57-.4-.21-.76-.07-.99.02-.33.12-1.48.89-1.91,1.57-.38.62.03,1.14.07,1.19"/>
      <path class="cls-5" d="m345.28,13.11s.28.37.62.65c.31.28.65.48.83.57.27.15.59.19.99-.02.33-.11,1.48-.89,1.91-1.56.39-.62-.03-1.14-.07-1.19,0,0-.28-.37-.62-.65-.31-.28-.65-.48-.82-.57-.41-.21-.76-.07-.99.02-.33.12-1.48.89-1.91,1.56-.38.62.04,1.14.07,1.19"/>
      <path class="cls-5" d="m378.92,13.11s.28.37.62.65c.31.28.65.48.82.57.27.15.59.19.99-.02.33-.11,1.48-.89,1.9-1.56.39-.62-.03-1.14-.07-1.19,0,0-.29-.37-.62-.65-.31-.28-.65-.48-.83-.57-.4-.21-.76-.07-.99.02-.33.12-1.48.89-1.91,1.56-.39.62.04,1.14.07,1.19"/>
      <path class="cls-5" d="m362.1,13.11s.28.37.62.65c.31.28.65.48.83.57.26.15.59.19.99-.02.33-.11,1.48-.89,1.9-1.56.39-.62-.03-1.14-.07-1.19,0,0-.29-.37-.62-.65-.31-.28-.65-.48-.82-.57-.41-.21-.76-.07-.99.02-.33.12-1.48.89-1.91,1.56-.39.62.04,1.14.07,1.19"/>
      <path class="cls-5" d="m353.69,21.52s.28.37.62.65c.31.28.65.48.83.57.27.14.59.18.99-.02.33-.11,1.48-.88,1.91-1.56.39-.62-.03-1.14-.07-1.19,0,0-.28-.37-.62-.65-.31-.27-.65-.48-.82-.57-.4-.21-.76-.07-.99.02-.32.12-1.48.89-1.91,1.57-.39.62.03,1.14.07,1.19"/>
      <path class="cls-5" d="m370.51,21.52s.28.37.62.65c.31.28.65.48.82.57.27.14.59.18.99-.02.33-.11,1.48-.88,1.91-1.56.39-.62-.03-1.14-.07-1.19,0,0-.28-.37-.62-.65-.31-.27-.65-.48-.82-.57-.41-.21-.76-.07-.99.02-.33.12-1.48.89-1.91,1.57-.38.62.04,1.14.07,1.19"/>
      <path class="cls-5" d="m328.2,29.98s.28.36.62.65c.31.28.65.48.82.57.27.14.59.18.99-.02.33-.12,1.48-.89,1.91-1.56.39-.62-.03-1.14-.07-1.19,0,0-.28-.37-.62-.65-.31-.27-.65-.48-.82-.57-.4-.21-.76-.07-.99.02-.32.12-1.48.89-1.91,1.57-.39.62.03,1.14.07,1.19"/>
      <path class="cls-5" d="m345.28,29.98s.28.36.62.65c.31.28.65.48.83.57.27.14.59.18.99-.02.33-.12,1.48-.89,1.91-1.56.39-.62-.03-1.14-.07-1.19,0,0-.28-.37-.62-.65-.31-.27-.65-.48-.82-.57-.41-.21-.76-.07-.99.02-.33.12-1.48.89-1.91,1.57-.38.62.04,1.14.07,1.19"/>
      <path class="cls-5" d="m378.92,29.98s.28.36.62.65c.31.28.65.48.82.57.27.14.59.18.99-.02.33-.12,1.48-.89,1.9-1.56.39-.62-.03-1.14-.07-1.19,0,0-.29-.37-.62-.65-.31-.27-.65-.48-.83-.57-.4-.21-.76-.07-.99.02-.33.12-1.48.89-1.91,1.57-.39.62.04,1.14.07,1.19"/>
      <path class="cls-5" d="m378.92,29.96s.28.37.62.65c.31.28.65.48.82.57.27.15.59.18.99-.02.33-.11,1.48-.89,1.9-1.56.39-.62-.03-1.14-.07-1.19,0,0-.29-.37-.62-.65-.31-.28-.65-.48-.83-.57-.4-.21-.76-.07-.99.02-.33.12-1.48.89-1.91,1.56-.39.62.04,1.14.07,1.19"/>
      <g class="cls-11">
        <path class="cls-5" d="m378.92,46.83s.28.37.62.65c.31.28.65.48.82.57.27.14.59.18.99-.02.33-.11,1.48-.89,1.9-1.56.39-.62-.03-1.14-.07-1.19,0,0-.29-.37-.62-.65-.31-.27-.65-.48-.83-.57-.4-.21-.76-.07-.99.02-.33.12-1.48.89-1.91,1.57-.39.62.04,1.14.07,1.19"/>
      </g>
      <g class="cls-11">
        <path class="cls-5" d="m378.92,46.8s.28.37.62.65c.31.28.65.48.82.57.27.14.59.19.99-.02.33-.11,1.48-.89,1.9-1.57.39-.62-.03-1.14-.07-1.19,0,0-.29-.37-.62-.65-.31-.28-.65-.48-.83-.57-.4-.21-.76-.07-.99.02-.33.11-1.48.89-1.91,1.56-.39.62.04,1.14.07,1.19"/>
      </g>
      <g class="cls-8">
        <path class="cls-5" d="m378.92,63.67s.28.37.62.65c.31.28.65.48.82.57.27.14.59.18.99-.02.33-.11,1.48-.89,1.9-1.56.39-.62-.03-1.14-.07-1.19,0,0-.29-.37-.62-.65-.31-.27-.65-.48-.83-.57-.4-.21-.76-.07-.99.02-.33.12-1.48.89-1.91,1.56-.39.62.04,1.14.07,1.19"/>
      </g>
      <g class="cls-11">
        <path class="cls-5" d="m378.92,46.8s.28.37.62.65c.31.28.65.48.82.57.27.14.59.19.99-.02.33-.11,1.48-.89,1.9-1.57.39-.62-.03-1.14-.07-1.19,0,0-.29-.37-.62-.65-.31-.28-.65-.48-.83-.57-.4-.21-.76-.07-.99.02-.33.11-1.48.89-1.91,1.56-.39.62.04,1.14.07,1.19"/>
      </g>
      <g class="cls-8">
        <path class="cls-5" d="m378.92,63.67s.28.37.62.65c.31.28.65.48.82.57.27.14.59.18.99-.02.33-.11,1.48-.89,1.9-1.56.39-.62-.03-1.14-.07-1.19,0,0-.29-.37-.62-.65-.31-.27-.65-.48-.83-.57-.4-.21-.76-.07-.99.02-.33.12-1.48.89-1.91,1.56-.39.62.04,1.14.07,1.19"/>
      </g>
      <path class="cls-5" d="m362.1,46.8s.28.37.62.65c.31.28.65.48.82.57.27.14.59.19.99-.02.33-.11,1.48-.89,1.91-1.57.39-.62-.04-1.14-.07-1.19,0,0-.29-.37-.62-.65-.31-.28-.65-.48-.83-.57-.4-.21-.76-.07-.99.02-.33.11-1.48.89-1.91,1.56-.38.62.04,1.14.07,1.19"/>
      <path class="cls-6" d="m362.1,63.67s.28.37.62.65c.31.28.65.48.82.57.27.14.59.18.99-.02.33-.11,1.48-.89,1.91-1.56.39-.62-.04-1.14-.07-1.19,0,0-.29-.37-.62-.65-.31-.27-.65-.48-.83-.57-.4-.21-.76-.07-.99.02-.33.12-1.48.89-1.91,1.56-.38.62.04,1.14.07,1.19"/>
      <path class="cls-6" d="m378.92,80.52s.28.37.62.65c.31.28.65.48.82.57.27.14.59.18.99-.02.33-.11,1.48-.88,1.9-1.56.39-.62-.03-1.14-.07-1.19,0,0-.29-.37-.62-.65-.31-.27-.65-.47-.83-.57-.4-.21-.76-.07-.99.02-.33.12-1.48.89-1.91,1.57-.39.62.04,1.14.07,1.19"/>
      <path class="cls-5" d="m362.1,29.98s.28.36.62.65c.31.28.65.48.83.57.26.14.59.18.99-.02.33-.12,1.48-.89,1.9-1.56.39-.62-.03-1.14-.07-1.19,0,0-.29-.37-.62-.65-.31-.27-.65-.48-.82-.57-.41-.21-.76-.07-.99.02-.33.12-1.48.89-1.91,1.57-.39.62.04,1.14.07,1.19"/>
      <path class="cls-5" d="m370.51,38.39s.28.37.62.65c.31.28.65.48.82.57.27.14.59.18.99-.02.33-.11,1.48-.88,1.91-1.56.39-.62-.03-1.14-.07-1.19,0,0-.28-.37-.62-.65-.31-.28-.65-.48-.82-.57-.41-.21-.76-.07-.99.02-.33.12-1.48.89-1.91,1.56-.38.62.04,1.14.07,1.19"/>
      <path class="cls-5" d="m370.51,38.42s.28.37.62.65c.31.28.65.48.82.57.27.14.59.18.99-.02.33-.11,1.48-.89,1.91-1.56.39-.62-.03-1.14-.07-1.19,0,0-.28-.37-.62-.65-.31-.28-.65-.48-.82-.57-.41-.21-.76-.07-.99.01-.33.12-1.48.89-1.91,1.57-.38.62.04,1.14.07,1.19"/>
      <g class="cls-8">
        <path class="cls-5" d="m370.51,55.29s.28.36.62.65c.31.28.65.48.82.57.27.14.59.19.99-.02.33-.11,1.48-.89,1.91-1.56.39-.62-.03-1.14-.07-1.19,0,0-.28-.37-.62-.65-.31-.28-.65-.48-.82-.57-.41-.21-.76-.07-.99.02-.33.11-1.48.89-1.91,1.56-.38.62.04,1.14.07,1.19"/>
      </g>
      <g class="cls-8">
        <path class="cls-5" d="m370.51,55.32s.28.37.62.65c.31.27.65.48.82.57.27.14.59.18.99-.02.33-.12,1.48-.89,1.91-1.56.39-.62-.03-1.14-.07-1.19,0,0-.28-.37-.62-.65-.31-.28-.65-.48-.82-.57-.41-.21-.76-.07-.99.02-.33.12-1.48.89-1.91,1.57-.38.62.04,1.14.07,1.19"/>
      </g>
      <g class="cls-8">
        <path class="cls-5" d="m370.51,72.19s.28.36.62.65c.31.28.65.48.82.57.27.14.59.18.99-.02.33-.11,1.48-.89,1.91-1.56.39-.62-.03-1.14-.07-1.19,0,0-.28-.37-.62-.65-.31-.28-.65-.48-.82-.57-.41-.21-.76-.07-.99.02-.33.12-1.48.89-1.91,1.56-.38.62.04,1.14.07,1.19"/>
      </g>
      <g class="cls-9">
        <path class="cls-5" d="m320.06,89.01s.29.37.62.65c.31.28.65.48.83.57.27.14.59.18.99-.02.33-.12,1.48-.89,1.91-1.56.39-.62-.04-1.14-.07-1.19,0,0-.28-.37-.62-.65-.31-.28-.65-.48-.83-.57-.4-.21-.76-.07-.99.01-.33.12-1.48.89-1.91,1.57-.38.62.03,1.14.07,1.19"/>
      </g>
      <path class="cls-6" d="m328.2,80.6s.28.37.62.65c.31.28.65.48.82.57.27.14.59.18.99-.02.33-.11,1.48-.88,1.91-1.56.39-.62-.03-1.14-.07-1.19,0,0-.28-.37-.62-.65-.31-.28-.65-.48-.82-.57-.4-.21-.76-.07-.99.02-.32.12-1.48.88-1.91,1.56-.39.62.03,1.14.07,1.19"/>
      <path class="cls-5" d="m336.88,89.01s.28.37.62.65c.31.28.65.48.82.57.27.14.59.18.99-.02.33-.12,1.48-.89,1.9-1.56.39-.62-.03-1.14-.07-1.19,0,0-.28-.37-.62-.65-.31-.28-.65-.48-.82-.57-.4-.21-.76-.07-.99.01-.33.12-1.48.89-1.91,1.57-.38.62.03,1.14.07,1.19"/>
      <path class="cls-6" d="m345.28,80.6s.28.37.62.65c.31.28.65.48.83.57.27.14.59.18.99-.02.33-.11,1.48-.88,1.91-1.56.39-.62-.03-1.14-.07-1.19,0,0-.28-.37-.62-.65-.31-.28-.65-.48-.82-.57-.41-.21-.76-.07-.99.02-.33.12-1.48.88-1.91,1.56-.38.62.04,1.14.07,1.19"/>
      <path class="cls-6" d="m362.1,80.6s.28.37.62.65c.31.28.65.48.83.57.26.14.59.18.99-.02.33-.11,1.48-.88,1.9-1.56.39-.62-.03-1.14-.07-1.19,0,0-.29-.37-.62-.65-.31-.28-.65-.48-.82-.57-.41-.21-.76-.07-.99.02-.33.12-1.48.88-1.91,1.56-.39.62.04,1.14.07,1.19"/>
      <path class="cls-5" d="m353.69,89.01s.28.37.62.65c.31.28.65.48.83.57.27.14.59.18.99-.02.33-.12,1.48-.89,1.91-1.56.39-.62-.03-1.14-.07-1.19,0,0-.28-.37-.62-.65-.31-.28-.65-.48-.82-.57-.4-.21-.76-.07-.99.01-.32.12-1.48.89-1.91,1.57-.39.62.03,1.14.07,1.19"/>
      <path class="cls-5" d="m370.51,89.01s.28.37.62.65c.31.28.65.48.82.57.27.14.59.18.99-.02.33-.12,1.48-.89,1.91-1.56.39-.62-.03-1.14-.07-1.19,0,0-.28-.37-.62-.65-.31-.28-.65-.48-.82-.57-.41-.21-.76-.07-.99.01-.33.12-1.48.89-1.91,1.57-.38.62.04,1.14.07,1.19"/>
      <path class="cls-5" d="m328.2,97.47s.28.37.62.65c.31.27.65.48.82.57.27.14.59.18.99-.02.33-.11,1.48-.88,1.91-1.56.39-.62-.03-1.14-.07-1.19,0,0-.28-.37-.62-.65-.31-.27-.65-.48-.82-.57-.4-.21-.76-.07-.99.02-.32.11-1.48.88-1.91,1.56-.39.61.03,1.14.07,1.19"/>
      <path class="cls-5" d="m345.28,97.47s.28.37.62.65c.31.27.65.48.83.57.27.14.59.18.99-.02.33-.11,1.48-.88,1.91-1.56.39-.62-.03-1.14-.07-1.19,0,0-.28-.37-.62-.65-.31-.27-.65-.48-.82-.57-.41-.21-.76-.07-.99.02-.33.11-1.48.88-1.91,1.56-.38.61.04,1.14.07,1.19"/>
      <path class="cls-5" d="m378.92,97.47s.28.37.62.65c.31.27.65.48.82.57.27.14.59.18.99-.02.33-.11,1.48-.88,1.9-1.56.39-.62-.03-1.14-.07-1.19,0,0-.29-.37-.62-.65-.31-.27-.65-.48-.83-.57-.4-.21-.76-.07-.99.02-.33.11-1.48.88-1.91,1.56-.39.61.04,1.14.07,1.19"/>
      <path class="cls-5" d="m362.1,97.47s.28.37.62.65c.31.27.65.48.83.57.26.14.59.18.99-.02.33-.11,1.48-.88,1.9-1.56.39-.62-.03-1.14-.07-1.19,0,0-.29-.37-.62-.65-.31-.27-.65-.48-.82-.57-.41-.21-.76-.07-.99.02-.33.11-1.48.88-1.91,1.56-.39.61.04,1.14.07,1.19"/>
      <path class="cls-5" d="m412.3,13.11s.28.37.62.65c.31.28.65.48.82.57.27.15.59.19.99-.02.33-.11,1.48-.89,1.91-1.56.38-.62-.04-1.14-.07-1.19,0,0-.28-.37-.62-.65-.31-.28-.65-.48-.83-.57-.4-.21-.76-.07-.99.02-.33.12-1.48.89-1.91,1.56-.38.62.04,1.14.07,1.19"/>
      <path class="cls-5" d="m395.48,13.11s.28.37.62.65c.31.28.65.48.83.57.27.15.59.19.99-.02.33-.11,1.48-.89,1.91-1.56.39-.62-.03-1.14-.07-1.19,0,0-.28-.37-.62-.65-.31-.28-.65-.48-.82-.57-.41-.21-.76-.07-.99.02-.33.12-1.48.89-1.91,1.56-.39.62.03,1.14.07,1.19"/>
      <path class="cls-5" d="m387.08,21.52s.28.37.62.65c.31.28.65.48.82.57.27.14.59.18.99-.02.33-.11,1.48-.88,1.91-1.56.39-.62-.03-1.14-.07-1.19,0,0-.28-.37-.62-.65-.31-.27-.65-.48-.83-.57-.4-.21-.76-.07-.99.02-.33.12-1.48.89-1.91,1.57-.38.62.03,1.14.07,1.19"/>
      <path class="cls-5" d="m403.89,21.52s.29.37.62.65c.31.28.65.48.82.57.27.14.59.18.99-.02.33-.11,1.48-.88,1.91-1.56.39-.62-.03-1.14-.07-1.19,0,0-.29-.37-.62-.65-.31-.27-.65-.48-.83-.57-.4-.21-.76-.07-.99.02-.33.12-1.48.89-1.91,1.57-.38.62.04,1.14.07,1.19"/>
      <g class="cls-9">
        <path class="cls-5" d="m302.93,2.88s.29.37.62.65c.31.28.65.48.83.57.27.14.59.18.99-.02.33-.11,1.48-.88,1.91-1.56.39-.62-.04-1.14-.07-1.19,0,0-.28-.37-.62-.65-.31-.27-.65-.48-.83-.57-.41-.21-.76-.07-.99.02-.33.12-1.49.89-1.91,1.57-.39.62.03,1.14.07,1.19"/>
      </g>
      <g class="cls-9">
        <path class="cls-5" d="m320.06,2.88s.29.37.62.65c.31.28.65.48.83.57.27.14.59.18.99-.02.33-.11,1.48-.88,1.91-1.56.39-.62-.04-1.14-.07-1.19,0,0-.28-.37-.62-.65-.31-.27-.65-.48-.83-.57-.4-.21-.76-.07-.99.02-.33.12-1.48.89-1.91,1.57-.38.62.03,1.14.07,1.19"/>
      </g>
      <path class="cls-5" d="m336.88,2.88s.28.37.62.65c.31.28.65.48.82.57.27.14.59.18.99-.02.33-.11,1.48-.88,1.9-1.56.39-.62-.03-1.14-.07-1.19,0,0-.28-.37-.62-.65-.31-.27-.65-.48-.82-.57-.4-.21-.76-.07-.99.02-.33.12-1.48.89-1.91,1.57-.38.62.03,1.14.07,1.19"/>
      <path class="cls-5" d="m353.69,2.88s.28.37.62.65c.31.28.65.48.83.57.27.14.59.18.99-.02.33-.11,1.48-.88,1.91-1.56.39-.62-.03-1.14-.07-1.19,0,0-.28-.37-.62-.65-.31-.27-.65-.48-.82-.57-.4-.21-.76-.07-.99.02-.32.12-1.48.89-1.91,1.57-.39.62.03,1.14.07,1.19"/>
      <path class="cls-5" d="m370.51,2.88s.28.37.62.65c.31.28.65.48.82.57.27.14.59.18.99-.02.33-.11,1.48-.88,1.91-1.56.39-.62-.03-1.14-.07-1.19,0,0-.28-.37-.62-.65-.31-.27-.65-.48-.82-.57-.41-.21-.76-.07-.99.02-.33.12-1.48.89-1.91,1.57-.38.62.04,1.14.07,1.19"/>
      <path class="cls-5" d="m387.08,2.88s.28.37.62.65c.31.28.65.48.82.57.27.14.59.18.99-.02.33-.11,1.48-.88,1.91-1.56.39-.62-.03-1.14-.07-1.19,0,0-.28-.37-.62-.65-.31-.27-.65-.48-.83-.57-.4-.21-.76-.07-.99.02-.33.12-1.48.89-1.91,1.57-.38.62.03,1.14.07,1.19"/>
      <path class="cls-5" d="m403.89,2.88s.29.37.62.65c.31.28.65.48.82.57.27.14.59.18.99-.02.33-.11,1.48-.88,1.91-1.56.39-.62-.03-1.14-.07-1.19,0,0-.29-.37-.62-.65-.31-.27-.65-.48-.83-.57-.4-.21-.76-.07-.99.02-.33.12-1.48.89-1.91,1.57-.38.62.04,1.14.07,1.19"/>
      <g class="cls-10">
        <path class="cls-5" d="m412.3,29.98s.28.36.62.65c.31.28.65.48.82.57.27.14.59.18.99-.02.33-.12,1.48-.89,1.91-1.56.38-.62-.04-1.14-.07-1.19,0,0-.28-.37-.62-.65-.31-.27-.65-.48-.83-.57-.4-.21-.76-.07-.99.02-.33.12-1.48.89-1.91,1.57-.38.62.04,1.14.07,1.19"/>
      </g>
      <g class="cls-10">
        <path class="cls-5" d="m412.3,29.96s.28.37.62.65c.31.28.65.48.82.57.27.15.59.18.99-.02.33-.11,1.48-.89,1.91-1.56.38-.62-.04-1.14-.07-1.19,0,0-.28-.37-.62-.65-.31-.28-.65-.48-.83-.57-.4-.21-.76-.07-.99.02-.33.12-1.48.89-1.91,1.56-.38.62.04,1.14.07,1.19"/>
      </g>
      <g class="cls-10">
        <path class="cls-5" d="m412.3,46.83s.28.37.62.65c.31.28.65.48.82.57.27.14.59.18.99-.02.33-.11,1.48-.89,1.91-1.56.38-.62-.04-1.14-.07-1.19,0,0-.28-.37-.62-.65-.31-.27-.65-.48-.83-.57-.4-.21-.76-.07-.99.02-.33.12-1.48.89-1.91,1.57-.38.62.04,1.14.07,1.19"/>
      </g>
      <g class="cls-10">
        <path class="cls-5" d="m412.3,46.8s.28.37.62.65c.31.28.65.48.82.57.27.14.59.19.99-.02.33-.11,1.48-.89,1.91-1.57.38-.62-.04-1.14-.07-1.19,0,0-.28-.37-.62-.65-.31-.28-.65-.48-.83-.57-.4-.21-.76-.07-.99.02-.33.11-1.48.89-1.91,1.56-.38.62.04,1.14.07,1.19"/>
      </g>
      <g class="cls-8">
        <path class="cls-5" d="m412.3,63.67s.28.37.62.65c.31.28.65.48.82.57.27.14.59.18.99-.02.33-.11,1.48-.89,1.91-1.56.38-.62-.04-1.14-.07-1.19,0,0-.28-.37-.62-.65-.31-.27-.65-.48-.83-.57-.4-.21-.76-.07-.99.02-.33.12-1.48.89-1.91,1.56-.38.62.04,1.14.07,1.19"/>
      </g>
      <g class="cls-8">
        <path class="cls-5" d="m412.3,63.67s.28.37.62.65c.31.28.65.48.82.57.27.14.59.18.99-.02.33-.11,1.48-.89,1.91-1.56.38-.62-.04-1.14-.07-1.19,0,0-.28-.37-.62-.65-.31-.27-.65-.48-.83-.57-.4-.21-.76-.07-.99.02-.33.12-1.48.89-1.91,1.56-.38.62.04,1.14.07,1.19"/>
      </g>
      <g class="cls-11">
        <path class="cls-5" d="m395.48,46.8s.29.37.62.65c.31.28.65.48.82.57.27.14.59.19.99-.02.33-.11,1.48-.89,1.91-1.57.39-.62-.03-1.14-.07-1.19,0,0-.28-.37-.62-.65-.31-.28-.65-.48-.82-.57-.4-.21-.76-.07-.99.02-.33.11-1.48.89-1.91,1.56-.38.62.04,1.14.07,1.19"/>
      </g>
      <g class="cls-8">
        <path class="cls-3" d="m395.48,63.67s.29.37.62.65c.31.28.65.48.82.57.27.14.59.18.99-.02.33-.11,1.48-.89,1.91-1.56.39-.62-.03-1.14-.07-1.19,0,0-.28-.37-.62-.65-.31-.27-.65-.48-.82-.57-.4-.21-.76-.07-.99.02-.33.12-1.48.89-1.91,1.56-.38.62.04,1.14.07,1.19"/>
      </g>
      <path class="cls-6" d="m412.3,80.52s.28.37.62.65c.31.28.65.48.82.57.27.14.59.18.99-.02.33-.11,1.48-.88,1.91-1.56.38-.62-.04-1.14-.07-1.19,0,0-.28-.37-.62-.65-.31-.27-.65-.47-.83-.57-.4-.21-.76-.07-.99.02-.33.12-1.48.89-1.91,1.57-.38.62.04,1.14.07,1.19"/>
      <path class="cls-5" d="m395.48,29.98s.28.36.62.65c.31.28.65.48.83.57.27.14.59.18.99-.02.33-.12,1.48-.89,1.91-1.56.39-.62-.03-1.14-.07-1.19,0,0-.28-.37-.62-.65-.31-.27-.65-.48-.82-.57-.41-.21-.76-.07-.99.02-.33.12-1.48.89-1.91,1.57-.39.62.03,1.14.07,1.19"/>
      <path class="cls-5" d="m387.08,38.39s.28.37.62.65c.31.28.65.48.82.57.27.14.59.18.99-.02.33-.11,1.48-.88,1.91-1.56.39-.62-.03-1.14-.07-1.19,0,0-.28-.37-.62-.65-.31-.28-.65-.48-.83-.57-.4-.21-.76-.07-.99.02-.33.12-1.48.89-1.91,1.56-.38.62.03,1.14.07,1.19"/>
      <g class="cls-10">
        <path class="cls-5" d="m403.89,38.39s.29.37.62.65c.31.28.65.48.82.57.27.14.59.18.99-.02.33-.11,1.48-.88,1.91-1.56.39-.62-.03-1.14-.07-1.19,0,0-.29-.37-.62-.65-.31-.28-.65-.48-.83-.57-.4-.21-.76-.07-.99.02-.33.12-1.48.89-1.91,1.56-.38.62.04,1.14.07,1.19"/>
      </g>
      <g class="cls-10">
        <path class="cls-5" d="m403.89,38.42s.29.37.62.65c.31.28.65.48.82.57.27.14.59.18.99-.02.33-.11,1.48-.89,1.91-1.56.39-.62-.03-1.14-.07-1.19,0,0-.29-.37-.62-.65-.31-.28-.65-.48-.83-.57-.4-.21-.76-.07-.99.01-.33.12-1.48.89-1.91,1.57-.38.62.04,1.14.07,1.19"/>
      </g>
      <g class="cls-8">
        <path class="cls-5" d="m403.89,55.29s.29.36.62.65c.31.28.65.48.82.57.27.14.59.19.99-.02.33-.11,1.48-.89,1.91-1.56.39-.62-.03-1.14-.07-1.19,0,0-.29-.37-.62-.65-.31-.28-.65-.48-.83-.57-.4-.21-.76-.07-.99.02-.33.11-1.48.89-1.91,1.56-.38.62.04,1.14.07,1.19"/>
      </g>
      <g class="cls-8">
        <path class="cls-5" d="m403.89,55.32s.29.37.62.65c.31.27.65.48.82.57.27.14.59.18.99-.02.33-.12,1.48-.89,1.91-1.56.39-.62-.03-1.14-.07-1.19,0,0-.29-.37-.62-.65-.31-.28-.65-.48-.83-.57-.4-.21-.76-.07-.99.02-.33.12-1.48.89-1.91,1.57-.38.62.04,1.14.07,1.19"/>
      </g>
      <g class="cls-8">
        <path class="cls-3" d="m403.89,72.19s.29.36.62.65c.31.28.65.48.82.57.27.14.59.18.99-.02.33-.11,1.48-.89,1.91-1.56.39-.62-.03-1.14-.07-1.19,0,0-.29-.37-.62-.65-.31-.28-.65-.48-.83-.57-.4-.21-.76-.07-.99.02-.33.12-1.48.89-1.91,1.56-.38.62.04,1.14.07,1.19"/>
      </g>
      <g class="cls-7">
        <path class="cls-5" d="m387.08,55.26s.28.37.62.65c.31.28.65.48.82.57.27.14.59.19.99-.02.33-.11,1.48-.89,1.91-1.56.39-.62-.03-1.14-.07-1.19,0,0-.28-.37-.62-.65-.31-.28-.65-.48-.83-.57-.4-.21-.76-.07-.99.01-.33.12-1.48.89-1.91,1.57-.38.62.03,1.14.07,1.19"/>
      </g>
      <g class="cls-8">
        <path class="cls-3" d="m387.08,72.14s.28.36.62.65c.31.28.65.48.82.57.27.14.59.18.99-.02.33-.12,1.48-.89,1.91-1.56.39-.62-.03-1.14-.07-1.19,0,0-.28-.36-.62-.65-.31-.27-.65-.48-.83-.57-.4-.21-.76-.07-.99.02-.33.12-1.48.89-1.91,1.57-.38.62.03,1.14.07,1.19"/>
      </g>
      <path class="cls-5" d="m328.15,46.83s.28.37.62.65c.31.28.65.48.82.57.27.14.59.18.99-.02.33-.11,1.48-.89,1.91-1.56.39-.62-.04-1.14-.07-1.19,0,0-.28-.37-.62-.65-.31-.27-.65-.48-.83-.57-.4-.21-.76-.07-.99.02-.33.12-1.48.89-1.91,1.57-.38.62.04,1.14.07,1.19"/>
      <path class="cls-5" d="m328.15,46.8s.28.37.62.65c.31.28.65.48.82.57.27.14.59.19.99-.02.33-.11,1.48-.89,1.91-1.57.39-.62-.04-1.14-.07-1.19,0,0-.28-.37-.62-.65-.31-.28-.65-.48-.83-.57-.4-.21-.76-.07-.99.02-.33.11-1.48.89-1.91,1.56-.38.62.04,1.14.07,1.19"/>
      <path class="cls-6" d="m328.15,63.67s.28.37.62.65c.31.28.65.48.82.57.27.14.59.18.99-.02.33-.11,1.48-.89,1.91-1.56.39-.62-.04-1.14-.07-1.19,0,0-.28-.37-.62-.65-.31-.27-.65-.48-.83-.57-.4-.21-.76-.07-.99.02-.33.12-1.48.89-1.91,1.56-.38.62.04,1.14.07,1.19"/>
      <path class="cls-5" d="m328.15,46.8s.28.37.62.65c.31.28.65.48.82.57.27.14.59.19.99-.02.33-.11,1.48-.89,1.91-1.57.39-.62-.04-1.14-.07-1.19,0,0-.28-.37-.62-.65-.31-.28-.65-.48-.83-.57-.4-.21-.76-.07-.99.02-.33.11-1.48.89-1.91,1.56-.38.62.04,1.14.07,1.19"/>
      <path class="cls-6" d="m328.15,63.67s.28.37.62.65c.31.28.65.48.82.57.27.14.59.18.99-.02.33-.11,1.48-.89,1.91-1.56.39-.62-.04-1.14-.07-1.19,0,0-.28-.37-.62-.65-.31-.27-.65-.48-.83-.57-.4-.21-.76-.07-.99.02-.33.12-1.48.89-1.91,1.56-.38.62.04,1.14.07,1.19"/>
      <path class="cls-5" d="m311.34,46.8s.28.37.62.65c.31.28.65.48.82.57.27.14.59.19.99-.02.33-.11,1.48-.89,1.91-1.57.39-.62-.03-1.14-.07-1.19,0,0-.28-.37-.62-.65-.31-.28-.65-.48-.83-.57-.4-.21-.76-.07-.99.02-.33.11-1.48.89-1.91,1.56-.38.62.04,1.14.07,1.19"/>
      <path class="cls-6" d="m311.34,63.67s.28.37.62.65c.31.28.65.48.82.57.27.14.59.18.99-.02.33-.11,1.48-.89,1.91-1.56.39-.62-.03-1.14-.07-1.19,0,0-.28-.37-.62-.65-.31-.27-.65-.48-.83-.57-.4-.21-.76-.07-.99.02-.33.12-1.48.89-1.91,1.56-.38.62.04,1.14.07,1.19"/>
      <path class="cls-5" d="m319.74,38.39s.28.37.62.65c.31.28.65.48.82.57.27.14.59.18.99-.02.33-.11,1.48-.88,1.91-1.56.39-.62-.03-1.14-.07-1.19,0,0-.29-.37-.62-.65-.31-.28-.65-.48-.83-.57-.41-.21-.76-.07-.99.02-.33.12-1.48.89-1.91,1.56-.38.62.03,1.14.07,1.19"/>
      <path class="cls-5" d="m319.74,38.42s.28.37.62.65c.31.28.65.48.82.57.27.14.59.18.99-.02.33-.11,1.48-.89,1.91-1.56.39-.62-.03-1.14-.07-1.19,0,0-.29-.37-.62-.65-.31-.28-.65-.48-.83-.57-.41-.21-.76-.07-.99.01-.33.12-1.48.89-1.91,1.57-.38.62.03,1.14.07,1.19"/>
      <path class="cls-6" d="m319.74,55.29s.28.36.62.65c.31.28.65.48.82.57.27.14.59.19.99-.02.33-.11,1.48-.89,1.91-1.56.39-.62-.03-1.14-.07-1.19,0,0-.29-.37-.62-.65-.31-.28-.65-.48-.83-.57-.41-.21-.76-.07-.99.02-.33.11-1.48.89-1.91,1.56-.38.62.03,1.14.07,1.19"/>
      <path class="cls-6" d="m319.74,55.32s.28.37.62.65c.31.27.65.48.82.57.27.14.59.18.99-.02.33-.12,1.48-.89,1.91-1.56.39-.62-.03-1.14-.07-1.19,0,0-.29-.37-.62-.65-.31-.28-.65-.48-.83-.57-.41-.21-.76-.07-.99.02-.33.12-1.48.89-1.91,1.57-.38.62.03,1.14.07,1.19"/>
      <path class="cls-6" d="m319.74,72.19s.28.36.62.65c.31.28.65.48.82.57.27.14.59.18.99-.02.33-.11,1.48-.89,1.91-1.56.39-.62-.03-1.14-.07-1.19,0,0-.29-.37-.62-.65-.31-.28-.65-.48-.83-.57-.41-.21-.76-.07-.99.02-.33.12-1.48.89-1.91,1.56-.38.62.03,1.14.07,1.19"/>
      <path class="cls-5" d="m344.72,46.8s.28.37.62.65c.31.28.65.48.82.57.27.14.59.19.99-.02.33-.11,1.48-.89,1.9-1.57.39-.62-.03-1.14-.07-1.19,0,0-.28-.37-.62-.65-.31-.28-.65-.48-.83-.57-.4-.21-.76-.07-.99.02-.33.11-1.48.89-1.91,1.56-.38.62.04,1.14.07,1.19"/>
      <path class="cls-6" d="m344.72,63.67s.28.37.62.65c.31.28.65.48.82.57.27.14.59.18.99-.02.33-.11,1.48-.89,1.9-1.56.39-.62-.03-1.14-.07-1.19,0,0-.28-.37-.62-.65-.31-.27-.65-.48-.83-.57-.4-.21-.76-.07-.99.02-.33.12-1.48.89-1.91,1.56-.38.62.04,1.14.07,1.19"/>
      <path class="cls-5" d="m336.31,38.39s.28.37.62.65c.31.28.65.48.82.57.27.14.59.18.99-.02.33-.11,1.48-.88,1.91-1.56.39-.62-.04-1.14-.07-1.19,0,0-.28-.37-.62-.65-.31-.28-.65-.48-.83-.57-.4-.21-.76-.07-.99.02-.33.12-1.48.89-1.91,1.56-.38.62.03,1.14.07,1.19"/>
      <path class="cls-5" d="m353.13,38.39s.28.37.62.65c.31.28.65.48.82.57.27.14.59.18.99-.02.33-.11,1.48-.88,1.91-1.56.39-.62-.04-1.14-.07-1.19,0,0-.29-.37-.62-.65-.31-.28-.65-.48-.83-.57-.4-.21-.76-.07-.99.02-.33.12-1.48.89-1.91,1.56-.38.62.04,1.14.07,1.19"/>
      <path class="cls-5" d="m353.13,38.42s.28.37.62.65c.31.28.65.48.82.57.27.14.59.18.99-.02.33-.11,1.48-.89,1.91-1.56.39-.62-.04-1.14-.07-1.19,0,0-.29-.37-.62-.65-.31-.28-.65-.48-.83-.57-.4-.21-.76-.07-.99.01-.33.12-1.48.89-1.91,1.57-.38.62.04,1.14.07,1.19"/>
      <path class="cls-6" d="m353.13,55.29s.28.36.62.65c.31.28.65.48.82.57.27.14.59.19.99-.02.33-.11,1.48-.89,1.91-1.56.39-.62-.04-1.14-.07-1.19,0,0-.29-.37-.62-.65-.31-.28-.65-.48-.83-.57-.4-.21-.76-.07-.99.02-.33.11-1.48.89-1.91,1.56-.38.62.04,1.14.07,1.19"/>
      <path class="cls-6" d="m353.13,55.32s.28.37.62.65c.31.27.65.48.82.57.27.14.59.18.99-.02.33-.12,1.48-.89,1.91-1.56.39-.62-.04-1.14-.07-1.19,0,0-.29-.37-.62-.65-.31-.28-.65-.48-.83-.57-.4-.21-.76-.07-.99.02-.33.12-1.48.89-1.91,1.57-.38.62.04,1.14.07,1.19"/>
      <path class="cls-6" d="m353.13,72.19s.28.36.62.65c.31.28.65.48.82.57.27.14.59.18.99-.02.33-.11,1.48-.89,1.91-1.56.39-.62-.04-1.14-.07-1.19,0,0-.29-.37-.62-.65-.31-.28-.65-.48-.83-.57-.4-.21-.76-.07-.99.02-.33.12-1.48.89-1.91,1.56-.38.62.04,1.14.07,1.19"/>
      <path class="cls-6" d="m336.31,55.26s.28.37.62.65c.31.28.65.48.82.57.27.14.59.19.99-.02.33-.11,1.48-.89,1.91-1.56.39-.62-.04-1.14-.07-1.19,0,0-.28-.37-.62-.65-.31-.28-.65-.48-.83-.57-.4-.21-.76-.07-.99.01-.33.12-1.48.89-1.91,1.57-.38.62.03,1.14.07,1.19"/>
      <path class="cls-6" d="m336.31,72.14s.28.36.62.65c.31.28.65.48.82.57.27.14.59.18.99-.02.33-.12,1.48-.89,1.91-1.56.39-.62-.04-1.14-.07-1.19,0,0-.28-.36-.62-.65-.31-.27-.65-.48-.83-.57-.4-.21-.76-.07-.99.02-.33.12-1.48.89-1.91,1.57-.38.62.03,1.14.07,1.19"/>
      <path class="cls-5" d="m277.71,46.83s.28.37.62.65c.31.28.65.48.82.57.27.14.59.18.99-.02.33-.11,1.48-.89,1.91-1.56.39-.62-.04-1.14-.07-1.19,0,0-.28-.37-.62-.65-.31-.27-.65-.48-.83-.57-.4-.21-.76-.07-.99.02-.33.12-1.48.89-1.91,1.57-.38.62.04,1.14.07,1.19"/>
      <path class="cls-5" d="m277.71,46.8s.28.37.62.65c.31.28.65.48.82.57.27.14.59.19.99-.02.33-.11,1.48-.89,1.91-1.57.39-.62-.04-1.14-.07-1.19,0,0-.28-.37-.62-.65-.31-.28-.65-.48-.83-.57-.4-.21-.76-.07-.99.02-.33.11-1.48.89-1.91,1.56-.38.62.04,1.14.07,1.19"/>
      <path class="cls-6" d="m277.71,63.67s.28.37.62.65c.31.28.65.48.82.57.27.14.59.18.99-.02.33-.11,1.48-.89,1.91-1.56.39-.62-.04-1.14-.07-1.19,0,0-.28-.37-.62-.65-.31-.27-.65-.48-.83-.57-.4-.21-.76-.07-.99.02-.33.12-1.48.89-1.91,1.56-.38.62.04,1.14.07,1.19"/>
      <path class="cls-5" d="m277.71,46.8s.28.37.62.65c.31.28.65.48.82.57.27.14.59.19.99-.02.33-.11,1.48-.89,1.91-1.57.39-.62-.04-1.14-.07-1.19,0,0-.28-.37-.62-.65-.31-.28-.65-.48-.83-.57-.4-.21-.76-.07-.99.02-.33.11-1.48.89-1.91,1.56-.38.62.04,1.14.07,1.19"/>
      <path class="cls-6" d="m277.71,63.67s.28.37.62.65c.31.28.65.48.82.57.27.14.59.18.99-.02.33-.11,1.48-.89,1.91-1.56.39-.62-.04-1.14-.07-1.19,0,0-.28-.37-.62-.65-.31-.27-.65-.48-.83-.57-.4-.21-.76-.07-.99.02-.33.12-1.48.89-1.91,1.56-.38.62.04,1.14.07,1.19"/>
      <path class="cls-5" d="m260.89,46.8s.28.37.62.65c.31.28.65.48.82.57.27.14.59.19.99-.02.33-.11,1.48-.89,1.91-1.57.39-.62-.03-1.14-.07-1.19,0,0-.28-.37-.62-.65-.31-.28-.65-.48-.83-.57-.4-.21-.76-.07-.99.02-.33.11-1.48.89-1.91,1.56-.38.62.04,1.14.07,1.19"/>
      <path class="cls-6" d="m260.89,63.67s.28.37.62.65c.31.28.65.48.82.57.27.14.59.18.99-.02.33-.11,1.48-.89,1.91-1.56.39-.62-.03-1.14-.07-1.19,0,0-.28-.37-.62-.65-.31-.27-.65-.48-.83-.57-.4-.21-.76-.07-.99.02-.33.12-1.48.89-1.91,1.56-.38.62.04,1.14.07,1.19"/>
      <path class="cls-5" d="m269.3,38.39s.28.37.62.65c.31.28.65.48.82.57.27.14.59.18.99-.02.33-.11,1.48-.88,1.91-1.56.39-.62-.03-1.14-.07-1.19,0,0-.29-.37-.62-.65-.31-.28-.65-.48-.83-.57-.41-.21-.76-.07-.99.02-.33.12-1.48.89-1.91,1.56-.38.62.03,1.14.07,1.19"/>
      <path class="cls-5" d="m269.3,38.42s.28.37.62.65c.31.28.65.48.82.57.27.14.59.18.99-.02.33-.11,1.48-.89,1.91-1.56.39-.62-.03-1.14-.07-1.19,0,0-.29-.37-.62-.65-.31-.28-.65-.48-.83-.57-.41-.21-.76-.07-.99.01-.33.12-1.48.89-1.91,1.57-.38.62.03,1.14.07,1.19"/>
      <path class="cls-6" d="m269.3,55.26s.28.37.62.65c.31.28.65.48.82.57.27.14.59.18.99-.02.33-.11,1.48-.89,1.91-1.56.39-.62-.03-1.14-.07-1.19,0,0-.29-.37-.62-.65-.31-.28-.65-.48-.83-.57-.41-.21-.76-.07-.99.01-.33.12-1.48.89-1.91,1.57-.38.62.03,1.14.07,1.19"/>
      <path class="cls-6" d="m269.3,72.19s.28.36.62.65c.31.28.65.48.82.57.27.14.59.18.99-.02.33-.11,1.48-.89,1.91-1.56.39-.62-.03-1.14-.07-1.19,0,0-.29-.37-.62-.65-.31-.28-.65-.48-.83-.57-.41-.21-.76-.07-.99.02-.33.12-1.48.89-1.91,1.56-.38.62.03,1.14.07,1.19"/>
      <path class="cls-5" d="m294.28,46.8s.28.37.62.65c.31.28.65.48.82.57.27.14.59.19.99-.02.33-.11,1.48-.89,1.9-1.57.39-.62-.03-1.14-.07-1.19,0,0-.28-.37-.62-.65-.31-.28-.65-.48-.83-.57-.4-.21-.76-.07-.99.02-.33.11-1.48.89-1.91,1.56-.38.62.04,1.14.07,1.19"/>
      <path class="cls-6" d="m294.28,63.67s.28.37.62.65c.31.28.65.48.82.57.27.14.59.18.99-.02.33-.11,1.48-.89,1.9-1.56.39-.62-.03-1.14-.07-1.19,0,0-.28-.37-.62-.65-.31-.27-.65-.48-.83-.57-.4-.21-.76-.07-.99.02-.33.12-1.48.89-1.91,1.56-.38.62.04,1.14.07,1.19"/>
      <path class="cls-5" d="m285.87,38.39s.28.37.62.65c.31.28.65.48.82.57.27.14.59.18.99-.02.33-.11,1.48-.88,1.91-1.56.39-.62-.04-1.14-.07-1.19,0,0-.28-.37-.62-.65-.31-.28-.65-.48-.83-.57-.4-.21-.76-.07-.99.02-.33.12-1.48.89-1.91,1.56-.38.62.03,1.14.07,1.19"/>
      <path class="cls-5" d="m302.68,38.39s.28.37.62.65c.31.28.65.48.82.57.27.14.59.18.99-.02.33-.11,1.48-.88,1.91-1.56.39-.62-.04-1.14-.07-1.19,0,0-.29-.37-.62-.65-.31-.28-.65-.48-.83-.57-.4-.21-.76-.07-.99.02-.33.12-1.48.89-1.91,1.56-.38.62.04,1.14.07,1.19"/>
      <path class="cls-5" d="m302.68,38.42s.28.37.62.65c.31.28.65.48.82.57.27.14.59.18.99-.02.33-.11,1.48-.89,1.91-1.56.39-.62-.04-1.14-.07-1.19,0,0-.29-.37-.62-.65-.31-.28-.65-.48-.83-.57-.4-.21-.76-.07-.99.01-.33.12-1.48.89-1.91,1.57-.38.62.04,1.14.07,1.19"/>
      <path class="cls-6" d="m302.68,55.29s.28.36.62.65c.31.28.65.48.82.57.27.14.59.19.99-.02.33-.11,1.48-.89,1.91-1.56.39-.62-.04-1.14-.07-1.19,0,0-.29-.37-.62-.65-.31-.28-.65-.48-.83-.57-.4-.21-.76-.07-.99.02-.33.11-1.48.89-1.91,1.56-.38.62.04,1.14.07,1.19"/>
      <path class="cls-6" d="m302.68,55.32s.28.37.62.65c.31.27.65.48.82.57.27.14.59.18.99-.02.33-.12,1.48-.89,1.91-1.56.39-.62-.04-1.14-.07-1.19,0,0-.29-.37-.62-.65-.31-.28-.65-.48-.83-.57-.4-.21-.76-.07-.99.02-.33.12-1.48.89-1.91,1.57-.38.62.04,1.14.07,1.19"/>
      <path class="cls-6" d="m302.68,72.19s.28.36.62.65c.31.28.65.48.82.57.27.14.59.18.99-.02.33-.11,1.48-.89,1.91-1.56.39-.62-.04-1.14-.07-1.19,0,0-.29-.37-.62-.65-.31-.28-.65-.48-.83-.57-.4-.21-.76-.07-.99.02-.33.12-1.48.89-1.91,1.56-.38.62.04,1.14.07,1.19"/>
      <path class="cls-6" d="m285.87,55.26s.28.37.62.65c.31.28.65.48.82.57.27.14.59.19.99-.02.33-.11,1.48-.89,1.91-1.56.39-.62-.04-1.14-.07-1.19,0,0-.28-.37-.62-.65-.31-.28-.65-.48-.83-.57-.4-.21-.76-.07-.99.01-.33.12-1.48.89-1.91,1.57-.38.62.03,1.14.07,1.19"/>
      <path class="cls-6" d="m285.87,72.14s.28.36.62.65c.31.28.65.48.82.57.27.14.59.18.99-.02.33-.12,1.48-.89,1.91-1.56.39-.62-.04-1.14-.07-1.19,0,0-.28-.36-.62-.65-.31-.27-.65-.48-.83-.57-.4-.21-.76-.07-.99.02-.33.12-1.48.89-1.91,1.57-.38.62.03,1.14.07,1.19"/>
      <path class="cls-5" d="m244.06,46.83s.28.37.62.65c.31.28.65.48.82.57.27.14.59.18.99-.02.33-.11,1.48-.89,1.9-1.56.39-.62-.03-1.14-.07-1.19,0,0-.29-.37-.62-.65-.31-.27-.65-.48-.83-.57-.4-.21-.76-.07-.99.02-.33.12-1.48.89-1.91,1.57-.39.62.04,1.14.07,1.19"/>
      <path class="cls-5" d="m244.06,46.8s.28.37.62.65c.31.28.65.48.82.57.27.14.59.19.99-.02.33-.11,1.48-.89,1.9-1.57.39-.62-.03-1.14-.07-1.19,0,0-.29-.37-.62-.65-.31-.28-.65-.48-.83-.57-.4-.21-.76-.07-.99.02-.33.11-1.48.89-1.91,1.56-.39.62.04,1.14.07,1.19"/>
      <path class="cls-6" d="m244.06,63.67s.28.37.62.65c.31.28.65.48.82.57.27.14.59.18.99-.02.33-.11,1.48-.89,1.9-1.56.39-.62-.03-1.14-.07-1.19,0,0-.29-.37-.62-.65-.31-.27-.65-.48-.83-.57-.4-.21-.76-.07-.99.02-.33.12-1.48.89-1.91,1.56-.39.62.04,1.14.07,1.19"/>
      <path class="cls-5" d="m244.06,46.8s.28.37.62.65c.31.28.65.48.82.57.27.14.59.19.99-.02.33-.11,1.48-.89,1.9-1.57.39-.62-.03-1.14-.07-1.19,0,0-.29-.37-.62-.65-.31-.28-.65-.48-.83-.57-.4-.21-.76-.07-.99.02-.33.11-1.48.89-1.91,1.56-.39.62.04,1.14.07,1.19"/>
      <path class="cls-6" d="m244.06,63.67s.28.37.62.65c.31.28.65.48.82.57.27.14.59.18.99-.02.33-.11,1.48-.89,1.9-1.56.39-.62-.03-1.14-.07-1.19,0,0-.29-.37-.62-.65-.31-.27-.65-.48-.83-.57-.4-.21-.76-.07-.99.02-.33.12-1.48.89-1.91,1.56-.39.62.04,1.14.07,1.19"/>
      <path class="cls-5" d="m227.24,46.8s.28.37.62.65c.31.28.65.48.82.57.27.14.59.19.99-.02.33-.11,1.48-.89,1.91-1.57.39-.62-.04-1.14-.07-1.19,0,0-.29-.37-.62-.65-.31-.28-.65-.48-.83-.57-.4-.21-.76-.07-.99.02-.33.11-1.48.89-1.91,1.56-.38.62.04,1.14.07,1.19"/>
      <path class="cls-6" d="m227.24,63.67s.28.37.62.65c.31.28.65.48.82.57.27.14.59.18.99-.02.33-.11,1.48-.89,1.91-1.56.39-.62-.04-1.14-.07-1.19,0,0-.29-.37-.62-.65-.31-.27-.65-.48-.83-.57-.4-.21-.76-.07-.99.02-.33.12-1.48.89-1.91,1.56-.38.62.04,1.14.07,1.19"/>
      <g class="cls-10">
        <path class="cls-3" d="m101.13,38.39s.28.37.62.65c.31.28.65.48.83.57.26.14.59.18.99-.02.33-.11,1.48-.88,1.91-1.56.38-.62-.03-1.14-.07-1.19,0,0-.28-.37-.62-.65-.31-.28-.65-.48-.82-.57-.4-.21-.76-.07-.99.02-.33.12-1.48.89-1.91,1.56-.39.62.04,1.14.07,1.19"/>
      </g>
      <g class="cls-10">
        <path class="cls-5" d="m117.94,38.39s.28.37.62.65c.31.28.65.48.82.57.27.14.59.18.99-.02.33-.11,1.48-.88,1.91-1.56.39-.62-.04-1.14-.07-1.19,0,0-.29-.37-.62-.65-.31-.28-.65-.48-.83-.57-.4-.21-.76-.07-.99.02-.33.12-1.48.89-1.91,1.56-.38.62.03,1.14.07,1.19"/>
      </g>
      <path class="cls-3" d="m134.76,38.39s.28.37.62.65c.31.28.65.48.83.57.26.14.59.18.99-.02.33-.11,1.48-.88,1.91-1.56.39-.62-.03-1.14-.07-1.19,0,0-.29-.37-.62-.65-.31-.28-.65-.48-.82-.57-.41-.21-.76-.07-.99.02-.33.12-1.48.89-1.91,1.56-.38.62.04,1.14.07,1.19"/>
      <path class="cls-3" d="m151.57,38.39s.28.37.62.65c.31.28.65.48.83.57.27.14.59.18.99-.02.33-.11,1.48-.88,1.91-1.56.39-.62-.03-1.14-.07-1.19,0,0-.28-.37-.62-.65-.31-.28-.65-.48-.82-.57-.4-.21-.76-.07-.99.02-.33.12-1.48.89-1.91,1.56-.38.62.04,1.14.07,1.19"/>
      <path class="cls-3" d="m101.13,55.26s.28.37.62.65c.31.28.65.48.83.57.26.14.59.19.99-.02.33-.11,1.48-.89,1.91-1.56.38-.62-.03-1.14-.07-1.19,0,0-.28-.37-.62-.65-.31-.28-.65-.48-.82-.57-.4-.21-.76-.07-.99.01-.33.12-1.48.89-1.91,1.57-.39.62.04,1.14.07,1.19"/>
      <g class="cls-10">
        <path class="cls-3" d="m92.72,46.86s.28.37.62.65c.31.28.65.48.82.57.27.14.58.18.99-.02.33-.11,1.48-.89,1.91-1.56.39-.62-.03-1.14-.07-1.19,0,0-.28-.36-.62-.65-.31-.28-.65-.48-.82-.57-.4-.21-.76-.07-.99.02-.33.12-1.48.89-1.91,1.56-.38.62.03,1.14.07,1.19"/>
      </g>
      <g class="cls-10">
        <path class="cls-3" d="m109.27,46.86s.28.37.62.65c.31.28.65.48.83.57.26.14.59.18.99-.02.32-.11,1.48-.89,1.91-1.56.39-.62-.03-1.14-.07-1.19,0,0-.28-.36-.62-.65-.31-.28-.65-.48-.82-.57-.41-.21-.76-.07-.99.02-.33.12-1.48.89-1.91,1.56-.38.62.03,1.14.07,1.19"/>
      </g>
      <path class="cls-3" d="m117.94,55.26s.28.37.62.65c.31.28.65.48.82.57.27.14.59.19.99-.02.33-.11,1.48-.89,1.91-1.56.39-.62-.04-1.14-.07-1.19,0,0-.29-.37-.62-.65-.31-.28-.65-.48-.83-.57-.4-.21-.76-.07-.99.01-.33.12-1.48.89-1.91,1.57-.38.62.03,1.14.07,1.19"/>
      <path class="cls-3" d="m126.35,46.86s.28.37.62.65c.31.28.65.48.83.57.27.14.59.18.99-.02.33-.11,1.48-.89,1.91-1.56.39-.62-.03-1.14-.07-1.19,0,0-.28-.36-.62-.65-.31-.28-.65-.48-.82-.57-.41-.21-.76-.07-.99.02-.33.12-1.48.89-1.91,1.56-.38.62.03,1.14.07,1.19"/>
      <path class="cls-3" d="m159.98,46.86s.28.37.62.65c.31.28.65.48.82.57.27.14.59.18.99-.02.33-.11,1.48-.89,1.9-1.56.39-.62-.03-1.14-.07-1.19,0,0-.29-.36-.62-.65-.31-.28-.65-.48-.83-.57-.4-.21-.76-.07-.99.02-.33.12-1.48.89-1.91,1.56-.39.62.03,1.14.07,1.19"/>
      <path class="cls-3" d="m143.16,46.86s.28.37.62.65c.31.28.65.48.83.57.27.14.59.18.99-.02.33-.11,1.48-.89,1.91-1.56.39-.62-.03-1.14-.07-1.19,0,0-.28-.36-.62-.65-.31-.28-.65-.48-.82-.57-.41-.21-.76-.07-.99.02-.33.12-1.48.89-1.91,1.56-.39.62.03,1.14.07,1.19"/>
      <path class="cls-3" d="m134.76,55.26s.28.37.62.65c.31.28.65.48.83.57.26.14.59.19.99-.02.33-.11,1.48-.89,1.91-1.56.39-.62-.03-1.14-.07-1.19,0,0-.29-.37-.62-.65-.31-.28-.65-.48-.82-.57-.41-.21-.76-.07-.99.01-.33.12-1.48.89-1.91,1.57-.38.62.04,1.14.07,1.19"/>
      <path class="cls-3" d="m151.57,55.26s.28.37.62.65c.31.28.65.48.83.57.27.14.59.19.99-.02.33-.11,1.48-.89,1.91-1.56.39-.62-.03-1.14-.07-1.19,0,0-.28-.37-.62-.65-.31-.28-.65-.48-.82-.57-.4-.21-.76-.07-.99.01-.33.12-1.48.89-1.91,1.57-.38.62.04,1.14.07,1.19"/>
      <g class="cls-7">
        <path class="cls-3" d="m101.13,72.14s.28.36.62.65c.31.28.65.48.83.57.26.14.59.18.99-.02.33-.12,1.48-.89,1.91-1.56.38-.62-.03-1.14-.07-1.19,0,0-.28-.36-.62-.65-.31-.27-.65-.48-.82-.57-.4-.21-.76-.07-.99.02-.33.12-1.48.89-1.91,1.57-.39.62.04,1.14.07,1.19"/>
      </g>
      <path class="cls-3" d="m92.72,63.73s.28.37.62.65c.31.28.65.48.82.57.27.14.58.18.99-.02.33-.12,1.48-.89,1.91-1.56.39-.62-.03-1.14-.07-1.19,0,0-.28-.36-.62-.65-.31-.27-.65-.48-.82-.57-.4-.21-.76-.07-.99.02-.33.12-1.48.89-1.91,1.56-.38.62.03,1.14.07,1.19"/>
      <path class="cls-3" d="m109.27,63.73s.28.37.62.65c.31.28.65.48.83.57.26.14.59.18.99-.02.32-.12,1.48-.89,1.91-1.56.39-.62-.03-1.14-.07-1.19,0,0-.28-.36-.62-.65-.31-.27-.65-.48-.82-.57-.41-.21-.76-.07-.99.02-.33.12-1.48.89-1.91,1.56-.38.62.03,1.14.07,1.19"/>
      <g class="cls-7">
        <path class="cls-3" d="m117.94,72.14s.28.36.62.65c.31.28.65.48.82.57.27.14.59.18.99-.02.33-.12,1.48-.89,1.91-1.56.39-.62-.04-1.14-.07-1.19,0,0-.29-.36-.62-.65-.31-.27-.65-.48-.83-.57-.4-.21-.76-.07-.99.02-.33.12-1.48.89-1.91,1.57-.38.62.03,1.14.07,1.19"/>
      </g>
      <path class="cls-3" d="m126.35,63.73s.28.37.62.65c.31.28.65.48.83.57.27.14.59.18.99-.02.33-.12,1.48-.89,1.91-1.56.39-.62-.03-1.14-.07-1.19,0,0-.28-.36-.62-.65-.31-.27-.65-.48-.82-.57-.41-.21-.76-.07-.99.02-.33.12-1.48.89-1.91,1.56-.38.62.03,1.14.07,1.19"/>
      <path class="cls-3" d="m159.98,63.73s.28.37.62.65c.31.28.65.48.82.57.27.14.59.18.99-.02.33-.12,1.48-.89,1.9-1.56.39-.62-.03-1.14-.07-1.19,0,0-.29-.36-.62-.65-.31-.27-.65-.48-.83-.57-.4-.21-.76-.07-.99.02-.33.12-1.48.89-1.91,1.56-.39.62.03,1.14.07,1.19"/>
      <g class="cls-11">
        <path class="cls-5" d="m143.16,63.73s.28.37.62.65c.31.28.65.48.83.57.27.14.59.18.99-.02.33-.12,1.48-.89,1.91-1.56.39-.62-.03-1.14-.07-1.19,0,0-.28-.36-.62-.65-.31-.27-.65-.48-.82-.57-.41-.21-.76-.07-.99.02-.33.12-1.48.89-1.91,1.56-.39.62.03,1.14.07,1.19"/>
      </g>
      <g class="cls-7">
        <path class="cls-3" d="m134.76,72.14s.28.36.62.65c.31.28.65.48.83.57.26.14.59.18.99-.02.33-.12,1.48-.89,1.91-1.56.39-.62-.03-1.14-.07-1.19,0,0-.29-.36-.62-.65-.31-.27-.65-.48-.82-.57-.41-.21-.76-.07-.99.02-.33.12-1.48.89-1.91,1.57-.38.62.04,1.14.07,1.19"/>
      </g>
      <g class="cls-11">
        <path class="cls-5" d="m151.57,72.14s.28.36.62.65c.31.28.65.48.83.57.27.14.59.18.99-.02.33-.12,1.48-.89,1.91-1.56.39-.62-.03-1.14-.07-1.19,0,0-.28-.36-.62-.65-.31-.27-.65-.48-.82-.57-.4-.21-.76-.07-.99.02-.33.12-1.48.89-1.91,1.57-.38.62.04,1.14.07,1.19"/>
      </g>
      <g class="cls-10">
        <path class="cls-3" d="m33.86,38.39s.28.37.62.65c.31.28.65.48.83.57.26.14.59.18.99-.02.33-.11,1.48-.88,1.91-1.56.38-.62-.03-1.14-.07-1.19,0,0-.28-.37-.62-.65-.31-.28-.65-.48-.82-.57-.4-.21-.76-.07-.99.02-.33.12-1.48.89-1.91,1.56-.39.62.04,1.14.07,1.19"/>
      </g>
      <g class="cls-10">
        <path class="cls-5" d="m50.68,38.39s.28.37.62.65c.31.28.65.48.82.57.27.14.59.18.99-.02.33-.11,1.48-.88,1.91-1.56.39-.62-.04-1.14-.07-1.19,0,0-.29-.37-.62-.65-.31-.28-.65-.48-.83-.57-.4-.21-.76-.07-.99.02-.33.12-1.48.89-1.91,1.56-.38.62.03,1.14.07,1.19"/>
      </g>
      <g class="cls-10">
        <path class="cls-5" d="m67.49,38.39s.28.37.62.65c.31.28.65.48.83.57.26.14.59.18.99-.02.33-.11,1.48-.88,1.91-1.56.39-.62-.03-1.14-.07-1.19,0,0-.29-.37-.62-.65-.31-.28-.65-.48-.82-.57-.41-.21-.76-.07-.99.02-.33.12-1.48.89-1.91,1.56-.38.62.04,1.14.07,1.19"/>
      </g>
      <g class="cls-11">
        <path class="cls-5" d="m84.31,38.39s.28.37.62.65c.31.28.65.48.83.57.27.14.59.18.99-.02.33-.11,1.48-.88,1.91-1.56.39-.62-.03-1.14-.07-1.19,0,0-.28-.37-.62-.65-.31-.28-.65-.48-.82-.57-.4-.21-.76-.07-.99.02-.33.12-1.48.89-1.91,1.56-.38.62.04,1.14.07,1.19"/>
      </g>
      <g class="cls-10">
        <path class="cls-3" d="m33.86,55.26s.28.37.62.65c.31.28.65.48.83.57.26.14.59.19.99-.02.33-.11,1.48-.89,1.91-1.56.38-.62-.03-1.14-.07-1.19,0,0-.28-.37-.62-.65-.31-.28-.65-.48-.82-.57-.4-.21-.76-.07-.99.01-.33.12-1.48.89-1.91,1.57-.39.62.04,1.14.07,1.19"/>
      </g>
      <g class="cls-10">
        <path class="cls-3" d="m25.45,46.86s.28.37.62.65c.31.28.65.48.82.57.27.14.58.18.99-.02.33-.11,1.48-.89,1.91-1.56.39-.62-.03-1.14-.07-1.19,0,0-.28-.36-.62-.65-.31-.28-.65-.48-.82-.57-.4-.21-.76-.07-.99.02-.33.12-1.48.89-1.91,1.56-.38.62.03,1.14.07,1.19"/>
      </g>
      <g class="cls-10">
        <path class="cls-3" d="m42,46.86s.28.37.62.65c.31.28.65.48.83.57.26.14.59.18.99-.02.32-.11,1.48-.89,1.91-1.56.39-.62-.03-1.14-.07-1.19,0,0-.28-.36-.62-.65-.31-.28-.65-.48-.82-.57-.41-.21-.76-.07-.99.02-.33.12-1.48.89-1.91,1.56-.38.62.03,1.14.07,1.19"/>
      </g>
      <g class="cls-7">
        <path class="cls-3" d="m50.68,55.26s.28.37.62.65c.31.28.65.48.82.57.27.14.59.19.99-.02.33-.11,1.48-.89,1.91-1.56.39-.62-.04-1.14-.07-1.19,0,0-.29-.37-.62-.65-.31-.28-.65-.48-.83-.57-.4-.21-.76-.07-.99.01-.33.12-1.48.89-1.91,1.57-.38.62.03,1.14.07,1.19"/>
      </g>
      <g class="cls-11">
        <path class="cls-5" d="m59.09,46.86s.28.37.62.65c.31.28.65.48.83.57.27.14.59.18.99-.02.33-.11,1.48-.89,1.91-1.56.39-.62-.03-1.14-.07-1.19,0,0-.28-.36-.62-.65-.31-.28-.65-.48-.82-.57-.41-.21-.76-.07-.99.02-.33.12-1.48.89-1.91,1.56-.38.62.03,1.14.07,1.19"/>
      </g>
      <g class="cls-11">
        <path class="cls-5" d="m92.72,46.86s.28.37.62.65c.31.28.65.48.82.57.27.14.59.18.99-.02.33-.11,1.48-.89,1.9-1.56.39-.62-.03-1.14-.07-1.19,0,0-.29-.36-.62-.65-.31-.28-.65-.48-.83-.57-.4-.21-.76-.07-.99.02-.33.12-1.48.89-1.91,1.56-.39.62.03,1.14.07,1.19"/>
      </g>
      <g class="cls-11">
        <path class="cls-5" d="m75.9,46.86s.28.37.62.65c.31.28.65.48.83.57.27.14.59.18.99-.02.33-.11,1.48-.89,1.91-1.56.39-.62-.03-1.14-.07-1.19,0,0-.28-.36-.62-.65-.31-.28-.65-.48-.82-.57-.41-.21-.76-.07-.99.02-.33.12-1.48.89-1.91,1.56-.39.62.03,1.14.07,1.19"/>
      </g>
      <path class="cls-3" d="m67.49,55.26s.28.37.62.65c.31.28.65.48.83.57.26.14.59.19.99-.02.33-.11,1.48-.89,1.91-1.56.39-.62-.03-1.14-.07-1.19,0,0-.29-.37-.62-.65-.31-.28-.65-.48-.82-.57-.41-.21-.76-.07-.99.01-.33.12-1.48.89-1.91,1.57-.38.62.04,1.14.07,1.19"/>
      <path class="cls-3" d="m84.31,55.26s.28.37.62.65c.31.28.65.48.83.57.27.14.59.19.99-.02.33-.11,1.48-.89,1.91-1.56.39-.62-.03-1.14-.07-1.19,0,0-.28-.37-.62-.65-.31-.28-.65-.48-.82-.57-.4-.21-.76-.07-.99.01-.33.12-1.48.89-1.91,1.57-.38.62.04,1.14.07,1.19"/>
      <path class="cls-3" d="m33.86,72.14s.28.36.62.65c.31.28.65.48.83.57.26.14.59.18.99-.02.33-.12,1.48-.89,1.91-1.56.38-.62-.03-1.14-.07-1.19,0,0-.28-.36-.62-.65-.31-.27-.65-.48-.82-.57-.4-.21-.76-.07-.99.02-.33.12-1.48.89-1.91,1.57-.39.62.04,1.14.07,1.19"/>
      <g class="cls-10">
        <path class="cls-3" d="m25.45,63.73s.28.37.62.65c.31.28.65.48.82.57.27.14.58.18.99-.02.33-.12,1.48-.89,1.91-1.56.39-.62-.03-1.14-.07-1.19,0,0-.28-.36-.62-.65-.31-.27-.65-.48-.82-.57-.4-.21-.76-.07-.99.02-.33.12-1.48.89-1.91,1.56-.38.62.03,1.14.07,1.19"/>
      </g>
      <g class="cls-10">
        <path class="cls-3" d="m42,63.73s.28.37.62.65c.31.28.65.48.83.57.26.14.59.18.99-.02.32-.12,1.48-.89,1.91-1.56.39-.62-.03-1.14-.07-1.19,0,0-.28-.36-.62-.65-.31-.27-.65-.48-.82-.57-.41-.21-.76-.07-.99.02-.33.12-1.48.89-1.91,1.56-.38.62.03,1.14.07,1.19"/>
      </g>
      <path class="cls-3" d="m50.68,72.14s.28.36.62.65c.31.28.65.48.82.57.27.14.59.18.99-.02.33-.12,1.48-.89,1.91-1.56.39-.62-.04-1.14-.07-1.19,0,0-.29-.36-.62-.65-.31-.27-.65-.48-.83-.57-.4-.21-.76-.07-.99.02-.33.12-1.48.89-1.91,1.57-.38.62.03,1.14.07,1.19"/>
      <path class="cls-3" d="m59.09,63.73s.28.37.62.65c.31.28.65.48.83.57.27.14.59.18.99-.02.33-.12,1.48-.89,1.91-1.56.39-.62-.03-1.14-.07-1.19,0,0-.28-.36-.62-.65-.31-.27-.65-.48-.82-.57-.41-.21-.76-.07-.99.02-.33.12-1.48.89-1.91,1.56-.38.62.03,1.14.07,1.19"/>
      <path class="cls-3" d="m92.72,63.73s.28.37.62.65c.31.28.65.48.82.57.27.14.59.18.99-.02.33-.12,1.48-.89,1.9-1.56.39-.62-.03-1.14-.07-1.19,0,0-.29-.36-.62-.65-.31-.27-.65-.48-.83-.57-.4-.21-.76-.07-.99.02-.33.12-1.48.89-1.91,1.56-.39.62.03,1.14.07,1.19"/>
      <path class="cls-3" d="m75.9,63.73s.28.37.62.65c.31.28.65.48.83.57.27.14.59.18.99-.02.33-.12,1.48-.89,1.91-1.56.39-.62-.03-1.14-.07-1.19,0,0-.28-.36-.62-.65-.31-.27-.65-.48-.82-.57-.41-.21-.76-.07-.99.02-.33.12-1.48.89-1.91,1.56-.39.62.03,1.14.07,1.19"/>
      <g class="cls-7">
        <path class="cls-3" d="m67.49,72.14s.28.36.62.65c.31.28.65.48.83.57.26.14.59.18.99-.02.33-.12,1.48-.89,1.91-1.56.39-.62-.03-1.14-.07-1.19,0,0-.29-.36-.62-.65-.31-.27-.65-.48-.82-.57-.41-.21-.76-.07-.99.02-.33.12-1.48.89-1.91,1.57-.38.62.04,1.14.07,1.19"/>
      </g>
      <g class="cls-7">
        <path class="cls-3" d="m84.31,72.14s.28.36.62.65c.31.28.65.48.83.57.27.14.59.18.99-.02.33-.12,1.48-.89,1.91-1.56.39-.62-.03-1.14-.07-1.19,0,0-.28-.36-.62-.65-.31-.27-.65-.48-.82-.57-.4-.21-.76-.07-.99.02-.33.12-1.48.89-1.91,1.57-.38.62.04,1.14.07,1.19"/>
      </g>
      <path class="cls-5" d="m101.13,89.01s.28.37.62.65c.31.28.65.48.83.57.26.14.59.19.99-.02.33-.11,1.48-.89,1.91-1.56.38-.62-.03-1.14-.07-1.19,0,0-.28-.37-.62-.65-.31-.28-.65-.48-.82-.57-.4-.21-.76-.07-.99.01-.33.12-1.48.89-1.91,1.57-.39.62.04,1.14.07,1.19"/>
      <path class="cls-5" d="m92.72,80.6s.28.37.62.65c.31.28.65.48.82.57.27.14.58.18.99-.02.33-.11,1.48-.89,1.91-1.56.39-.62-.03-1.14-.07-1.19,0,0-.28-.36-.62-.65-.31-.28-.65-.48-.82-.57-.4-.21-.76-.07-.99.02-.33.12-1.48.89-1.91,1.56-.38.62.03,1.14.07,1.19"/>
      <path class="cls-5" d="m109.27,80.6s.28.37.62.65c.31.28.65.48.83.57.26.14.59.18.99-.02.32-.11,1.48-.89,1.91-1.56.39-.62-.03-1.14-.07-1.19,0,0-.28-.36-.62-.65-.31-.28-.65-.48-.82-.57-.41-.21-.76-.07-.99.02-.33.12-1.48.89-1.91,1.56-.38.62.03,1.14.07,1.19"/>
      <path class="cls-5" d="m117.94,89.01s.28.37.62.65c.31.28.65.48.82.57.27.14.59.19.99-.02.33-.11,1.48-.89,1.91-1.56.39-.62-.04-1.14-.07-1.19,0,0-.29-.37-.62-.65-.31-.28-.65-.48-.83-.57-.4-.21-.76-.07-.99.01-.33.12-1.48.89-1.91,1.57-.38.62.03,1.14.07,1.19"/>
      <path class="cls-5" d="m126.35,80.6s.28.37.62.65c.31.28.65.48.83.57.27.14.59.18.99-.02.33-.11,1.48-.89,1.91-1.56.39-.62-.03-1.14-.07-1.19,0,0-.28-.36-.62-.65-.31-.28-.65-.48-.82-.57-.41-.21-.76-.07-.99.02-.33.12-1.48.89-1.91,1.56-.38.62.03,1.14.07,1.19"/>
      <path class="cls-5" d="m143.16,80.6s.28.37.62.65c.31.28.65.48.83.57.27.14.59.18.99-.02.33-.11,1.48-.89,1.91-1.56.39-.62-.03-1.14-.07-1.19,0,0-.28-.36-.62-.65-.31-.28-.65-.48-.82-.57-.41-.21-.76-.07-.99.02-.33.12-1.48.89-1.91,1.56-.39.62.03,1.14.07,1.19"/>
      <path class="cls-5" d="m134.76,89.01s.28.37.62.65c.31.28.65.48.83.57.26.14.59.19.99-.02.33-.11,1.48-.89,1.91-1.56.39-.62-.03-1.14-.07-1.19,0,0-.29-.37-.62-.65-.31-.28-.65-.48-.82-.57-.41-.21-.76-.07-.99.01-.33.12-1.48.89-1.91,1.57-.38.62.04,1.14.07,1.19"/>
      <path class="cls-5" d="m151.57,89.01s.28.37.62.65c.31.28.65.48.83.57.27.14.59.19.99-.02.33-.11,1.48-.89,1.91-1.56.39-.62-.03-1.14-.07-1.19,0,0-.28-.37-.62-.65-.31-.28-.65-.48-.82-.57-.4-.21-.76-.07-.99.01-.33.12-1.48.89-1.91,1.57-.38.62.04,1.14.07,1.19"/>
      <path class="cls-5" d="m101.13,105.88s.28.36.62.65c.31.28.65.48.83.57.26.14.59.18.99-.02.33-.12,1.48-.89,1.91-1.56.38-.62-.03-1.14-.07-1.19,0,0-.28-.36-.62-.65-.31-.27-.65-.48-.82-.57-.4-.21-.76-.07-.99.02-.33.12-1.48.89-1.91,1.57-.39.62.04,1.14.07,1.19"/>
      <path class="cls-5" d="m92.72,97.47s.28.37.62.65c.31.28.65.48.82.57.27.14.58.18.99-.02.33-.12,1.48-.89,1.91-1.56.39-.62-.03-1.14-.07-1.19,0,0-.28-.36-.62-.65-.31-.27-.65-.48-.82-.57-.4-.21-.76-.07-.99.02-.33.12-1.48.89-1.91,1.56-.38.62.03,1.14.07,1.19"/>
      <path class="cls-5" d="m109.27,97.47s.28.37.62.65c.31.28.65.48.83.57.26.14.59.18.99-.02.32-.12,1.48-.89,1.91-1.56.39-.62-.03-1.14-.07-1.19,0,0-.28-.36-.62-.65-.31-.27-.65-.48-.82-.57-.41-.21-.76-.07-.99.02-.33.12-1.48.89-1.91,1.56-.38.62.03,1.14.07,1.19"/>
      <path class="cls-5" d="m117.94,105.88s.28.36.62.65c.31.28.65.48.82.57.27.14.59.18.99-.02.33-.12,1.48-.89,1.91-1.56.39-.62-.04-1.14-.07-1.19,0,0-.29-.36-.62-.65-.31-.27-.65-.48-.83-.57-.4-.21-.76-.07-.99.02-.33.12-1.48.89-1.91,1.57-.38.62.03,1.14.07,1.19"/>
      <path class="cls-5" d="m126.35,97.47s.28.37.62.65c.31.28.65.48.83.57.27.14.59.18.99-.02.33-.12,1.48-.89,1.91-1.56.39-.62-.03-1.14-.07-1.19,0,0-.28-.36-.62-.65-.31-.27-.65-.48-.82-.57-.41-.21-.76-.07-.99.02-.33.12-1.48.89-1.91,1.56-.38.62.03,1.14.07,1.19"/>
      <path class="cls-5" d="m143.16,97.47s.28.37.62.65c.31.28.65.48.83.57.27.14.59.18.99-.02.33-.12,1.48-.89,1.91-1.56.39-.62-.03-1.14-.07-1.19,0,0-.28-.36-.62-.65-.31-.27-.65-.48-.82-.57-.41-.21-.76-.07-.99.02-.33.12-1.48.89-1.91,1.56-.39.62.03,1.14.07,1.19"/>
      <path class="cls-5" d="m134.76,105.88s.28.36.62.65c.31.28.65.48.83.57.26.14.59.18.99-.02.33-.12,1.48-.89,1.91-1.56.39-.62-.03-1.14-.07-1.19,0,0-.29-.36-.62-.65-.31-.27-.65-.48-.82-.57-.41-.21-.76-.07-.99.02-.33.12-1.48.89-1.91,1.57-.38.62.04,1.14.07,1.19"/>
      <path class="cls-5" d="m151.57,105.88s.28.36.62.65c.31.28.65.48.83.57.27.14.59.18.99-.02.33-.12,1.48-.89,1.91-1.56.39-.62-.03-1.14-.07-1.19,0,0-.28-.36-.62-.65-.31-.27-.65-.48-.82-.57-.4-.21-.76-.07-.99.02-.33.12-1.48.89-1.91,1.57-.38.62.04,1.14.07,1.19"/>
      <path class="cls-3" d="m33.86,89.01s.28.37.62.65c.31.28.65.48.83.57.26.14.59.19.99-.02.33-.11,1.48-.89,1.91-1.56.38-.62-.03-1.14-.07-1.19,0,0-.28-.37-.62-.65-.31-.28-.65-.48-.82-.57-.4-.21-.76-.07-.99.01-.33.12-1.48.89-1.91,1.57-.39.62.04,1.14.07,1.19"/>
      <path class="cls-3" d="m25.45,80.6s.28.37.62.65c.31.28.65.48.82.57.27.14.58.18.99-.02.33-.11,1.48-.89,1.91-1.56.39-.62-.03-1.14-.07-1.19,0,0-.28-.36-.62-.65-.31-.28-.65-.48-.82-.57-.4-.21-.76-.07-.99.02-.33.12-1.48.89-1.91,1.56-.38.62.03,1.14.07,1.19"/>
      <path class="cls-3" d="m42,80.6s.28.37.62.65c.31.28.65.48.83.57.26.14.59.18.99-.02.32-.11,1.48-.89,1.91-1.56.39-.62-.03-1.14-.07-1.19,0,0-.28-.36-.62-.65-.31-.28-.65-.48-.82-.57-.41-.21-.76-.07-.99.02-.33.12-1.48.89-1.91,1.56-.38.62.03,1.14.07,1.19"/>
      <g class="cls-7">
        <path class="cls-3" d="m17.31,72.14s.28.36.62.65c.31.28.65.48.83.57.26.14.59.18.99-.02.33-.12,1.48-.89,1.91-1.56.38-.62-.03-1.14-.07-1.19,0,0-.28-.36-.62-.65-.31-.27-.65-.48-.82-.57-.4-.21-.76-.07-.99.02-.33.12-1.48.89-1.91,1.57-.39.62.04,1.14.07,1.19"/>
      </g>
      <path class="cls-3" d="m8.91,80.6s.28.37.62.65c.31.28.65.48.82.57.27.14.58.18.99-.02.33-.11,1.48-.89,1.91-1.56.39-.62-.03-1.14-.07-1.19,0,0-.28-.36-.62-.65-.31-.28-.65-.48-.82-.57-.4-.21-.76-.07-.99.02-.33.12-1.48.89-1.91,1.56-.38.62.03,1.14.07,1.19"/>
      <path class="cls-5" d="m50.68,89.01s.28.37.62.65c.31.28.65.48.82.57.27.14.59.19.99-.02.33-.11,1.48-.89,1.91-1.56.39-.62-.04-1.14-.07-1.19,0,0-.29-.37-.62-.65-.31-.28-.65-.48-.83-.57-.4-.21-.76-.07-.99.01-.33.12-1.48.89-1.91,1.57-.38.62.03,1.14.07,1.19"/>
      <path class="cls-3" d="m17.05,89.01s.28.37.62.65c.31.28.65.48.83.57.26.14.59.19.99-.02.33-.11,1.48-.89,1.91-1.56.38-.62-.03-1.14-.07-1.19,0,0-.28-.37-.62-.65-.31-.28-.65-.48-.82-.57-.4-.21-.76-.07-.99.01-.33.12-1.48.89-1.91,1.57-.39.62.04,1.14.07,1.19"/>
      <path class="cls-3" d="m.23,89.01s.28.37.62.65c.31.28.65.48.83.57.26.14.59.19.99-.02.33-.11,1.48-.89,1.91-1.56.38-.62-.03-1.14-.07-1.19,0,0-.28-.37-.62-.65-.31-.28-.65-.48-.82-.57-.4-.21-.76-.07-.99.01-.33.12-1.48.89-1.91,1.57-.39.62.04,1.14.07,1.19"/>
      <path class="cls-5" d="m59.09,80.6s.28.37.62.65c.31.28.65.48.83.57.27.14.59.18.99-.02.33-.11,1.48-.89,1.91-1.56.39-.62-.03-1.14-.07-1.19,0,0-.28-.36-.62-.65-.31-.28-.65-.48-.82-.57-.41-.21-.76-.07-.99.02-.33.12-1.48.89-1.91,1.56-.38.62.03,1.14.07,1.19"/>
      <path class="cls-5" d="m92.72,80.6s.28.37.62.65c.31.28.65.48.82.57.27.14.59.18.99-.02.33-.11,1.48-.89,1.9-1.56.39-.62-.03-1.14-.07-1.19,0,0-.29-.36-.62-.65-.31-.28-.65-.48-.83-.57-.4-.21-.76-.07-.99.02-.33.12-1.48.89-1.91,1.56-.39.62.03,1.14.07,1.19"/>
      <path class="cls-5" d="m75.9,80.6s.28.37.62.65c.31.28.65.48.83.57.27.14.59.18.99-.02.33-.11,1.48-.89,1.91-1.56.39-.62-.03-1.14-.07-1.19,0,0-.28-.36-.62-.65-.31-.28-.65-.48-.82-.57-.41-.21-.76-.07-.99.02-.33.12-1.48.89-1.91,1.56-.39.62.03,1.14.07,1.19"/>
      <path class="cls-5" d="m67.49,89.01s.28.37.62.65c.31.28.65.48.83.57.26.14.59.19.99-.02.33-.11,1.48-.89,1.91-1.56.39-.62-.03-1.14-.07-1.19,0,0-.29-.37-.62-.65-.31-.28-.65-.48-.82-.57-.41-.21-.76-.07-.99.01-.33.12-1.48.89-1.91,1.57-.38.62.04,1.14.07,1.19"/>
      <path class="cls-5" d="m84.31,89.01s.28.37.62.65c.31.28.65.48.83.57.27.14.59.19.99-.02.33-.11,1.48-.89,1.91-1.56.39-.62-.03-1.14-.07-1.19,0,0-.28-.37-.62-.65-.31-.28-.65-.48-.82-.57-.4-.21-.76-.07-.99.01-.33.12-1.48.89-1.91,1.57-.38.62.04,1.14.07,1.19"/>
      <path class="cls-5" d="m33.86,105.88s.28.36.62.65c.31.28.65.48.83.57.26.14.59.18.99-.02.33-.12,1.48-.89,1.91-1.56.38-.62-.03-1.14-.07-1.19,0,0-.28-.36-.62-.65-.31-.27-.65-.48-.82-.57-.4-.21-.76-.07-.99.02-.33.12-1.48.89-1.91,1.57-.39.62.04,1.14.07,1.19"/>
      <path class="cls-3" d="m25.45,97.47s.28.37.62.65c.31.28.65.48.82.57.27.14.58.18.99-.02.33-.12,1.48-.89,1.91-1.56.39-.62-.03-1.14-.07-1.19,0,0-.28-.36-.62-.65-.31-.27-.65-.48-.82-.57-.4-.21-.76-.07-.99.02-.33.12-1.48.89-1.91,1.56-.38.62.03,1.14.07,1.19"/>
      <path class="cls-5" d="m42,97.47s.28.37.62.65c.31.28.65.48.83.57.26.14.59.18.99-.02.32-.12,1.48-.89,1.91-1.56.39-.62-.03-1.14-.07-1.19,0,0-.28-.36-.62-.65-.31-.27-.65-.48-.82-.57-.41-.21-.76-.07-.99.02-.33.12-1.48.89-1.91,1.56-.38.62.03,1.14.07,1.19"/>
      <path class="cls-5" d="m50.68,105.88s.28.36.62.65c.31.28.65.48.82.57.27.14.59.18.99-.02.33-.12,1.48-.89,1.91-1.56.39-.62-.04-1.14-.07-1.19,0,0-.29-.36-.62-.65-.31-.27-.65-.48-.83-.57-.4-.21-.76-.07-.99.02-.33.12-1.48.89-1.91,1.57-.38.62.03,1.14.07,1.19"/>
      <path class="cls-5" d="m59.09,97.47s.28.37.62.65c.31.28.65.48.83.57.27.14.59.18.99-.02.33-.12,1.48-.89,1.91-1.56.39-.62-.03-1.14-.07-1.19,0,0-.28-.36-.62-.65-.31-.27-.65-.48-.82-.57-.41-.21-.76-.07-.99.02-.33.12-1.48.89-1.91,1.56-.38.62.03,1.14.07,1.19"/>
      <path class="cls-5" d="m92.72,97.47s.28.37.62.65c.31.28.65.48.82.57.27.14.59.18.99-.02.33-.12,1.48-.89,1.9-1.56.39-.62-.03-1.14-.07-1.19,0,0-.29-.36-.62-.65-.31-.27-.65-.48-.83-.57-.4-.21-.76-.07-.99.02-.33.12-1.48.89-1.91,1.56-.39.62.03,1.14.07,1.19"/>
      <path class="cls-5" d="m75.9,97.47s.28.37.62.65c.31.28.65.48.83.57.27.14.59.18.99-.02.33-.12,1.48-.89,1.91-1.56.39-.62-.03-1.14-.07-1.19,0,0-.28-.36-.62-.65-.31-.27-.65-.48-.82-.57-.41-.21-.76-.07-.99.02-.33.12-1.48.89-1.91,1.56-.39.62.03,1.14.07,1.19"/>
      <path class="cls-5" d="m67.49,105.88s.28.36.62.65c.31.28.65.48.83.57.26.14.59.18.99-.02.33-.12,1.48-.89,1.91-1.56.39-.62-.03-1.14-.07-1.19,0,0-.29-.36-.62-.65-.31-.27-.65-.48-.82-.57-.41-.21-.76-.07-.99.02-.33.12-1.48.89-1.91,1.57-.38.62.04,1.14.07,1.19"/>
      <path class="cls-5" d="m84.31,105.88s.28.36.62.65c.31.28.65.48.83.57.27.14.59.18.99-.02.33-.12,1.48-.89,1.91-1.56.39-.62-.03-1.14-.07-1.19,0,0-.28-.36-.62-.65-.31-.27-.65-.48-.82-.57-.4-.21-.76-.07-.99.02-.33.12-1.48.89-1.91,1.57-.38.62.04,1.14.07,1.19"/>
      <path class="cls-5" d="m159.98,29.98s.28.37.62.65c.31.27.65.48.82.57.27.14.58.18.99-.02.33-.11,1.48-.88,1.91-1.56.39-.62-.03-1.14-.07-1.19,0,0-.28-.37-.62-.65-.31-.27-.65-.48-.82-.57-.4-.21-.76-.07-.99.02-.33.11-1.48.88-1.91,1.56-.38.61.03,1.14.07,1.19"/>
      <path class="cls-5" d="m92.72,29.99s.28.37.62.65c.31.28.65.48.82.57.27.14.58.18.99-.02.33-.12,1.48-.89,1.91-1.56.39-.62-.03-1.14-.07-1.19,0,0-.28-.36-.62-.65-.31-.27-.65-.48-.82-.57-.4-.21-.76-.07-.99.02-.33.12-1.48.89-1.91,1.56-.38.62.03,1.14.07,1.19"/>
      <path class="cls-5" d="m109.27,29.99s.28.37.62.65c.31.28.65.48.83.57.26.14.59.18.99-.02.32-.12,1.48-.89,1.91-1.56.39-.62-.03-1.14-.07-1.19,0,0-.28-.36-.62-.65-.31-.27-.65-.48-.82-.57-.41-.21-.76-.07-.99.02-.33.12-1.48.89-1.91,1.56-.38.62.03,1.14.07,1.19"/>
      <path class="cls-5" d="m126.35,29.99s.28.37.62.65c.31.28.65.48.83.57.27.14.59.18.99-.02.33-.12,1.48-.89,1.91-1.56.39-.62-.03-1.14-.07-1.19,0,0-.28-.36-.62-.65-.31-.27-.65-.48-.82-.57-.41-.21-.76-.07-.99.02-.33.12-1.48.89-1.91,1.56-.38.62.03,1.14.07,1.19"/>
      <path class="cls-3" d="m143.16,29.99s.28.37.62.65c.31.28.65.48.83.57.27.14.59.18.99-.02.33-.12,1.48-.89,1.91-1.56.39-.62-.03-1.14-.07-1.19,0,0-.28-.36-.62-.65-.31-.27-.65-.48-.82-.57-.41-.21-.76-.07-.99.02-.33.12-1.48.89-1.91,1.56-.39.62.03,1.14.07,1.19"/>
      <path class="cls-5" d="m25.45,29.99s.28.37.62.65c.31.28.65.48.82.57.27.14.58.18.99-.02.33-.12,1.48-.89,1.91-1.56.39-.62-.03-1.14-.07-1.19,0,0-.28-.36-.62-.65-.31-.27-.65-.48-.82-.57-.4-.21-.76-.07-.99.02-.33.12-1.48.89-1.91,1.56-.38.62.03,1.14.07,1.19"/>
      <path class="cls-5" d="m42,29.99s.28.37.62.65c.31.28.65.48.83.57.26.14.59.18.99-.02.32-.12,1.48-.89,1.91-1.56.39-.62-.03-1.14-.07-1.19,0,0-.28-.36-.62-.65-.31-.27-.65-.48-.82-.57-.41-.21-.76-.07-.99.02-.33.12-1.48.89-1.91,1.56-.38.62.03,1.14.07,1.19"/>
      <path class="cls-5" d="m59.09,29.99s.28.37.62.65c.31.28.65.48.83.57.27.14.59.18.99-.02.33-.12,1.48-.89,1.91-1.56.39-.62-.03-1.14-.07-1.19,0,0-.28-.36-.62-.65-.31-.27-.65-.48-.82-.57-.41-.21-.76-.07-.99.02-.33.12-1.48.89-1.91,1.56-.38.62.03,1.14.07,1.19"/>
      <path class="cls-5" d="m92.72,29.99s.28.37.62.65c.31.28.65.48.82.57.27.14.59.18.99-.02.33-.12,1.48-.89,1.9-1.56.39-.62-.03-1.14-.07-1.19,0,0-.29-.36-.62-.65-.31-.27-.65-.48-.83-.57-.4-.21-.76-.07-.99.02-.33.12-1.48.89-1.91,1.56-.39.62.03,1.14.07,1.19"/>
      <path class="cls-5" d="m75.9,29.99s.28.37.62.65c.31.28.65.48.83.57.27.14.59.18.99-.02.33-.12,1.48-.89,1.91-1.56.39-.62-.03-1.14-.07-1.19,0,0-.28-.36-.62-.65-.31-.27-.65-.48-.82-.57-.41-.21-.76-.07-.99.02-.33.12-1.48.89-1.91,1.56-.39.62.03,1.14.07,1.19"/>
      <g class="cls-11">
        <path class="cls-5" d="m235.65,38.39s.28.37.62.65c.31.28.65.48.82.57.27.14.59.18.99-.02.33-.11,1.48-.88,1.91-1.56.39-.62-.03-1.14-.07-1.19,0,0-.28-.37-.62-.65-.31-.28-.65-.48-.82-.57-.41-.21-.76-.07-.99.02-.33.12-1.48.89-1.91,1.56-.38.62.04,1.14.07,1.19"/>
      </g>
      <path class="cls-6" d="m235.65,55.29s.28.36.62.65c.31.28.65.48.82.57.27.14.59.19.99-.02.33-.11,1.48-.89,1.91-1.56.39-.62-.03-1.14-.07-1.19,0,0-.28-.37-.62-.65-.31-.28-.65-.48-.82-.57-.41-.21-.76-.07-.99.02-.33.11-1.48.89-1.91,1.56-.38.62.04,1.14.07,1.19"/>
      <path class="cls-6" d="m235.65,55.32s.28.37.62.65c.31.27.65.48.82.57.27.14.59.18.99-.02.33-.12,1.48-.89,1.91-1.56.39-.62-.03-1.14-.07-1.19,0,0-.28-.37-.62-.65-.31-.28-.65-.48-.82-.57-.41-.21-.76-.07-.99.02-.33.12-1.48.89-1.91,1.57-.38.62.04,1.14.07,1.19"/>
      <g class="cls-7">
        <path class="cls-5" d="m235.65,72.19s.28.36.62.65c.31.28.65.48.82.57.27.14.59.18.99-.02.33-.11,1.48-.89,1.91-1.56.39-.62-.03-1.14-.07-1.19,0,0-.28-.37-.62-.65-.31-.28-.65-.48-.82-.57-.41-.21-.76-.07-.99.02-.33.12-1.48.89-1.91,1.56-.38.62.04,1.14.07,1.19"/>
      </g>
      <path class="cls-5" d="m252.22,38.39s.28.37.62.65c.31.28.65.48.82.57.27.14.59.18.99-.02.33-.11,1.48-.88,1.91-1.56.39-.62-.03-1.14-.07-1.19,0,0-.28-.37-.62-.65-.31-.28-.65-.48-.83-.57-.4-.21-.76-.07-.99.02-.33.12-1.48.89-1.91,1.56-.38.62.03,1.14.07,1.19"/>
      <path class="cls-6" d="m252.22,55.26s.28.37.62.65c.31.28.65.48.82.57.27.14.59.19.99-.02.33-.11,1.48-.89,1.91-1.56.39-.62-.03-1.14-.07-1.19,0,0-.28-.37-.62-.65-.31-.28-.65-.48-.83-.57-.4-.21-.76-.07-.99.01-.33.12-1.48.89-1.91,1.57-.38.62.03,1.14.07,1.19"/>
      <path class="cls-6" d="m252.22,72.14s.28.36.62.65c.31.28.65.48.82.57.27.14.59.18.99-.02.33-.12,1.48-.89,1.91-1.56.39-.62-.03-1.14-.07-1.19,0,0-.28-.36-.62-.65-.31-.27-.65-.48-.83-.57-.4-.21-.76-.07-.99.02-.33.12-1.48.89-1.91,1.57-.38.62.03,1.14.07,1.19"/>
      <path class="cls-4" d="m395.48,80.6s.28.37.62.65c.31.28.65.48.83.57.27.14.59.18.99-.02.33-.11,1.48-.88,1.91-1.56.39-.62-.03-1.14-.07-1.19,0,0-.28-.37-.62-.65-.31-.28-.65-.48-.82-.57-.41-.21-.76-.07-.99.02-.33.12-1.48.88-1.91,1.56-.39.62.03,1.14.07,1.19"/>
      <path class="cls-5" d="m387.08,89.01s.28.37.62.65c.31.28.65.48.82.57.27.14.59.18.99-.02.33-.12,1.48-.89,1.91-1.56.39-.62-.03-1.14-.07-1.19,0,0-.28-.37-.62-.65-.31-.28-.65-.48-.83-.57-.4-.21-.76-.07-.99.01-.33.12-1.48.89-1.91,1.57-.38.62.03,1.14.07,1.19"/>
      <path class="cls-5" d="m403.89,89.01s.29.37.62.65c.31.28.65.48.82.57.27.14.59.18.99-.02.33-.12,1.48-.89,1.91-1.56.39-.62-.03-1.14-.07-1.19,0,0-.29-.37-.62-.65-.31-.28-.65-.48-.83-.57-.4-.21-.76-.07-.99.01-.33.12-1.48.89-1.91,1.57-.38.62.04,1.14.07,1.19"/>
      <g class="cls-8">
        <path class="cls-5" d="m252.48,110.38s.28.37.62.65c.31.28.65.48.83.57.27.14.59.18.99-.02.33-.12,1.48-.89,1.91-1.56.39-.62-.03-1.14-.07-1.19,0,0-.28-.37-.62-.65-.31-.28-.65-.48-.82-.57-.4-.21-.76-.07-.99.01-.33.12-1.48.89-1.91,1.57-.38.62.03,1.14.07,1.19"/>
      </g>
      <g class="cls-8">
        <path class="cls-5" d="m269.3,110.38s.29.37.62.65c.31.28.65.48.82.57.27.14.59.18.99-.02.33-.12,1.48-.89,1.91-1.56.39-.62-.04-1.14-.07-1.19,0,0-.28-.37-.62-.65-.31-.28-.65-.48-.83-.57-.4-.21-.76-.07-.99.01-.33.12-1.48.89-1.91,1.57-.38.62.04,1.14.07,1.19"/>
      </g>
      <g class="cls-8">
        <path class="cls-5" d="m286.12,110.38s.28.37.62.65c.31.28.65.48.83.57.27.14.59.18.99-.02.33-.12,1.48-.89,1.91-1.56.39-.62-.04-1.14-.07-1.19,0,0-.28-.37-.62-.65-.31-.28-.65-.48-.83-.57-.4-.21-.76-.07-.99.01-.32.12-1.48.89-1.91,1.57-.38.62.03,1.14.07,1.19"/>
      </g>
      <g class="cls-8">
        <path class="cls-5" d="m302.93,110.38s.29.37.62.65c.31.28.65.48.83.57.27.14.59.18.99-.02.33-.12,1.48-.89,1.91-1.56.39-.62-.04-1.14-.07-1.19,0,0-.28-.37-.62-.65-.31-.28-.65-.48-.83-.57-.41-.21-.76-.07-.99.01-.33.12-1.49.89-1.91,1.57-.39.62.03,1.14.07,1.19"/>
      </g>
      <g class="cls-8">
        <path class="cls-5" d="m320.06,110.38s.29.37.62.65c.31.28.65.48.83.57.27.14.59.18.99-.02.33-.12,1.48-.89,1.91-1.56.39-.62-.04-1.14-.07-1.19,0,0-.28-.37-.62-.65-.31-.28-.65-.48-.83-.57-.4-.21-.76-.07-.99.01-.33.12-1.48.89-1.91,1.57-.38.62.03,1.14.07,1.19"/>
      </g>
      <path class="cls-6" d="m336.88,110.38s.28.37.62.65c.31.28.65.48.82.57.27.14.59.18.99-.02.33-.12,1.48-.89,1.9-1.56.39-.62-.03-1.14-.07-1.19,0,0-.28-.37-.62-.65-.31-.28-.65-.48-.82-.57-.4-.21-.76-.07-.99.01-.33.12-1.48.89-1.91,1.57-.38.62.03,1.14.07,1.19"/>
      <path class="cls-6" d="m353.69,110.38s.28.37.62.65c.31.28.65.48.83.57.27.14.59.18.99-.02.33-.12,1.48-.89,1.91-1.56.39-.62-.03-1.14-.07-1.19,0,0-.28-.37-.62-.65-.31-.28-.65-.48-.82-.57-.4-.21-.76-.07-.99.01-.32.12-1.48.89-1.91,1.57-.39.62.03,1.14.07,1.19"/>
      <path class="cls-6" d="m370.51,110.38s.28.37.62.65c.31.28.65.48.82.57.27.14.59.18.99-.02.33-.12,1.48-.89,1.91-1.56.39-.62-.03-1.14-.07-1.19,0,0-.28-.37-.62-.65-.31-.28-.65-.48-.82-.57-.41-.21-.76-.07-.99.01-.33.12-1.48.89-1.91,1.57-.38.62.04,1.14.07,1.19"/>
      <path class="cls-6" d="m387.08,110.38s.28.37.62.65c.31.28.65.48.82.57.27.14.59.18.99-.02.33-.12,1.48-.89,1.91-1.56.39-.62-.03-1.14-.07-1.19,0,0-.28-.37-.62-.65-.31-.28-.65-.48-.83-.57-.4-.21-.76-.07-.99.01-.33.12-1.48.89-1.91,1.57-.38.62.03,1.14.07,1.19"/>
      <path class="cls-6" d="m403.89,110.38s.29.37.62.65c.31.28.65.48.82.57.27.14.59.18.99-.02.33-.12,1.48-.89,1.91-1.56.39-.62-.03-1.14-.07-1.19,0,0-.29-.37-.62-.65-.31-.28-.65-.48-.83-.57-.4-.21-.76-.07-.99.01-.33.12-1.48.89-1.91,1.57-.38.62.04,1.14.07,1.19"/>
      <path class="cls-6" d="m353.69,135.6s.28.37.62.65c.31.28.65.48.83.57.27.14.59.18.99-.02.33-.12,1.48-.89,1.91-1.56.39-.62-.03-1.14-.07-1.19,0,0-.28-.37-.62-.65-.31-.28-.65-.48-.82-.57-.4-.21-.76-.07-.99.01-.32.12-1.48.89-1.91,1.57-.39.62.03,1.14.07,1.19"/>
      <path class="cls-6" d="m370.51,135.6s.28.37.62.65c.31.28.65.48.82.57.27.14.59.18.99-.02.33-.12,1.48-.89,1.91-1.56.39-.62-.03-1.14-.07-1.19,0,0-.28-.37-.62-.65-.31-.28-.65-.48-.82-.57-.41-.21-.76-.07-.99.01-.33.12-1.48.89-1.91,1.57-.38.62.04,1.14.07,1.19"/>
      <path class="cls-6" d="m387.08,135.6s.28.37.62.65c.31.28.65.48.82.57.27.14.59.18.99-.02.33-.12,1.48-.89,1.91-1.56.39-.62-.03-1.14-.07-1.19,0,0-.28-.37-.62-.65-.31-.28-.65-.48-.83-.57-.4-.21-.76-.07-.99.01-.33.12-1.48.89-1.91,1.57-.38.62.03,1.14.07,1.19"/>
      <path class="cls-6" d="m403.89,135.6s.29.37.62.65c.31.28.65.48.82.57.27.14.59.18.99-.02.33-.12,1.48-.89,1.91-1.56.39-.62-.03-1.14-.07-1.19,0,0-.29-.37-.62-.65-.31-.28-.65-.48-.83-.57-.4-.21-.76-.07-.99.01-.33.12-1.48.89-1.91,1.57-.38.62.04,1.14.07,1.19"/>
      <path class="cls-5" d="m412.3,97.47s.28.37.62.65c.31.27.65.48.82.57.27.14.59.18.99-.02.33-.11,1.48-.88,1.91-1.56.38-.62-.04-1.14-.07-1.19,0,0-.28-.37-.62-.65-.31-.27-.65-.48-.83-.57-.4-.21-.76-.07-.99.02-.33.11-1.48.88-1.91,1.56-.38.61.04,1.14.07,1.19"/>
      <path class="cls-5" d="m395.48,97.47s.28.37.62.65c.31.27.65.48.83.57.27.14.59.18.99-.02.33-.11,1.48-.88,1.91-1.56.39-.62-.03-1.14-.07-1.19,0,0-.28-.37-.62-.65-.31-.27-.65-.48-.82-.57-.41-.21-.76-.07-.99.02-.33.11-1.48.88-1.91,1.56-.39.61.03,1.14.07,1.19"/>
      <g class="cls-9">
        <path class="cls-5" d="m311.34,122.7s.28.37.62.65c.31.27.65.48.83.57.27.14.59.18.99-.02.33-.11,1.48-.88,1.91-1.56.39-.62-.04-1.14-.07-1.19,0,0-.28-.37-.62-.65-.31-.27-.65-.48-.83-.57-.4-.21-.76-.07-.99.02-.32.11-1.48.88-1.91,1.56-.38.61.03,1.14.07,1.19"/>
      </g>
      <path class="cls-5" d="m328.2,122.7s.28.37.62.65c.31.27.65.48.82.57.27.14.59.18.99-.02.33-.11,1.48-.88,1.91-1.56.39-.62-.03-1.14-.07-1.19,0,0-.28-.37-.62-.65-.31-.27-.65-.48-.82-.57-.4-.21-.76-.07-.99.02-.32.11-1.48.88-1.91,1.56-.39.61.03,1.14.07,1.19"/>
      <path class="cls-5" d="m345.28,122.7s.28.37.62.65c.31.27.65.48.83.57.27.14.59.18.99-.02.33-.11,1.48-.88,1.91-1.56.39-.62-.03-1.14-.07-1.19,0,0-.28-.37-.62-.65-.31-.27-.65-.48-.82-.57-.41-.21-.76-.07-.99.02-.33.11-1.48.88-1.91,1.56-.38.61.04,1.14.07,1.19"/>
      <path class="cls-5" d="m378.92,122.7s.28.37.62.65c.31.27.65.48.82.57.27.14.59.18.99-.02.33-.11,1.48-.88,1.9-1.56.39-.62-.03-1.14-.07-1.19,0,0-.29-.37-.62-.65-.31-.27-.65-.48-.83-.57-.4-.21-.76-.07-.99.02-.33.11-1.48.88-1.91,1.56-.39.61.04,1.14.07,1.19"/>
      <path class="cls-5" d="m362.1,122.7s.28.37.62.65c.31.27.65.48.83.57.26.14.59.18.99-.02.33-.11,1.48-.88,1.9-1.56.39-.62-.03-1.14-.07-1.19,0,0-.29-.37-.62-.65-.31-.27-.65-.48-.82-.57-.41-.21-.76-.07-.99.02-.33.11-1.48.88-1.91,1.56-.39.61.04,1.14.07,1.19"/>
      <path class="cls-5" d="m412.3,122.7s.28.37.62.65c.31.27.65.48.82.57.27.14.59.18.99-.02.33-.11,1.48-.88,1.91-1.56.38-.62-.04-1.14-.07-1.19,0,0-.28-.37-.62-.65-.31-.27-.65-.48-.83-.57-.4-.21-.76-.07-.99.02-.33.11-1.48.88-1.91,1.56-.38.61.04,1.14.07,1.19"/>
      <path class="cls-5" d="m395.48,122.7s.28.37.62.65c.31.27.65.48.83.57.27.14.59.18.99-.02.33-.11,1.48-.88,1.91-1.56.39-.62-.03-1.14-.07-1.19,0,0-.28-.37-.62-.65-.31-.27-.65-.48-.82-.57-.41-.21-.76-.07-.99.02-.33.11-1.48.88-1.91,1.56-.39.61.03,1.14.07,1.19"/>
    </g>
    <g>
      <g>
        <path class="cls-3" d="m203.56,62.43c0,1.68-.76,3.07-2.3,3.66,1.44.48,2.55,1.57,2.55,3.91,0,3.56-2.9,4.23-6.17,4.23-1.98,0-3.71-.14-5.25-.41v-15.11c1.29-.23,3.17-.41,4.98-.41,2.94,0,6.19.54,6.19,4.13Zm-8.48,4.62v4.9c.76.1,1.52.16,2.46.16,2.11,0,3.55-.31,3.55-2.48s-1.56-2.58-3.62-2.58h-2.39Zm2.39-1.92c2.02,0,3.44-.33,3.44-2.42s-1.39-2.31-3.55-2.31c-.66,0-1.5.05-2.28.15v4.58h2.38Z"/>
        <path class="cls-3" d="m208.75,69.38c.14,2.3,1.34,2.83,3.18,2.83,1.6,0,3.05-.16,4.28-.3l.22,1.89c-1.29.21-2.85.43-5.15.43-4,0-5.05-2.59-5.05-6.13,0-4.33,1.34-6.12,5.31-6.12,4.29,0,5.21,2.27,5.21,5.82,0,.29,0,.59-.04.89-1.36.24-4.21.52-5.86.59l-2.1.1Zm2.33-1.85c.88-.04,2.26-.15,3.08-.27.02-.15.03-.4.03-.56,0-1.81-.67-2.8-2.65-2.8-2.51,0-2.85,1.59-2.85,3.74l2.4-.11Z"/>
        <path class="cls-3" d="m227.2,64.28c-.66-.12-1.37-.25-2.07-.25-3.14,0-3.45.87-3.45,3.96,0,2.93.13,4.15,3.46,4.15.69,0,1.37-.13,2.05-.27l.23,1.94c-1.01.24-2.21.42-3.7.42-3.97,0-4.61-3-4.61-6.24,0-3.91.9-6.01,5.27-6.01,1.26,0,2.22.18,3.03.41l-.2,1.88Z"/>
        <path class="cls-3" d="m229.48,70.51c0-2.08.91-3.39,3.21-3.73,1.31-.2,2.75-.26,4.23-.32,0-1.65-.72-2.48-2.54-2.48-1.43,0-2.93.15-4.14.3l-.21-1.86c1.28-.22,2.84-.44,4.59-.44,2.62,0,4.79.71,4.79,3.75v5.26c0,.78-.03,1.46-.11,2.19-1.33.75-3.1,1.04-5.32,1.04-3.23,0-4.5-1.26-4.5-3.72Zm7.44-2.39c-1.05.04-2.27.06-3.24.28-1.24.29-1.68.67-1.68,2.06,0,1.49.83,1.86,2.35,1.86.78,0,1.74-.06,2.49-.41.05-.49.08-1.07.08-1.6v-2.2Z"/>
        <path class="cls-3" d="m248.05,70.81c0-1.37-1.22-1.49-2.34-1.82-1.91-.58-3.74-1.07-3.74-3.63s1.84-3.37,4.2-3.37c1.65,0,2.81.14,4.24.46l-.24,1.87c-.93-.17-1.93-.32-2.98-.32-.97,0-2.69,0-2.69,1.22s1.45,1.48,2.44,1.81c2.03.69,3.68,1.06,3.68,3.69s-2.03,3.52-4.65,3.52c-1.28,0-2.88-.16-4.12-.47l.24-1.91c.92.16,2.24.33,3.17.33s2.77.03,2.77-1.37Z"/>
      </g>
      <g>
        <path class="cls-3" d="m378.57,41.88h-103.91c-6.28,0-10.89,4.84-12.11,11.14-1.22,6.31-6.88,34.75-6.88,35.35,0,2.4,1.93,4.34,4.33,4.35h103.91c6.28,0,10.89-4.84,12.11-11.15,1.22-6.3,6.88-34.74,6.88-35.35,0-2.39-1.94-4.33-4.32-4.35"/>
        <path class="cls-1" d="m297.17,73.48l1.13-5.04h1.56c2.21,0,4.04.62,3.99,2.65-.05,2.3-2.41,3.23-4.98,3.23-.4,0-.78,0-1.15-.01-.71-.06-.55-.83-.55-.83m11.67-2.28c0-3.02-2.14-4.34-3.87-4.48,2.18-.36,5.08-1.97,5.08-4.93,0-3.15-3.17-4.84-7.96-4.84-2.17,0-4.29.19-6.17.49l-3.43,15.21s-1.18,3.93,2.19,4.74c.95.24,1.59.32,2.64.38,8.94.49,11.53-3.53,11.53-6.57m-8.75-10.72c.36-.06,1.23-.11,2.06-.11,1.81,0,3.08.63,3.04,2.09-.05,1.77-1.84,2.78-4.44,2.78h-1.01c-.73,0-.52-.84-.52-.84l.86-3.92Z"/>
        <path class="cls-1" d="m330.72,77.82c.73,0,2.1-.29,2.56-2.37.37-1.66,1-4.48,1-4.48.48.03,1.16.12,1.95.12,7.66,0,10.33-4.93,10.33-8.27,0-3.65-2.54-5.74-8.08-5.76-2.27-.02-4.23.07-6.09.49l-4.5,20.27h2.84Zm6.16-17.19c.39-.06,1.08-.1,1.99-.1,1.78,0,3.26.53,3.26,2.66s-1.65,4.28-4.88,4.3c-.21,0-.4,0-.58-.02-1.44,0-1.04-1.2-1.04-1.2l1.25-5.65Z"/>
        <path class="cls-1" d="m316.64,68.87c0-3.3,2.14-8.22,7.04-8.22,1.29,0,3.58.33,4.91,1.51,0,0,.49-1.67.64-2.37.14-.68-.11-1.82-2.22-2.5-1.36-.44-2.42-.65-3.93-.65-7.67,0-11.65,6.31-11.65,12.51,0,6.63,4.44,8.87,8.98,8.87,1.63,0,2.7-.17,3.73-.56,1.26-.43,1.46-1.56,1.46-1.56l.76-3.41c-1.93,1.42-3.37,1.64-4.68,1.64-3.19,0-5.05-2.05-5.05-5.25"/>
        <path class="cls-2" d="m289.81,63.99c.15.21,1.99,2.49.3,5.19-1.85,2.95-6.9,6.32-8.33,6.82-2.78,1.17-4.66-.99-4.83-1.21-.52-.67-.64-.81-.89-1.3-.05.08,5.34-2.43,7.27-5.67,2.09-2.78,2.27-8.25-.01-9.27.69.35,2.32,1.28,3.79,2.59,1.46,1.24,2.73,2.87,2.7,2.85"/>
        <path class="cls-1" d="m284.23,66.22c1.19-2.89,1-6.81-.9-7.66-1.73-.82-3.71,1.5-3.81,1.62,0,0-.65.8-1.14,1.91.34.19.99.51.99.51,1.34.64,3.14,1.77,4.86,3.62"/>
        <path class="cls-2" d="m360.28,63.99c.15.21,1.99,2.49.3,5.19-1.85,2.95-6.89,6.32-8.32,6.82-2.78,1.17-4.66-.99-4.82-1.21-.52-.67-.64-.81-.89-1.3-.06.08,5.34-2.43,7.26-5.67,2.09-2.78,2.28-8.25-.01-9.27.69.35,2.31,1.28,3.78,2.59,1.46,1.24,2.73,2.87,2.7,2.85"/>
        <path class="cls-1" d="m354.69,66.22c1.19-2.89.99-6.81-.9-7.66-1.74-.82-3.71,1.5-3.8,1.62,0,0-.65.8-1.15,1.91.33.19.99.51.99.51,1.34.64,3.14,1.77,4.86,3.62"/>
      </g>
    </g>
  </g>
</svg>